<svg xmlns="http://www.w3.org/2000/svg" xmlns:xlink="http://www.w3.org/1999/xlink" viewBox="0 0 1177.03 584.01"><defs><style>.cls-1,.cls-22,.cls-23,.cls-29,.cls-35,.cls-37,.cls-66,.cls-70,.cls-8{fill:none;}.cls-2{clip-path:url(#clip-path);}.cls-3,.cls-4,.cls-5{fill:#808285;}.cls-23,.cls-3{opacity:0.2;}.cls-28,.cls-4{opacity:0.3;}.cls-5{opacity:0.12;}.cls-6{fill:#505966;}.cls-7{fill:#dfd9c6;}.cls-8{stroke:#6b7672;}.cls-22,.cls-23,.cls-29,.cls-35,.cls-37,.cls-38,.cls-53,.cls-54,.cls-66,.cls-67,.cls-68,.cls-70,.cls-8{stroke-miterlimit:10;}.cls-15,.cls-8{opacity:0.8;}.cls-9{fill:#c4a987;}.cls-10{fill:#c4a588;}.cls-11{fill:#d0b582;}.cls-12{fill:#183d59;}.cls-13{fill:#153959;}.cls-14{fill:#9b8878;}.cls-15{fill:#3b3d3d;}.cls-16{fill:#cdc6a7;}.cls-17{fill:#cbbda1;}.cls-18{fill:#4cbccb;}.cls-19{fill:#4cb2bc;}.cls-20{fill:#164473;}.cls-21{fill:#dee5e9;}.cls-22,.cls-23{stroke:#b5c2df;}.cls-24{fill:#007aac;}.cls-25{fill:#14487d;}.cls-26{fill:#0066a0;}.cls-27{fill:#00588e;}.cls-28{fill:#1c2e57;}.cls-29{stroke:#103b5b;stroke-width:1.5px;}.cls-30{fill:#dcd9ac;}.cls-31{fill:#233547;}.cls-32{fill:#1c2a53;}.cls-33{fill:#e2bfc0;}.cls-34{fill:#8b7590;}.cls-35{stroke:#e2bfc0;}.cls-36{fill:#124356;}.cls-37,.cls-38,.cls-66,.cls-67,.cls-68{stroke:#e4e5e6;}.cls-38,.cls-39{fill:#97a4aa;}.cls-38{stroke-width:0.25px;}.cls-40{fill:#e0e0d1;}.cls-41{fill:#3e3536;}.cls-42{fill:#af874e;}.cls-43{fill:#b48f5e;}.cls-44{fill:#cda26f;}.cls-45{fill:#c69d67;}.cls-46{fill:#bd9559;}.cls-47{fill:#ab844e;}.cls-48{fill:#442b19;}.cls-49{fill:#a29b8f;}.cls-50{fill:#cec4b3;}.cls-51{fill:#00b04c;}.cls-52,.cls-53,.cls-54{fill:#008e46;}.cls-53,.cls-54{stroke:#2e1401;}.cls-53{stroke-width:0.75px;}.cls-54,.cls-66,.cls-67,.cls-68{stroke-width:0.5px;}.cls-55{fill:#80c342;}.cls-56{fill:#3ab54a;}.cls-57{fill:#e4e5e6;}.cls-58{fill:#757679;}.cls-59{fill:#909295;}.cls-60{fill:#5f6062;}.cls-61{fill:#8a8c8e;}.cls-62{fill:#b6b8ba;}.cls-63{fill:#cdcfd0;}.cls-64{fill:#9fa1a4;}.cls-65{opacity:0.4;}.cls-67{fill:#cecac8;}.cls-68{fill:#006db7;}.cls-69{fill:#e7e2cd;}.cls-70{stroke:#6d6461;}.cls-71{fill:#1b2c3e;}</style><clipPath id="clip-path"><rect class="cls-1" y="258.31" width="944.33" height="325.7"/></clipPath></defs><title>17_01_27_SkylineIllustration_2</title><g id="Layer_3" data-name="Layer 3"><g class="cls-2"><polygon class="cls-3" points="63.84 433.91 63.84 424.12 53.03 424.12 53.03 415.48 20.59 415.48 20.59 424.12 9.78 424.12 9.78 433.91 0 433.91 0 609.56 73.62 609.56 73.62 433.91 63.84 433.91"/><rect class="cls-4" x="646.61" y="420.66" width="65.42" height="162.65"/><rect class="cls-4" x="184.57" y="325.54" width="75.3" height="250.34"/><polygon class="cls-4" points="579.41 344.94 579.41 324.55 546.19 324.55 546.19 344.94 520.14 344.94 520.14 583.5 605.46 583.5 605.46 344.94 579.41 344.94"/><rect class="cls-5" x="712.23" y="377.36" width="77.05" height="250.34"/><rect class="cls-6" x="120.92" y="362.45" width="19.03" height="221.36"/><rect class="cls-7" x="74.11" y="362.45" width="46.81" height="221.36"/><line class="cls-8" x1="74.11" y1="369.87" x2="139.96" y2="369.87"/><line class="cls-8" x1="74.11" y1="376.21" x2="139.96" y2="376.21"/><line class="cls-8" x1="74.11" y1="382.56" x2="139.96" y2="382.56"/><line class="cls-8" x1="74.11" y1="388.91" x2="139.96" y2="388.91"/><line class="cls-8" x1="74.11" y1="395.25" x2="139.96" y2="395.25"/><line class="cls-8" x1="74.11" y1="401.6" x2="139.96" y2="401.6"/><line class="cls-8" x1="74.11" y1="407.95" x2="139.96" y2="407.95"/><line class="cls-8" x1="74.11" y1="414.29" x2="139.96" y2="414.29"/><line class="cls-8" x1="74.11" y1="420.64" x2="139.96" y2="420.64"/><line class="cls-8" x1="74.11" y1="426.99" x2="139.96" y2="426.99"/><line class="cls-8" x1="74.11" y1="433.34" x2="139.96" y2="433.34"/><line class="cls-8" x1="74.11" y1="439.68" x2="139.96" y2="439.68"/><line class="cls-8" x1="74.11" y1="446.03" x2="139.96" y2="446.03"/><line class="cls-8" x1="74.11" y1="452.38" x2="139.96" y2="452.38"/><line class="cls-8" x1="74.11" y1="458.72" x2="139.96" y2="458.72"/><line class="cls-8" x1="74.11" y1="465.07" x2="139.96" y2="465.07"/><line class="cls-8" x1="74.11" y1="471.42" x2="139.96" y2="471.42"/><line class="cls-8" x1="74.11" y1="477.76" x2="139.96" y2="477.76"/><line class="cls-8" x1="74.11" y1="484.11" x2="139.96" y2="484.11"/><line class="cls-8" x1="74.11" y1="490.46" x2="139.96" y2="490.46"/><line class="cls-8" x1="74.11" y1="496.8" x2="139.96" y2="496.8"/><line class="cls-8" x1="74.11" y1="503.15" x2="139.96" y2="503.15"/><line class="cls-8" x1="74.11" y1="509.5" x2="139.96" y2="509.5"/><line class="cls-8" x1="74.11" y1="515.85" x2="139.96" y2="515.85"/><line class="cls-8" x1="74.11" y1="522.19" x2="139.96" y2="522.19"/><line class="cls-8" x1="74.11" y1="528.54" x2="139.96" y2="528.54"/><line class="cls-8" x1="74.11" y1="534.89" x2="139.96" y2="534.89"/><line class="cls-8" x1="74.11" y1="541.23" x2="139.96" y2="541.23"/><line class="cls-8" x1="74.11" y1="547.58" x2="139.96" y2="547.58"/><line class="cls-8" x1="74.11" y1="553.93" x2="139.96" y2="553.93"/><line class="cls-8" x1="74.11" y1="560.27" x2="139.96" y2="560.27"/><line class="cls-8" x1="74.11" y1="566.62" x2="139.96" y2="566.62"/><line class="cls-8" x1="74.11" y1="572.97" x2="139.96" y2="572.97"/><line class="cls-8" x1="74.11" y1="579.31" x2="139.96" y2="579.31"/><rect class="cls-9" x="107.04" y="362.45" width="13.89" height="221.36"/><rect class="cls-10" x="128.53" y="362.45" width="6.08" height="221.36"/><rect class="cls-11" x="79.36" y="362.45" width="11.15" height="221.36"/><rect class="cls-12" x="124.47" y="362.45" width="1.52" height="221.36"/><rect class="cls-13" x="137.65" y="362.45" width="2.3" height="221.36"/><rect class="cls-14" x="118.83" y="362.45" width="2.09" height="221.36"/><rect class="cls-9" x="88.48" y="362.45" width="2.02" height="221.36"/><rect class="cls-15" x="134.61" y="362.45" width="3.04" height="221.36"/><rect class="cls-7" x="97.52" y="362.45" width="3.28" height="221.36"/><rect class="cls-16" x="87.26" y="357.33" width="39.54" height="5.12"/><rect class="cls-17" x="92.84" y="352.98" width="28.33" height="4.35"/><rect class="cls-18" x="153.67" y="392.87" width="56.3" height="191.47"/><rect class="cls-19" x="140.08" y="392.87" width="13.59" height="191.47"/><rect class="cls-20" x="198.69" y="392.87" width="11.28" height="191.47"/><rect class="cls-21" x="153.67" y="378.64" width="45.02" height="14.23"/><rect class="cls-20" x="186.78" y="360.82" width="3.14" height="17.82"/><rect class="cls-20" x="165.32" y="360.82" width="3.66" height="17.82"/><line class="cls-22" x1="140.08" y1="399.07" x2="198.69" y2="399.07"/><line class="cls-22" x1="140.08" y1="407.52" x2="198.69" y2="407.52"/><line class="cls-22" x1="140.08" y1="415.97" x2="198.69" y2="415.97"/><line class="cls-22" x1="140.08" y1="424.42" x2="198.69" y2="424.42"/><line class="cls-22" x1="140.08" y1="432.87" x2="198.69" y2="432.87"/><line class="cls-22" x1="140.08" y1="441.32" x2="198.69" y2="441.32"/><line class="cls-22" x1="140.08" y1="449.77" x2="198.69" y2="449.77"/><line class="cls-22" x1="140.08" y1="458.22" x2="198.69" y2="458.22"/><line class="cls-22" x1="140.08" y1="466.66" x2="198.69" y2="466.66"/><line class="cls-22" x1="140.08" y1="475.11" x2="198.69" y2="475.11"/><line class="cls-22" x1="140.08" y1="483.56" x2="198.69" y2="483.56"/><line class="cls-22" x1="140.08" y1="492.01" x2="198.69" y2="492.01"/><line class="cls-22" x1="140.08" y1="500.46" x2="198.69" y2="500.46"/><line class="cls-22" x1="140.08" y1="508.91" x2="198.69" y2="508.91"/><line class="cls-22" x1="140.08" y1="517.36" x2="198.69" y2="517.36"/><line class="cls-22" x1="140.08" y1="525.81" x2="198.69" y2="525.81"/><line class="cls-22" x1="140.08" y1="534.25" x2="198.69" y2="534.25"/><line class="cls-22" x1="140.08" y1="542.7" x2="198.69" y2="542.7"/><line class="cls-22" x1="140.08" y1="551.15" x2="198.69" y2="551.15"/><line class="cls-22" x1="140.08" y1="559.6" x2="198.69" y2="559.6"/><line class="cls-22" x1="140.08" y1="568.05" x2="198.69" y2="568.05"/><line class="cls-22" x1="140.08" y1="576.5" x2="198.69" y2="576.5"/><line class="cls-23" x1="198.69" y1="399.07" x2="209.97" y2="399.07"/><line class="cls-23" x1="198.69" y1="407.52" x2="209.97" y2="407.52"/><line class="cls-23" x1="198.69" y1="415.97" x2="209.97" y2="415.97"/><line class="cls-23" x1="198.69" y1="424.42" x2="209.97" y2="424.42"/><line class="cls-23" x1="198.69" y1="432.87" x2="209.97" y2="432.87"/><line class="cls-23" x1="198.69" y1="441.32" x2="209.97" y2="441.32"/><line class="cls-23" x1="198.69" y1="449.77" x2="209.97" y2="449.77"/><line class="cls-23" x1="198.69" y1="458.22" x2="209.97" y2="458.22"/><line class="cls-23" x1="198.69" y1="466.66" x2="209.97" y2="466.66"/><line class="cls-23" x1="198.69" y1="475.11" x2="209.97" y2="475.11"/><line class="cls-23" x1="198.69" y1="483.56" x2="209.97" y2="483.56"/><line class="cls-23" x1="198.69" y1="492.01" x2="209.97" y2="492.01"/><line class="cls-23" x1="198.69" y1="500.46" x2="209.97" y2="500.46"/><line class="cls-23" x1="198.69" y1="508.91" x2="209.97" y2="508.91"/><line class="cls-23" x1="198.69" y1="517.36" x2="209.97" y2="517.36"/><line class="cls-23" x1="198.69" y1="525.81" x2="209.97" y2="525.81"/><line class="cls-23" x1="198.69" y1="534.25" x2="209.97" y2="534.25"/><line class="cls-23" x1="198.69" y1="542.7" x2="209.97" y2="542.7"/><line class="cls-23" x1="198.69" y1="551.15" x2="209.97" y2="551.15"/><line class="cls-23" x1="198.69" y1="559.6" x2="209.97" y2="559.6"/><line class="cls-23" x1="198.69" y1="568.05" x2="209.97" y2="568.05"/><line class="cls-23" x1="198.69" y1="576.5" x2="209.97" y2="576.5"/><path class="cls-24" d="M383.7,307V584.31H492.62V307s-25-8.11-52.49-8.11S383.7,307,383.7,307Z"/><polygon class="cls-25" points="474.15 302.43 474.15 584.31 492.62 584.31 492.62 307 474.15 302.43"/><polygon class="cls-25" points="457.98 299.94 457.98 584.31 468.32 584.31 468.32 301.37 457.98 299.94"/><polygon class="cls-25" points="452.45 299.39 452.45 584.31 442.06 584.31 442.06 298.88 452.45 299.39"/><polygon class="cls-25" points="435.82 298.95 435.82 584.31 430.32 584.31 430.32 299.2 435.82 298.95"/><polygon class="cls-25" points="421.71 299.94 421.71 584.31 424.2 584.31 424.2 299.68 421.71 299.94"/><polygon class="cls-25" points="414.94 300.76 414.94 584.31 415.89 584.31 415.89 300.63 414.94 300.76"/><polygon class="cls-25" points="400.5 303.15 400.5 584.31 401.45 584.31 401.45 302.97 400.5 303.15"/><polygon class="cls-25" points="392.77 304.77 392.77 584.31 394.43 584.31 394.43 304.4 392.77 304.77"/><polygon class="cls-25" points="411.5 301.25 411.5 584.31 407.13 584.31 407.13 301.95 411.5 301.25"/><rect class="cls-26" x="513.27" y="452.71" width="132.57" height="132.57"/><rect class="cls-26" x="520.97" y="419.23" width="117.17" height="33.48"/><polyline class="cls-27" points="534.92 419.23 534.92 409.93 559.1 394.13 597.04 394.13 624.19 406.68 624.19 419.23"/><polyline class="cls-28" points="577.71 406.68 601.91 406.68 598.26 394.12 578.61 394.12 578.61 394.12 558.95 394.12 555.31 406.68 579.5 406.68"/><line class="cls-29" x1="513.27" y1="459.67" x2="645.84" y2="459.67"/><line class="cls-29" x1="521.11" y1="447.65" x2="638.14" y2="447.65"/><line class="cls-29" x1="521.11" y1="439.8" x2="638.14" y2="439.8"/><line class="cls-29" x1="521.11" y1="431.95" x2="638.14" y2="431.95"/><line class="cls-29" x1="521.11" y1="424.1" x2="638.14" y2="424.1"/><line class="cls-29" x1="513.27" y1="467.87" x2="645.84" y2="467.87"/><line class="cls-29" x1="513.27" y1="476.07" x2="645.84" y2="476.07"/><line class="cls-29" x1="513.27" y1="484.27" x2="645.84" y2="484.27"/><line class="cls-29" x1="513.27" y1="492.47" x2="645.84" y2="492.47"/><line class="cls-29" x1="513.27" y1="500.67" x2="645.84" y2="500.67"/><line class="cls-29" x1="513.27" y1="508.87" x2="645.84" y2="508.87"/><line class="cls-29" x1="513.27" y1="517.07" x2="645.84" y2="517.07"/><line class="cls-29" x1="513.27" y1="525.27" x2="645.84" y2="525.27"/><line class="cls-29" x1="513.27" y1="533.47" x2="645.84" y2="533.47"/><line class="cls-29" x1="513.27" y1="541.67" x2="645.84" y2="541.67"/><line class="cls-29" x1="513.27" y1="549.87" x2="645.84" y2="549.87"/><line class="cls-29" x1="513.27" y1="558.07" x2="645.84" y2="558.07"/><line class="cls-29" x1="513.27" y1="566.27" x2="645.84" y2="566.27"/><line class="cls-29" x1="513.27" y1="574.47" x2="645.84" y2="574.47"/><line class="cls-29" x1="513.27" y1="582.67" x2="645.84" y2="582.67"/><rect class="cls-30" x="492.72" y="415.17" width="93.39" height="196.34"/><rect class="cls-31" x="497.67" y="576.87" width="7.95" height="7.23"/><rect class="cls-31" x="510.28" y="576.87" width="7.95" height="7.23"/><rect class="cls-31" x="522.9" y="576.87" width="7.95" height="7.23"/><rect class="cls-31" x="535.51" y="576.87" width="7.95" height="7.23"/><rect class="cls-31" x="548.13" y="576.87" width="7.95" height="7.23"/><rect class="cls-31" x="560.74" y="576.87" width="7.95" height="7.23"/><rect class="cls-31" x="573.36" y="576.87" width="7.95" height="7.23"/><rect class="cls-31" x="497.67" y="565.66" width="7.95" height="7.23"/><rect class="cls-31" x="510.28" y="565.66" width="7.95" height="7.23"/><rect class="cls-31" x="522.9" y="565.66" width="7.95" height="7.23"/><rect class="cls-31" x="535.51" y="565.66" width="7.95" height="7.23"/><rect class="cls-31" x="548.13" y="565.66" width="7.95" height="7.23"/><rect class="cls-31" x="560.74" y="565.66" width="7.95" height="7.23"/><rect class="cls-31" x="573.36" y="565.66" width="7.95" height="7.23"/><rect class="cls-31" x="497.67" y="554.45" width="7.95" height="7.23"/><rect class="cls-31" x="510.28" y="554.45" width="7.95" height="7.23"/><rect class="cls-31" x="522.9" y="554.45" width="7.95" height="7.23"/><rect class="cls-31" x="535.51" y="554.45" width="7.95" height="7.23"/><rect class="cls-31" x="548.13" y="554.45" width="7.95" height="7.23"/><rect class="cls-31" x="560.74" y="554.45" width="7.95" height="7.23"/><rect class="cls-31" x="573.36" y="554.45" width="7.95" height="7.23"/><rect class="cls-31" x="497.67" y="543.24" width="7.95" height="7.23"/><rect class="cls-31" x="510.28" y="543.24" width="7.95" height="7.23"/><rect class="cls-31" x="522.9" y="543.24" width="7.95" height="7.23"/><rect class="cls-31" x="535.51" y="543.24" width="7.95" height="7.23"/><rect class="cls-31" x="548.13" y="543.24" width="7.95" height="7.23"/><rect class="cls-31" x="560.74" y="543.24" width="7.95" height="7.23"/><rect class="cls-31" x="573.36" y="543.24" width="7.95" height="7.23"/><rect class="cls-31" x="497.67" y="532.03" width="7.95" height="7.23"/><rect class="cls-31" x="510.28" y="532.03" width="7.95" height="7.23"/><rect class="cls-31" x="522.9" y="532.03" width="7.95" height="7.23"/><rect class="cls-31" x="535.51" y="532.03" width="7.95" height="7.23"/><rect class="cls-31" x="548.13" y="532.03" width="7.95" height="7.23"/><rect class="cls-31" x="560.74" y="532.03" width="7.95" height="7.23"/><rect class="cls-31" x="573.36" y="532.03" width="7.95" height="7.23"/><rect class="cls-31" x="497.67" y="520.83" width="7.95" height="7.23"/><rect class="cls-31" x="510.28" y="520.83" width="7.95" height="7.23"/><rect class="cls-31" x="522.9" y="520.83" width="7.95" height="7.23"/><rect class="cls-31" x="535.51" y="520.83" width="7.95" height="7.23"/><rect class="cls-31" x="548.13" y="520.83" width="7.95" height="7.23"/><rect class="cls-31" x="560.74" y="520.83" width="7.95" height="7.23"/><rect class="cls-31" x="573.36" y="520.83" width="7.95" height="7.23"/><rect class="cls-31" x="497.67" y="509.62" width="7.95" height="7.23"/><rect class="cls-31" x="510.28" y="509.62" width="7.95" height="7.23"/><rect class="cls-31" x="522.9" y="509.62" width="7.95" height="7.23"/><rect class="cls-31" x="535.51" y="509.62" width="7.95" height="7.23"/><rect class="cls-31" x="548.13" y="509.62" width="7.95" height="7.23"/><rect class="cls-31" x="560.74" y="509.62" width="7.95" height="7.23"/><rect class="cls-31" x="573.36" y="509.62" width="7.95" height="7.23"/><rect class="cls-31" x="497.67" y="498.41" width="7.95" height="7.23"/><rect class="cls-31" x="510.28" y="498.41" width="7.95" height="7.23"/><rect class="cls-31" x="522.9" y="498.41" width="7.95" height="7.23"/><rect class="cls-31" x="535.51" y="498.41" width="7.95" height="7.23"/><rect class="cls-31" x="548.13" y="498.41" width="7.95" height="7.23"/><rect class="cls-31" x="560.74" y="498.41" width="7.95" height="7.23"/><rect class="cls-31" x="573.36" y="498.41" width="7.95" height="7.23"/><rect class="cls-31" x="497.67" y="487.2" width="7.95" height="7.23"/><rect class="cls-31" x="510.28" y="487.2" width="7.95" height="7.23"/><rect class="cls-31" x="522.9" y="487.2" width="7.95" height="7.23"/><rect class="cls-31" x="535.51" y="487.2" width="7.95" height="7.23"/><rect class="cls-31" x="548.13" y="487.2" width="7.95" height="7.23"/><rect class="cls-31" x="560.74" y="487.2" width="7.95" height="7.23"/><rect class="cls-31" x="573.36" y="487.2" width="7.95" height="7.23"/><rect class="cls-31" x="497.67" y="475.99" width="7.95" height="7.23"/><rect class="cls-31" x="510.28" y="475.99" width="7.95" height="7.23"/><rect class="cls-31" x="522.9" y="475.99" width="7.95" height="7.23"/><rect class="cls-31" x="535.51" y="475.99" width="7.95" height="7.23"/><rect class="cls-31" x="548.13" y="475.99" width="7.95" height="7.23"/><rect class="cls-31" x="560.74" y="475.99" width="7.95" height="7.23"/><rect class="cls-31" x="573.36" y="475.99" width="7.95" height="7.23"/><rect class="cls-31" x="497.67" y="464.78" width="7.95" height="7.23"/><rect class="cls-31" x="510.28" y="464.78" width="7.95" height="7.23"/><rect class="cls-31" x="522.9" y="464.78" width="7.95" height="7.23"/><rect class="cls-31" x="535.51" y="464.78" width="7.95" height="7.23"/><rect class="cls-31" x="548.13" y="464.78" width="7.95" height="7.23"/><rect class="cls-31" x="560.74" y="464.78" width="7.95" height="7.23"/><rect class="cls-31" x="573.36" y="464.78" width="7.95" height="7.23"/><rect class="cls-31" x="497.67" y="453.58" width="7.95" height="7.23"/><rect class="cls-31" x="510.28" y="453.58" width="7.95" height="7.23"/><rect class="cls-31" x="522.9" y="453.58" width="7.95" height="7.23"/><rect class="cls-31" x="535.51" y="453.58" width="7.95" height="7.23"/><rect class="cls-31" x="548.13" y="453.58" width="7.95" height="7.23"/><rect class="cls-31" x="560.74" y="453.58" width="7.95" height="7.23"/><rect class="cls-31" x="573.36" y="453.58" width="7.95" height="7.23"/><rect class="cls-31" x="497.67" y="442.37" width="7.95" height="7.23"/><rect class="cls-31" x="510.28" y="442.37" width="7.95" height="7.23"/><rect class="cls-31" x="522.9" y="442.37" width="7.95" height="7.23"/><rect class="cls-31" x="535.51" y="442.37" width="7.95" height="7.23"/><rect class="cls-31" x="548.13" y="442.37" width="7.95" height="7.23"/><rect class="cls-31" x="560.74" y="442.37" width="7.95" height="7.23"/><rect class="cls-31" x="573.36" y="442.37" width="7.95" height="7.23"/><rect class="cls-31" x="497.67" y="431.16" width="7.95" height="7.23"/><rect class="cls-31" x="510.28" y="431.16" width="7.95" height="7.23"/><rect class="cls-31" x="522.9" y="431.16" width="7.95" height="7.23"/><rect class="cls-31" x="535.51" y="431.16" width="7.95" height="7.23"/><rect class="cls-31" x="548.13" y="431.16" width="7.95" height="7.23"/><rect class="cls-31" x="560.74" y="431.16" width="7.95" height="7.23"/><rect class="cls-31" x="573.36" y="431.16" width="7.95" height="7.23"/><rect class="cls-31" x="497.67" y="419.95" width="7.95" height="7.23"/><rect class="cls-31" x="510.28" y="419.95" width="7.95" height="7.23"/><rect class="cls-31" x="522.9" y="419.95" width="7.95" height="7.23"/><rect class="cls-31" x="535.51" y="419.95" width="7.95" height="7.23"/><rect class="cls-31" x="548.13" y="419.95" width="7.95" height="7.23"/><rect class="cls-31" x="560.74" y="419.95" width="7.95" height="7.23"/><rect class="cls-31" x="573.36" y="419.95" width="7.95" height="7.23"/><polygon class="cls-32" points="709.74 584.61 709.74 474.42 729.04 492.86 730.75 584.61 709.74 584.61"/><polygon class="cls-33" points="709.74 474.42 727.75 474.42 727.75 470.13 746.62 470.13 746.62 479.56 763.34 479.56 763.34 488.57 778.77 488.57 778.77 499.29 793.78 499.29 793.78 584.61 730.75 584.61 729.04 492.86 709.74 474.42"/><polygon class="cls-34" points="730.75 485.14 730.75 492.86 734.05 492.86 734.05 522.89 791.37 522.89 791.37 514.51 775.41 514.51 775.41 505.32 766.22 505.32 766.22 502.62 761.06 502.62 761.06 494.51 749.79 494.51 749.79 492.55 744.62 492.55 744.62 484.38 730.75 484.38 730.75 485.14"/><rect class="cls-34" x="733.87" y="528.23" width="57.5" height="14.07"/><rect class="cls-34" x="733.87" y="547.88" width="57.5" height="15.21"/><rect class="cls-34" x="730.75" y="474.42" width="13.59" height="5.38"/><rect class="cls-34" x="746.63" y="484.38" width="13.59" height="5.38"/><rect class="cls-34" x="762.5" y="494.34" width="13.59" height="5.38"/><rect class="cls-34" x="778.37" y="504.3" width="13.59" height="5.38"/><polyline class="cls-32" points="709.74 474.42 690.45 492.86 688.73 584.61 709.74 584.61"/><polygon class="cls-33" points="709.74 474.42 691.74 474.42 691.74 470.13 672.87 470.13 672.87 479.56 656.15 479.56 656.15 488.57 640.71 488.57 640.71 499.29 625.7 499.29 625.7 584.61 688.73 584.61 690.45 492.86 709.74 474.42"/><polygon class="cls-34" points="688.73 485.14 688.73 492.86 685.43 492.86 685.43 522.89 628.12 522.89 628.12 514.51 644.07 514.51 644.07 505.32 653.26 505.32 653.26 502.62 658.43 502.62 658.43 494.51 669.7 494.51 669.7 492.55 674.87 492.55 674.87 484.38 688.73 484.38 688.73 485.14"/><rect class="cls-34" x="628.12" y="528.23" width="57.5" height="14.07"/><rect class="cls-34" x="628.12" y="547.88" width="57.5" height="15.21"/><rect class="cls-34" x="675.15" y="474.42" width="13.59" height="5.38" transform="translate(1363.88 954.21) rotate(-180)"/><rect class="cls-34" x="659.28" y="484.38" width="13.59" height="5.38" transform="translate(1332.14 974.13) rotate(-180)"/><rect class="cls-34" x="643.4" y="494.34" width="13.59" height="5.38" transform="translate(1300.39 994.05) rotate(-180)"/><rect class="cls-34" x="627.53" y="504.3" width="13.59" height="5.38" transform="translate(1268.65 1013.97) rotate(-180)"/><line class="cls-33" x1="688.73" y1="492.86" x2="730.75" y2="492.86"/><rect class="cls-35" x="702.36" y="492.86" width="14.77" height="93.81"/><line class="cls-35" x1="729.04" y1="492.86" x2="690.45" y2="492.86"/><polyline class="cls-35" points="702.36 492.86 709.74 486.24 717.13 492.86"/><line class="cls-35" x1="709.74" y1="486.23" x2="709.74" y2="474.42"/><polygon class="cls-36" points="865.84 584.39 905.09 536.13 944.33 584.39 865.84 584.39"/><polyline class="cls-37" points="944.33 584.39 905.09 536.13 865.84 584.39"/><line class="cls-38" x1="867.85" y1="582.26" x2="867.85" y2="585.46"/><line class="cls-38" x1="871.41" y1="577.85" x2="871.41" y2="585.46"/><line class="cls-38" x1="874.96" y1="573.47" x2="874.96" y2="585.46"/><line class="cls-38" x1="878.52" y1="569.03" x2="878.52" y2="585.46"/><line class="cls-38" x1="882.07" y1="564.14" x2="882.07" y2="585.46"/><line class="cls-38" x1="885.63" y1="560.26" x2="885.63" y2="585.46"/><line class="cls-38" x1="889.19" y1="555.06" x2="889.19" y2="585.46"/><line class="cls-38" x1="892.74" y1="551.39" x2="892.74" y2="585.46"/><line class="cls-38" x1="896.3" y1="546.92" x2="896.3" y2="585.46"/><line class="cls-38" x1="899.85" y1="542.57" x2="899.85" y2="585.46"/><line class="cls-38" x1="903.41" y1="538.37" x2="903.41" y2="585.46"/><line class="cls-38" x1="906.97" y1="538.36" x2="906.97" y2="585.46"/><line class="cls-38" x1="910.52" y1="542.82" x2="910.52" y2="585.46"/><line class="cls-38" x1="914.08" y1="546.92" x2="914.08" y2="585.46"/><line class="cls-38" x1="917.63" y1="551.39" x2="917.63" y2="585.46"/><line class="cls-38" x1="921.19" y1="555.06" x2="921.19" y2="585.46"/><line class="cls-38" x1="924.75" y1="560.26" x2="924.75" y2="585.46"/><line class="cls-38" x1="928.3" y1="564.14" x2="928.3" y2="585.46"/><line class="cls-38" x1="931.86" y1="569.03" x2="931.86" y2="585.46"/><line class="cls-38" x1="935.42" y1="573.47" x2="935.42" y2="585.46"/><line class="cls-38" x1="938.97" y1="577.85" x2="938.97" y2="585.46"/><polygon class="cls-39" points="897.6 544.11 912.6 544.11 917.12 549.73 893.07 549.73 897.6 544.11"/><line class="cls-38" x1="868.89" y1="580.64" x2="941.28" y2="580.64"/><line class="cls-38" x1="871.41" y1="576.39" x2="937.82" y2="576.39"/><line class="cls-38" x1="876.38" y1="572.13" x2="934.36" y2="572.13"/><line class="cls-38" x1="879.56" y1="568.11" x2="930.9" y2="568.11"/><line class="cls-38" x1="882.07" y1="563.62" x2="928.3" y2="563.62"/><line class="cls-38" x1="885.63" y1="559.36" x2="924.75" y2="559.36"/><line class="cls-38" x1="889.19" y1="555.11" x2="921.19" y2="555.11"/><line class="cls-38" x1="892.74" y1="550.85" x2="917.63" y2="550.85"/><line class="cls-38" x1="899.85" y1="542.34" x2="910.52" y2="542.34"/><line class="cls-38" x1="903.41" y1="538.09" x2="906.97" y2="538.09"/><polygon class="cls-36" points="824.39 585.08 875.17 522.64 925.94 585.08 824.39 585.08"/><polyline class="cls-37" points="925.94 585.08 875.17 522.64 824.39 585.08"/><line class="cls-38" x1="826.99" y1="582.32" x2="826.99" y2="586.46"/><line class="cls-38" x1="831.59" y1="576.61" x2="831.59" y2="586.46"/><line class="cls-38" x1="836.2" y1="570.94" x2="836.2" y2="586.46"/><line class="cls-38" x1="840.8" y1="565.2" x2="840.8" y2="586.46"/><line class="cls-38" x1="845.4" y1="558.88" x2="845.4" y2="586.46"/><line class="cls-38" x1="850" y1="553.86" x2="850" y2="586.46"/><line class="cls-38" x1="854.6" y1="547.13" x2="854.6" y2="586.46"/><line class="cls-38" x1="859.2" y1="542.39" x2="859.2" y2="586.46"/><line class="cls-38" x1="863.8" y1="536.59" x2="863.8" y2="586.46"/><line class="cls-38" x1="868.4" y1="530.96" x2="868.4" y2="586.46"/><line class="cls-38" x1="873" y1="525.53" x2="873" y2="586.46"/><line class="cls-38" x1="877.6" y1="525.52" x2="877.6" y2="586.46"/><line class="cls-38" x1="882.2" y1="531.29" x2="882.2" y2="586.46"/><line class="cls-38" x1="886.8" y1="536.59" x2="886.8" y2="586.46"/><line class="cls-38" x1="891.4" y1="542.39" x2="891.4" y2="586.46"/><line class="cls-38" x1="896.01" y1="547.13" x2="896.01" y2="586.46"/><line class="cls-38" x1="900.61" y1="553.86" x2="900.61" y2="586.46"/><line class="cls-38" x1="905.21" y1="558.88" x2="905.21" y2="586.46"/><line class="cls-38" x1="909.81" y1="565.2" x2="909.81" y2="586.46"/><line class="cls-38" x1="914.41" y1="570.94" x2="914.41" y2="586.46"/><line class="cls-38" x1="919.01" y1="576.61" x2="919.01" y2="586.46"/><polygon class="cls-39" points="865.48 532.96 884.89 532.96 890.74 540.23 859.63 540.23 865.48 532.96"/><line class="cls-38" x1="828.34" y1="580.23" x2="922" y2="580.23"/><line class="cls-38" x1="831.59" y1="574.72" x2="917.52" y2="574.72"/><line class="cls-38" x1="838.03" y1="569.21" x2="913.04" y2="569.21"/><line class="cls-38" x1="842.14" y1="564.02" x2="908.56" y2="564.02"/><line class="cls-38" x1="845.4" y1="558.2" x2="905.21" y2="558.2"/><line class="cls-38" x1="850" y1="552.7" x2="900.61" y2="552.7"/><line class="cls-38" x1="854.6" y1="547.19" x2="896.01" y2="547.19"/><line class="cls-38" x1="859.2" y1="541.68" x2="891.4" y2="541.68"/><line class="cls-38" x1="868.4" y1="530.67" x2="882.2" y2="530.67"/><line class="cls-38" x1="873" y1="525.17" x2="877.6" y2="525.17"/><polygon class="cls-36" points="805.59 584.64 844.84 536.39 884.08 584.64 805.59 584.64"/><polyline class="cls-37" points="884.08 584.64 844.84 536.39 805.59 584.64"/><line class="cls-38" x1="807.6" y1="582.51" x2="807.6" y2="585.71"/><line class="cls-38" x1="811.16" y1="578.1" x2="811.16" y2="585.71"/><line class="cls-38" x1="814.71" y1="573.72" x2="814.71" y2="585.71"/><line class="cls-38" x1="818.27" y1="569.29" x2="818.27" y2="585.71"/><line class="cls-38" x1="821.83" y1="564.39" x2="821.83" y2="585.71"/><line class="cls-38" x1="825.38" y1="560.52" x2="825.38" y2="585.71"/><line class="cls-38" x1="828.94" y1="555.32" x2="828.94" y2="585.71"/><line class="cls-38" x1="832.49" y1="551.65" x2="832.49" y2="585.71"/><line class="cls-38" x1="836.05" y1="547.17" x2="836.05" y2="585.71"/><line class="cls-38" x1="839.61" y1="542.82" x2="839.61" y2="585.71"/><line class="cls-38" x1="843.16" y1="538.62" x2="843.16" y2="585.71"/><line class="cls-38" x1="846.72" y1="538.61" x2="846.72" y2="585.71"/><line class="cls-38" x1="850.28" y1="543.07" x2="850.28" y2="585.71"/><line class="cls-38" x1="853.83" y1="547.17" x2="853.83" y2="585.71"/><line class="cls-38" x1="857.39" y1="551.65" x2="857.39" y2="585.71"/><line class="cls-38" x1="860.94" y1="555.32" x2="860.94" y2="585.71"/><line class="cls-38" x1="864.5" y1="560.52" x2="864.5" y2="585.71"/><line class="cls-38" x1="868.06" y1="564.39" x2="868.06" y2="585.71"/><line class="cls-38" x1="871.61" y1="569.29" x2="871.61" y2="585.71"/><line class="cls-38" x1="875.17" y1="573.72" x2="875.17" y2="585.71"/><line class="cls-38" x1="878.72" y1="578.1" x2="878.72" y2="585.71"/><polygon class="cls-39" points="837.35 544.36 852.35 544.36 856.88 549.98 832.83 549.98 837.35 544.36"/><line class="cls-38" x1="808.64" y1="580.9" x2="881.03" y2="580.9"/><line class="cls-38" x1="811.16" y1="576.64" x2="877.57" y2="576.64"/><line class="cls-38" x1="816.13" y1="572.38" x2="874.11" y2="572.38"/><line class="cls-38" x1="819.31" y1="568.37" x2="870.65" y2="568.37"/><line class="cls-38" x1="821.83" y1="563.87" x2="868.06" y2="563.87"/><line class="cls-38" x1="825.38" y1="559.62" x2="864.5" y2="559.62"/><line class="cls-38" x1="828.94" y1="555.36" x2="860.94" y2="555.36"/><line class="cls-38" x1="832.49" y1="551.11" x2="857.39" y2="551.11"/><line class="cls-38" x1="839.61" y1="542.59" x2="850.28" y2="542.59"/><line class="cls-38" x1="843.16" y1="538.34" x2="846.72" y2="538.34"/><polygon class="cls-36" points="755.09 584.46 805.87 522.02 856.64 584.46 755.09 584.46"/><polyline class="cls-37" points="856.64 584.46 805.87 522.02 755.09 584.46"/><line class="cls-38" x1="757.69" y1="581.7" x2="757.69" y2="585.84"/><line class="cls-38" x1="762.29" y1="576" x2="762.29" y2="585.84"/><line class="cls-38" x1="766.89" y1="570.32" x2="766.89" y2="585.84"/><line class="cls-38" x1="771.49" y1="564.59" x2="771.49" y2="585.84"/><line class="cls-38" x1="776.09" y1="558.26" x2="776.09" y2="585.84"/><line class="cls-38" x1="780.69" y1="553.24" x2="780.69" y2="585.84"/><line class="cls-38" x1="785.29" y1="546.51" x2="785.29" y2="585.84"/><line class="cls-38" x1="789.9" y1="541.77" x2="789.9" y2="585.84"/><line class="cls-38" x1="794.5" y1="535.98" x2="794.5" y2="585.84"/><line class="cls-38" x1="799.1" y1="530.35" x2="799.1" y2="585.84"/><line class="cls-38" x1="803.7" y1="524.92" x2="803.7" y2="585.84"/><line class="cls-38" x1="808.3" y1="524.9" x2="808.3" y2="585.84"/><line class="cls-38" x1="812.9" y1="530.67" x2="812.9" y2="585.84"/><line class="cls-38" x1="817.5" y1="535.98" x2="817.5" y2="585.84"/><line class="cls-38" x1="822.1" y1="541.77" x2="822.1" y2="585.84"/><line class="cls-38" x1="826.7" y1="546.51" x2="826.7" y2="585.84"/><line class="cls-38" x1="831.3" y1="553.24" x2="831.3" y2="585.84"/><line class="cls-38" x1="835.9" y1="558.26" x2="835.9" y2="585.84"/><line class="cls-38" x1="840.5" y1="564.59" x2="840.5" y2="585.84"/><line class="cls-38" x1="845.11" y1="570.32" x2="845.11" y2="585.84"/><line class="cls-38" x1="849.71" y1="576" x2="849.71" y2="585.84"/><polygon class="cls-39" points="796.17 532.34 815.59 532.34 821.44 539.61 790.32 539.61 796.17 532.34"/><line class="cls-38" x1="759.04" y1="579.61" x2="852.69" y2="579.61"/><line class="cls-38" x1="762.29" y1="574.1" x2="848.22" y2="574.1"/><line class="cls-38" x1="768.72" y1="568.6" x2="843.74" y2="568.6"/><line class="cls-38" x1="772.84" y1="563.4" x2="839.26" y2="563.4"/><line class="cls-38" x1="776.09" y1="557.58" x2="835.9" y2="557.58"/><line class="cls-38" x1="780.69" y1="552.08" x2="831.3" y2="552.08"/><line class="cls-38" x1="785.29" y1="546.57" x2="826.7" y2="546.57"/><line class="cls-38" x1="789.9" y1="541.07" x2="822.1" y2="541.07"/><line class="cls-38" x1="799.1" y1="530.05" x2="812.9" y2="530.05"/><line class="cls-38" x1="803.7" y1="524.55" x2="808.3" y2="524.55"/><rect class="cls-40" x="276.17" y="268.57" width="107.53" height="315.74"/><rect class="cls-41" x="279.74" y="572.92" width="7.38" height="7.38"/><rect class="cls-41" x="291.36" y="572.92" width="7.38" height="7.38"/><rect class="cls-41" x="302.97" y="572.92" width="7.38" height="7.38"/><rect class="cls-41" x="314.58" y="572.92" width="7.38" height="7.38"/><rect class="cls-41" x="326.2" y="572.92" width="7.38" height="7.38"/><rect class="cls-41" x="337.81" y="572.92" width="7.38" height="7.38"/><rect class="cls-41" x="349.43" y="572.92" width="7.38" height="7.38"/><rect class="cls-41" x="361.04" y="572.92" width="7.38" height="7.38"/><rect class="cls-41" x="372.65" y="572.92" width="7.38" height="7.38"/><rect class="cls-41" x="279.74" y="561.36" width="7.38" height="7.38"/><rect class="cls-41" x="291.36" y="561.36" width="7.38" height="7.38"/><rect class="cls-41" x="302.97" y="561.36" width="7.38" height="7.38"/><rect class="cls-41" x="314.58" y="561.36" width="7.38" height="7.38"/><rect class="cls-41" x="326.2" y="561.36" width="7.38" height="7.38"/><rect class="cls-41" x="337.81" y="561.36" width="7.38" height="7.38"/><rect class="cls-41" x="349.43" y="561.36" width="7.38" height="7.38"/><rect class="cls-41" x="361.04" y="561.36" width="7.38" height="7.38"/><rect class="cls-41" x="372.65" y="561.36" width="7.38" height="7.38"/><rect class="cls-41" x="279.74" y="549.8" width="7.38" height="7.38"/><rect class="cls-41" x="291.36" y="549.8" width="7.38" height="7.38"/><rect class="cls-41" x="302.97" y="549.8" width="7.38" height="7.38"/><rect class="cls-41" x="314.58" y="549.8" width="7.38" height="7.38"/><rect class="cls-41" x="326.2" y="549.8" width="7.38" height="7.38"/><rect class="cls-41" x="337.81" y="549.8" width="7.38" height="7.38"/><rect class="cls-41" x="349.43" y="549.8" width="7.38" height="7.38"/><rect class="cls-41" x="361.04" y="549.8" width="7.38" height="7.38"/><rect class="cls-41" x="372.65" y="549.8" width="7.38" height="7.38"/><rect class="cls-41" x="279.74" y="538.24" width="7.38" height="7.38"/><rect class="cls-41" x="291.36" y="538.24" width="7.38" height="7.38"/><rect class="cls-41" x="302.97" y="538.24" width="7.38" height="7.38"/><rect class="cls-41" x="314.58" y="538.24" width="7.38" height="7.38"/><rect class="cls-41" x="326.2" y="538.24" width="7.38" height="7.38"/><rect class="cls-41" x="337.81" y="538.24" width="7.38" height="7.38"/><rect class="cls-41" x="349.43" y="538.24" width="7.38" height="7.38"/><rect class="cls-41" x="361.04" y="538.24" width="7.38" height="7.38"/><rect class="cls-41" x="372.65" y="538.24" width="7.38" height="7.38"/><rect class="cls-41" x="279.74" y="526.68" width="7.38" height="7.38"/><rect class="cls-41" x="291.36" y="526.68" width="7.38" height="7.38"/><rect class="cls-41" x="302.97" y="526.68" width="7.38" height="7.38"/><rect class="cls-41" x="314.58" y="526.68" width="7.38" height="7.38"/><rect class="cls-41" x="326.2" y="526.68" width="7.38" height="7.38"/><rect class="cls-41" x="337.81" y="526.68" width="7.38" height="7.38"/><rect class="cls-41" x="349.43" y="526.68" width="7.38" height="7.38"/><rect class="cls-41" x="361.04" y="526.68" width="7.38" height="7.38"/><rect class="cls-41" x="372.65" y="526.68" width="7.38" height="7.38"/><rect class="cls-41" x="279.74" y="515.12" width="7.38" height="7.38"/><rect class="cls-41" x="291.36" y="515.12" width="7.38" height="7.38"/><rect class="cls-41" x="302.97" y="515.12" width="7.38" height="7.38"/><rect class="cls-41" x="314.58" y="515.12" width="7.38" height="7.38"/><rect class="cls-41" x="326.2" y="515.12" width="7.38" height="7.38"/><rect class="cls-41" x="337.81" y="515.12" width="7.38" height="7.38"/><rect class="cls-41" x="349.43" y="515.12" width="7.38" height="7.38"/><rect class="cls-41" x="361.04" y="515.12" width="7.38" height="7.38"/><rect class="cls-41" x="372.65" y="515.12" width="7.38" height="7.38"/><rect class="cls-41" x="279.74" y="503.56" width="7.38" height="7.38"/><rect class="cls-41" x="291.36" y="503.56" width="7.38" height="7.38"/><rect class="cls-41" x="302.97" y="503.56" width="7.38" height="7.38"/><rect class="cls-41" x="314.58" y="503.56" width="7.38" height="7.38"/><rect class="cls-41" x="326.2" y="503.56" width="7.38" height="7.38"/><rect class="cls-41" x="337.81" y="503.56" width="7.38" height="7.38"/><rect class="cls-41" x="349.43" y="503.56" width="7.38" height="7.38"/><rect class="cls-41" x="361.04" y="503.56" width="7.38" height="7.38"/><rect class="cls-41" x="372.65" y="503.56" width="7.38" height="7.38"/><rect class="cls-41" x="279.74" y="492" width="7.38" height="7.38"/><rect class="cls-41" x="291.36" y="492" width="7.38" height="7.38"/><rect class="cls-41" x="302.97" y="492" width="7.38" height="7.38"/><rect class="cls-41" x="314.58" y="492" width="7.38" height="7.38"/><rect class="cls-41" x="326.2" y="492" width="7.38" height="7.38"/><rect class="cls-41" x="337.81" y="492" width="7.38" height="7.38"/><rect class="cls-41" x="349.43" y="492" width="7.38" height="7.38"/><rect class="cls-41" x="361.04" y="492" width="7.38" height="7.38"/><rect class="cls-41" x="372.65" y="492" width="7.38" height="7.38"/><rect class="cls-41" x="279.74" y="480.45" width="7.38" height="7.38"/><rect class="cls-41" x="291.36" y="480.45" width="7.38" height="7.38"/><rect class="cls-41" x="302.97" y="480.45" width="7.38" height="7.38"/><rect class="cls-41" x="314.58" y="480.45" width="7.38" height="7.38"/><rect class="cls-41" x="326.2" y="480.45" width="7.38" height="7.38"/><rect class="cls-41" x="337.81" y="480.45" width="7.38" height="7.38"/><rect class="cls-41" x="349.43" y="480.45" width="7.38" height="7.38"/><rect class="cls-41" x="361.04" y="480.45" width="7.38" height="7.38"/><rect class="cls-41" x="372.65" y="480.45" width="7.38" height="7.38"/><rect class="cls-41" x="279.74" y="468.89" width="7.38" height="7.38"/><rect class="cls-41" x="291.36" y="468.89" width="7.38" height="7.38"/><rect class="cls-41" x="302.97" y="468.89" width="7.38" height="7.38"/><rect class="cls-41" x="314.58" y="468.89" width="7.38" height="7.38"/><rect class="cls-41" x="326.2" y="468.89" width="7.38" height="7.38"/><rect class="cls-41" x="337.81" y="468.89" width="7.38" height="7.38"/><rect class="cls-41" x="349.43" y="468.89" width="7.38" height="7.38"/><rect class="cls-41" x="361.04" y="468.89" width="7.38" height="7.38"/><rect class="cls-41" x="372.65" y="468.89" width="7.38" height="7.38"/><rect class="cls-41" x="279.74" y="457.33" width="7.38" height="7.38"/><rect class="cls-41" x="291.36" y="457.33" width="7.38" height="7.38"/><rect class="cls-41" x="302.97" y="457.33" width="7.38" height="7.38"/><rect class="cls-41" x="314.58" y="457.33" width="7.38" height="7.38"/><rect class="cls-41" x="326.2" y="457.33" width="7.38" height="7.38"/><rect class="cls-41" x="337.81" y="457.33" width="7.38" height="7.38"/><rect class="cls-41" x="349.43" y="457.33" width="7.38" height="7.38"/><rect class="cls-41" x="361.04" y="457.33" width="7.38" height="7.38"/><rect class="cls-41" x="372.65" y="457.33" width="7.38" height="7.38"/><rect class="cls-41" x="279.74" y="445.77" width="7.38" height="7.38"/><rect class="cls-41" x="291.36" y="445.77" width="7.38" height="7.38"/><rect class="cls-41" x="302.97" y="445.77" width="7.38" height="7.38"/><rect class="cls-41" x="314.58" y="445.77" width="7.38" height="7.38"/><rect class="cls-41" x="326.2" y="445.77" width="7.38" height="7.38"/><rect class="cls-41" x="337.81" y="445.77" width="7.38" height="7.38"/><rect class="cls-41" x="349.43" y="445.77" width="7.38" height="7.38"/><rect class="cls-41" x="361.04" y="445.77" width="7.38" height="7.38"/><rect class="cls-41" x="372.65" y="445.77" width="7.38" height="7.38"/><rect class="cls-41" x="279.74" y="434.21" width="7.38" height="7.38"/><rect class="cls-41" x="291.36" y="434.21" width="7.38" height="7.38"/><rect class="cls-41" x="302.97" y="434.21" width="7.38" height="7.38"/><rect class="cls-41" x="314.58" y="434.21" width="7.38" height="7.38"/><rect class="cls-41" x="326.2" y="434.21" width="7.38" height="7.38"/><rect class="cls-41" x="337.81" y="434.21" width="7.38" height="7.38"/><rect class="cls-41" x="349.43" y="434.21" width="7.38" height="7.38"/><rect class="cls-41" x="361.04" y="434.21" width="7.38" height="7.38"/><rect class="cls-41" x="372.65" y="434.21" width="7.38" height="7.38"/><rect class="cls-41" x="279.74" y="422.65" width="7.38" height="7.38"/><rect class="cls-41" x="291.36" y="422.65" width="7.38" height="7.38"/><rect class="cls-41" x="302.97" y="422.65" width="7.38" height="7.38"/><rect class="cls-41" x="314.58" y="422.65" width="7.38" height="7.38"/><rect class="cls-41" x="326.2" y="422.65" width="7.38" height="7.38"/><rect class="cls-41" x="337.81" y="422.65" width="7.38" height="7.38"/><rect class="cls-41" x="349.43" y="422.65" width="7.38" height="7.38"/><rect class="cls-41" x="361.04" y="422.65" width="7.38" height="7.38"/><rect class="cls-41" x="372.65" y="422.65" width="7.38" height="7.38"/><rect class="cls-41" x="279.74" y="411.09" width="7.38" height="7.38"/><rect class="cls-41" x="291.36" y="411.09" width="7.38" height="7.38"/><rect class="cls-41" x="302.97" y="411.09" width="7.38" height="7.38"/><rect class="cls-41" x="314.58" y="411.09" width="7.38" height="7.38"/><rect class="cls-41" x="326.2" y="411.09" width="7.38" height="7.38"/><rect class="cls-41" x="337.81" y="411.09" width="7.38" height="7.38"/><rect class="cls-41" x="349.43" y="411.09" width="7.38" height="7.38"/><rect class="cls-41" x="361.04" y="411.09" width="7.38" height="7.38"/><rect class="cls-41" x="372.65" y="411.09" width="7.38" height="7.38"/><rect class="cls-41" x="279.74" y="399.53" width="7.38" height="7.38"/><rect class="cls-41" x="291.36" y="399.53" width="7.38" height="7.38"/><rect class="cls-41" x="302.97" y="399.53" width="7.38" height="7.38"/><rect class="cls-41" x="314.58" y="399.53" width="7.38" height="7.38"/><rect class="cls-41" x="326.2" y="399.53" width="7.38" height="7.38"/><rect class="cls-41" x="337.81" y="399.53" width="7.38" height="7.38"/><rect class="cls-41" x="349.43" y="399.53" width="7.38" height="7.38"/><rect class="cls-41" x="361.04" y="399.53" width="7.38" height="7.38"/><rect class="cls-41" x="372.65" y="399.53" width="7.38" height="7.38"/><rect class="cls-41" x="279.74" y="387.98" width="7.38" height="7.38"/><rect class="cls-41" x="291.36" y="387.98" width="7.38" height="7.38"/><rect class="cls-41" x="302.97" y="387.98" width="7.38" height="7.38"/><rect class="cls-41" x="314.58" y="387.98" width="7.38" height="7.38"/><rect class="cls-41" x="326.2" y="387.98" width="7.38" height="7.38"/><rect class="cls-41" x="337.81" y="387.98" width="7.38" height="7.38"/><rect class="cls-41" x="349.43" y="387.98" width="7.38" height="7.38"/><rect class="cls-41" x="361.04" y="387.98" width="7.38" height="7.38"/><rect class="cls-41" x="372.65" y="387.98" width="7.38" height="7.38"/><rect class="cls-41" x="279.74" y="376.42" width="7.38" height="7.38"/><rect class="cls-41" x="291.36" y="376.42" width="7.38" height="7.38"/><rect class="cls-41" x="302.97" y="376.42" width="7.38" height="7.38"/><rect class="cls-41" x="314.58" y="376.42" width="7.38" height="7.38"/><rect class="cls-41" x="326.2" y="376.42" width="7.38" height="7.38"/><rect class="cls-41" x="337.81" y="376.42" width="7.38" height="7.38"/><rect class="cls-41" x="349.43" y="376.42" width="7.38" height="7.38"/><rect class="cls-41" x="361.04" y="376.42" width="7.38" height="7.38"/><rect class="cls-41" x="372.65" y="376.42" width="7.38" height="7.38"/><rect class="cls-41" x="279.74" y="364.86" width="7.38" height="7.38"/><rect class="cls-41" x="291.36" y="364.86" width="7.38" height="7.38"/><rect class="cls-41" x="302.97" y="364.86" width="7.38" height="7.38"/><rect class="cls-41" x="314.58" y="364.86" width="7.38" height="7.38"/><rect class="cls-41" x="326.2" y="364.86" width="7.38" height="7.38"/><rect class="cls-41" x="337.81" y="364.86" width="7.38" height="7.38"/><rect class="cls-41" x="349.43" y="364.86" width="7.38" height="7.38"/><rect class="cls-41" x="361.04" y="364.86" width="7.38" height="7.38"/><rect class="cls-41" x="372.65" y="364.86" width="7.38" height="7.38"/><rect class="cls-41" x="279.74" y="353.3" width="7.38" height="7.38"/><rect class="cls-41" x="291.36" y="353.3" width="7.38" height="7.38"/><rect class="cls-41" x="302.97" y="353.3" width="7.38" height="7.38"/><rect class="cls-41" x="314.58" y="353.3" width="7.38" height="7.38"/><rect class="cls-41" x="326.2" y="353.3" width="7.38" height="7.38"/><rect class="cls-41" x="337.81" y="353.3" width="7.38" height="7.38"/><rect class="cls-41" x="349.43" y="353.3" width="7.38" height="7.38"/><rect class="cls-41" x="361.04" y="353.3" width="7.38" height="7.38"/><rect class="cls-41" x="372.65" y="353.3" width="7.38" height="7.38"/><rect class="cls-41" x="279.74" y="341.74" width="7.38" height="7.38"/><rect class="cls-41" x="291.36" y="341.74" width="7.38" height="7.38"/><rect class="cls-41" x="302.97" y="341.74" width="7.38" height="7.38"/><rect class="cls-41" x="314.58" y="341.74" width="7.38" height="7.38"/><rect class="cls-41" x="326.2" y="341.74" width="7.38" height="7.38"/><rect class="cls-41" x="337.81" y="341.74" width="7.38" height="7.38"/><rect class="cls-41" x="349.43" y="341.74" width="7.38" height="7.38"/><rect class="cls-41" x="361.04" y="341.74" width="7.38" height="7.38"/><rect class="cls-41" x="372.65" y="341.74" width="7.38" height="7.38"/><rect class="cls-41" x="279.74" y="330.18" width="7.38" height="7.38"/><rect class="cls-41" x="291.36" y="330.18" width="7.38" height="7.38"/><rect class="cls-41" x="302.97" y="330.18" width="7.38" height="7.38"/><rect class="cls-41" x="314.58" y="330.18" width="7.38" height="7.38"/><rect class="cls-41" x="326.2" y="330.18" width="7.38" height="7.38"/><rect class="cls-41" x="337.81" y="330.18" width="7.38" height="7.38"/><rect class="cls-41" x="349.43" y="330.18" width="7.38" height="7.38"/><rect class="cls-41" x="361.04" y="330.18" width="7.38" height="7.38"/><rect class="cls-41" x="372.65" y="330.18" width="7.38" height="7.38"/><rect class="cls-41" x="279.74" y="318.62" width="7.38" height="7.38"/><rect class="cls-41" x="291.36" y="318.62" width="7.38" height="7.38"/><rect class="cls-41" x="302.97" y="318.62" width="7.38" height="7.38"/><rect class="cls-41" x="314.58" y="318.62" width="7.38" height="7.38"/><rect class="cls-41" x="326.2" y="318.62" width="7.38" height="7.38"/><rect class="cls-41" x="337.81" y="318.62" width="7.38" height="7.38"/><rect class="cls-41" x="349.43" y="318.62" width="7.38" height="7.38"/><rect class="cls-41" x="361.04" y="318.62" width="7.38" height="7.38"/><rect class="cls-41" x="372.65" y="318.62" width="7.38" height="7.38"/><rect class="cls-41" x="279.74" y="307.06" width="7.38" height="7.38"/><rect class="cls-41" x="291.36" y="307.06" width="7.38" height="7.38"/><rect class="cls-41" x="302.97" y="307.06" width="7.38" height="7.38"/><rect class="cls-41" x="314.58" y="307.06" width="7.38" height="7.38"/><rect class="cls-41" x="326.2" y="307.06" width="7.38" height="7.38"/><rect class="cls-41" x="337.81" y="307.06" width="7.38" height="7.38"/><rect class="cls-41" x="349.43" y="307.06" width="7.38" height="7.38"/><rect class="cls-41" x="361.04" y="307.06" width="7.38" height="7.38"/><rect class="cls-41" x="372.65" y="307.06" width="7.38" height="7.38"/><rect class="cls-41" x="279.74" y="295.51" width="7.38" height="7.38"/><rect class="cls-41" x="291.36" y="295.51" width="7.38" height="7.38"/><rect class="cls-41" x="302.97" y="295.51" width="7.38" height="7.38"/><rect class="cls-41" x="314.58" y="295.51" width="7.38" height="7.38"/><rect class="cls-41" x="326.2" y="295.51" width="7.38" height="7.38"/><rect class="cls-41" x="337.81" y="295.51" width="7.38" height="7.38"/><rect class="cls-41" x="349.43" y="295.51" width="7.38" height="7.38"/><rect class="cls-41" x="361.04" y="295.51" width="7.38" height="7.38"/><rect class="cls-41" x="372.65" y="295.51" width="7.38" height="7.38"/><rect class="cls-41" x="279.74" y="283.95" width="7.38" height="7.38"/><rect class="cls-41" x="291.36" y="283.95" width="7.38" height="7.38"/><rect class="cls-41" x="302.97" y="283.95" width="7.38" height="7.38"/><rect class="cls-41" x="314.58" y="283.95" width="7.38" height="7.38"/><rect class="cls-41" x="326.2" y="283.95" width="7.38" height="7.38"/><rect class="cls-41" x="337.81" y="283.95" width="7.38" height="7.38"/><rect class="cls-41" x="349.43" y="283.95" width="7.38" height="7.38"/><rect class="cls-41" x="361.04" y="283.95" width="7.38" height="7.38"/><rect class="cls-41" x="372.65" y="283.95" width="7.38" height="7.38"/><rect class="cls-41" x="279.74" y="272.39" width="7.38" height="7.38"/><rect class="cls-41" x="291.36" y="272.39" width="7.38" height="7.38"/><rect class="cls-41" x="302.97" y="272.39" width="7.38" height="7.38"/><rect class="cls-41" x="314.58" y="272.39" width="7.38" height="7.38"/><rect class="cls-41" x="326.2" y="272.39" width="7.38" height="7.38"/><rect class="cls-41" x="337.81" y="272.39" width="7.38" height="7.38"/><rect class="cls-41" x="349.43" y="272.39" width="7.38" height="7.38"/><rect class="cls-41" x="361.04" y="272.39" width="7.38" height="7.38"/><rect class="cls-41" x="372.65" y="272.39" width="7.38" height="7.38"/><rect class="cls-40" x="298.74" y="258.31" width="62.3" height="10.26"/><rect class="cls-42" x="35.56" y="537.93" width="230.59" height="35.11"/><rect class="cls-43" x="32.81" y="532.49" width="235.95" height="5.44"/><rect class="cls-44" x="32.81" y="528.53" width="235.95" height="3.96"/><rect class="cls-45" x="121.19" y="524.17" width="59.22" height="4.37"/><polygon class="cls-46" points="123.28 537.93 151.77 524.93 180.41 537.93 123.28 537.93"/><rect class="cls-43" x="126.33" y="514.81" width="49.55" height="9.36"/><rect class="cls-46" x="130" y="494.44" width="40.74" height="20.37"/><path class="cls-44" d="M130,494.44s2.39-20.74,20.37-20.74,20.37,20.74,20.37,20.74"/><polyline class="cls-47" points="144.9 474.46 144.9 458.46 155.85 458.46 155.85 474.46"/><rect class="cls-48" x="129.5" y="544.71" width="44.21" height="28.32"/><path class="cls-44" d="M144.9,458.46s-.18-8.44,5.47-8.44,5.47,8.44,5.47,8.44"/><rect class="cls-44" x="125.33" y="537.93" width="52.54" height="6.78"/><rect class="cls-44" x="125.33" y="544.71" width="4.17" height="28.32"/><rect class="cls-44" x="135.01" y="544.71" width="4.17" height="28.32"/><rect class="cls-44" x="144.68" y="544.71" width="4.17" height="28.32"/><rect class="cls-44" x="154.36" y="544.71" width="4.17" height="28.32"/><rect class="cls-44" x="164.04" y="544.71" width="4.17" height="28.32"/><rect class="cls-44" x="173.71" y="544.71" width="4.17" height="28.32"/><rect class="cls-49" x="35.56" y="573.04" width="230.59" height="10.82"/><rect class="cls-50" x="125.33" y="573.04" width="52.54" height="10.82"/><rect x="46.27" y="543.05" width="4.08" height="6.19"/><rect x="56.65" y="543.05" width="4.08" height="6.19"/><rect x="67.02" y="543.05" width="4.08" height="6.19"/><rect x="80.61" y="543.05" width="3.41" height="5.19"/><rect x="89.29" y="543.05" width="3.41" height="5.19"/><rect x="97.96" y="543.05" width="3.41" height="5.19"/><rect x="80.61" y="552.89" width="3.41" height="5.19"/><rect x="89.29" y="552.89" width="3.41" height="5.19"/><rect x="97.96" y="552.89" width="3.41" height="5.19"/><rect x="97.96" y="552.89" width="3.41" height="5.19"/><rect x="106.63" y="552.89" width="3.41" height="5.19"/><rect x="115.3" y="552.89" width="3.41" height="5.19"/><rect x="97.96" y="543.05" width="3.41" height="5.19"/><rect x="106.63" y="543.05" width="3.41" height="5.19"/><rect x="115.3" y="543.05" width="3.41" height="5.19"/><rect x="80.61" y="552.89" width="3.41" height="5.19"/><rect x="89.29" y="552.89" width="3.41" height="5.19"/><rect x="97.96" y="552.89" width="3.41" height="5.19"/><rect x="80.61" y="562.72" width="3.41" height="5.19"/><rect x="89.29" y="562.72" width="3.41" height="5.19"/><rect x="97.96" y="562.72" width="3.41" height="5.19"/><rect x="97.96" y="562.72" width="3.41" height="5.19"/><rect x="106.63" y="562.72" width="3.41" height="5.19"/><rect x="115.3" y="562.72" width="3.41" height="5.19"/><rect x="97.96" y="552.89" width="3.41" height="5.19"/><rect x="106.63" y="552.89" width="3.41" height="5.19"/><rect x="115.3" y="552.89" width="3.41" height="5.19"/><rect x="182.77" y="543.05" width="3.41" height="5.19"/><rect x="191.45" y="543.05" width="3.41" height="5.19"/><rect x="200.12" y="543.05" width="3.41" height="5.19"/><rect x="182.77" y="552.89" width="3.41" height="5.19"/><rect x="191.45" y="552.89" width="3.41" height="5.19"/><rect x="200.12" y="552.89" width="3.41" height="5.19"/><rect x="200.12" y="552.89" width="3.41" height="5.19"/><rect x="208.79" y="552.89" width="3.41" height="5.19"/><rect x="217.46" y="552.89" width="3.41" height="5.19"/><rect x="200.12" y="543.05" width="3.41" height="5.19"/><rect x="208.79" y="543.05" width="3.41" height="5.19"/><rect x="217.46" y="543.05" width="3.41" height="5.19"/><rect x="182.77" y="553.13" width="3.41" height="5.19"/><rect x="191.45" y="553.13" width="3.41" height="5.19"/><rect x="200.12" y="553.13" width="3.41" height="5.19"/><rect x="182.77" y="562.96" width="3.41" height="5.19"/><rect x="191.45" y="562.96" width="3.41" height="5.19"/><rect x="200.12" y="562.96" width="3.41" height="5.19"/><rect x="200.12" y="562.96" width="3.41" height="5.19"/><rect x="208.79" y="562.96" width="3.41" height="5.19"/><rect x="217.46" y="562.96" width="3.41" height="5.19"/><rect x="200.12" y="553.13" width="3.41" height="5.19"/><rect x="208.79" y="553.13" width="3.41" height="5.19"/><rect x="217.46" y="553.13" width="3.41" height="5.19"/><rect x="46.27" y="553.3" width="4.08" height="6.19"/><rect x="56.65" y="553.3" width="4.08" height="6.19"/><rect x="67.02" y="553.3" width="4.08" height="6.19"/><rect x="231.11" y="541.8" width="4.08" height="6.19"/><rect x="241.49" y="541.8" width="4.08" height="6.19"/><rect x="251.86" y="541.8" width="4.08" height="6.19"/><rect x="231.11" y="552.05" width="4.08" height="6.19"/><rect x="241.49" y="552.05" width="4.08" height="6.19"/><rect x="251.86" y="552.05" width="4.08" height="6.19"/><path d="M135,511.06v-8.36s-.07-2.3,1.18-2.3c1.4,0,1.4,2.13,1.4,2.13v8.54Z"/><path d="M147.78,511.06v-8.36a2.12,2.12,0,0,1,2.15-2.3c2.57,0,2.57,2.13,2.57,2.13v8.54Z"/><path d="M162.49,511.06v-8.36s-.07-2.3,1.18-2.3c1.4,0,1.4,2.13,1.4,2.13v8.54Z"/><rect x="146.51" y="460.63" width="1.47" height="9.84" rx="0.73" ry="0.73"/><rect x="149.64" y="460.63" width="1.47" height="9.84" rx="0.73" ry="0.73"/><rect x="152.76" y="460.63" width="1.47" height="9.84" rx="0.73" ry="0.73"/><rect class="cls-44" x="149.78" y="446.67" width="1.19" height="7.48"/><polygon class="cls-44" points="123.28 537.93 124.25 535.21 151.22 523.02 180.41 535.21 180.41 537.93 151.77 524.93 123.28 537.93"/><path class="cls-51" d="M31.39,558.32s-18.56,19.47,0,19.47"/><path class="cls-52" d="M31.39,558.32s18.56,19.47,0,19.47"/><line class="cls-53" x1="31.39" y1="584" x2="31.39" y2="577.79"/><path class="cls-52" d="M48.31,555.48s-13,8.08,0,17"/><path class="cls-51" d="M48.31,555.48s13,8.08,0,17"/><line class="cls-54" x1="48.31" y1="584.75" x2="48.31" y2="572.53"/><circle class="cls-55" cx="65.55" cy="568.36" r="8.57"/><path class="cls-56" d="M65.55,559.79a8.57,8.57,0,0,1,0,17.13"/><line class="cls-53" x1="65.55" y1="586.28" x2="65.55" y2="576.92"/><path class="cls-57" d="M511.56,492.93s-16.62-8-22.26-13.42-13.57-6.63-15.35-5.35-5.46,2.83-1.29,20.24S517,514.15,517,514.15l-1.25-19Z"/><polygon class="cls-58" points="519.91 524.86 509.14 495.49 446.19 500.08 444.66 533.56 462.26 541.5 519.91 524.86"/><polygon class="cls-59" points="465.6 501.48 483.3 527.61 519.91 524.86 509.14 495.49 492.76 498.15 470.24 496.87 465.6 501.48"/><polygon class="cls-60" points="541.55 576.37 543.81 582.82 548.74 582.82 548.74 584.27 530.32 584.7 530.32 577.81 540.59 575.23 541.55 576.37"/><path class="cls-61" d="M530.32,577.81s3.29,3.64,5.95,3,3.44-2.7,4.33-5.56-7.18-21.65-7.18-21.65l-8.16,4Z"/><path class="cls-62" d="M444.66,533.56l-2.13,29.89s0,1.84,4.31-.22,30.34-10.54,35.14-10.7l20.79-22.15s7.63,0,16.68,7.26,11.73,20.86,14.85,29.47,6.18,10,10.19,8.86l23.73-47.5s-2.74-1.54-11,1.53-16.59,6.39-26.65.79-15.27-9.65-24.79-9.73a61.94,61.94,0,0,0-29.32,7.16c-10,5.15-16.25,7-22.79,8.3S444.66,533.56,444.66,533.56Z"/><path class="cls-58" d="M415.78,584.07l4.56-27.1,23.09-6.05-.89,12.54s.12,2,6.35-1.07,30.37-9.74,33.1-9.85l20.79-22.15a33.4,33.4,0,0,1,18.78,9s6,4.64,9.72,18.47l-1,26.84Z"/><path class="cls-57" d="M459.33,535s-6.32-4.23-12.48-3.25,1.29,4.41,2.57,4.6S457,536.35,459.33,535Z"/><path class="cls-63" d="M425.44,501.48v46.76l18,2.67,1.16-18.3a2.24,2.24,0,0,1,1.6-1V510.86L443,506.14Z"/><path class="cls-64" d="M425.44,501.48v46.76l-12.62,8.19V520.54Zm-3.52,15.45-4.56,5v7.52l4.69-5Z"/><polygon class="cls-60" points="425.44 548.24 412.82 556.43 420.34 556.97 443.43 550.91 425.44 548.24"/><path class="cls-64" d="M456.68,524.09,469,520.41s-10.61-10.14-6.71-17.48,25.44-8.66,30.89-8,20.13,2.17,16.26,12.54c0,0,6.67-12.58-15.34-14a89.77,89.77,0,0,0-26.42,1.9c-14.69,3.22-20,3-24.45,4.35s-.52,6.26,5.51,14.46S456.68,524.09,456.68,524.09Z"/><path class="cls-64" d="M533.83,532.33s4.11-6.49,1.88-16.76-6.52-14.07-6.52-14.07l-17.64-8.57s5,1.82,4.18,19.68l4.18,12.24Z"/><path class="cls-57" d="M469,520.41s-10.38-9.65-6.71-17.48c3.26-6.93,23.19-8.3,27-8.17s14.42.31,18.76,5a7.27,7.27,0,0,1,1.35,7.71s-20.28-9.05-34.2-8.12S461.54,511.85,469,520.41Z"/><path class="cls-58" d="M541.55,576.36l2.26,6.45h4.92v1.46l6.59-.26V573.58l15.11.94.09,10.56h5.61v-9.93l8.22.39V552.87l-24.46-7.77-9.06,18.13L544.5,576A3.86,3.86,0,0,1,541.55,576.36Z"/><polygon class="cls-60" points="570.53 585.08 568.22 585.67 555.32 584.02 555.32 573.58 570.44 574.52 570.53 585.08"/><polygon class="cls-60" points="576.15 575.14 584.37 575.53 584.37 569.67 595 569.54 594.72 587.82 587.61 587.82 586.66 585.67 583.66 585.67 576.22 585.84 576.15 575.14"/><polygon class="cls-58" points="584.37 569.67 595.69 569.67 595.69 557.52 588.19 555.1 584.32 555.71 584.37 569.67"/><path class="cls-59" d="M502.78,530.38l-4.4,54.32h31.94l1-26.84S526.89,533.62,502.78,530.38Z"/><path class="cls-60" d="M442.53,551.37l-4.89,32.4,8.54-.55,0-19.71s-3.79,1.53-3.7-.06.89-12.54.89-12.54Z"/><g class="cls-65"><polyline class="cls-66" points="477.18 553.48 491.11 583.21 497.77 583.25 498.52 573.72 485.68 548.68 493.51 540.3 500.13 553.18 500.52 548.24 465.78 583.21 470.91 583.18 472.37 583.25 499.83 556.97 499.16 565.61 480.47 583.21 468.14 555.95"/><polyline class="cls-66" points="488.19 583.22 498.52 573.72 501.2 539.52 461.54 580.77 461.17 574.91 461.63 583.22 465.78 583.21"/><polyline class="cls-66" points="466.12 556.57 460.39 563.44 446.19 565.51 446.19 583.25 456.15 583.25 456.7 559.68 450.76 561.77 450.61 583.25 461.63 583.22 461.54 580.77 446.19 581.24 446.19 575.68 461.17 574.91 460.78 569.09 474.41 554.16"/><line class="cls-66" x1="470.91" y1="583.18" x2="460.3" y2="558.46"/><line class="cls-66" x1="460.04" y1="558.7" x2="460.77" y2="569.59"/><line class="cls-66" x1="446.19" y1="563.51" x2="446.19" y2="566.81"/><line class="cls-66" x1="466.41" y1="502.53" x2="481.99" y2="525.77"/><line class="cls-66" x1="472.46" y1="499.63" x2="484.13" y2="524.86"/><line class="cls-66" x1="477.31" y1="499.25" x2="489.3" y2="523.07"/><line class="cls-66" x1="481.99" y1="499.51" x2="494.06" y2="522.01"/><line class="cls-66" x1="499.05" y1="521.4" x2="487.24" y2="500.32"/><line class="cls-66" x1="493.15" y1="501.69" x2="504.52" y2="521.26"/><line class="cls-66" x1="499.6" y1="503.65" x2="510.49" y2="521.74"/><polyline class="cls-66" points="505.05 505.63 515.2 522.7 519.18 522.7"/><polyline class="cls-66" points="496.93 502.79 467.16 503.65 464.02 508"/><polyline class="cls-66" points="505.77 505.91 469.31 506.86 464.61 513.15"/><path class="cls-66" d="M472.46,530l6.6-8.61,38.69-2.88-1.18-3.46-40.11,2.46-2.26-3.36,41-2.22-.7-2.63a.69.69,0,0,0-.7-.51l-41.88,2-5.51,6.66"/><polyline class="cls-66" points="515.73 512.62 509.14 495.81 508.13 497.87"/><polyline class="cls-66" points="510.12 505.63 512.99 505.63 511.93 502.93 510.49 502.93"/><line class="cls-66" x1="510.81" y1="500.08" x2="509.86" y2="500.08"/><line class="cls-66" x1="509.14" y1="495.49" x2="505.33" y2="496.1"/><polyline class="cls-66" points="503.73 530.49 499.6 583.18 497.77 583.25"/><polyline class="cls-66" points="511.93 532.96 510.94 565.58 520.62 566.01 521.78 539.58"/><polyline class="cls-66" points="501.47 559.25 531.22 560.86 530.32 584.7 527.29 584.7 529.46 552.87 530.2 554.91 501.97 552.87 501.5 583.41 502.88 583.58 502.87 567.26"/><line class="cls-66" x1="502.5" y1="546.13" x2="527.56" y2="548.24"/><line class="cls-66" x1="503.02" y1="539.52" x2="523.6" y2="541.5"/><polygon class="cls-66" points="501.77 565.51 528.53 566.43 528.42 568.03 501.75 567.23 501.77 565.51"/><line class="cls-67" x1="531.22" y1="560.86" x2="531.22" y2="557.85"/><line class="cls-67" x1="464.2" y1="506.86" x2="475.53" y2="528.64"/><polyline class="cls-66" points="466.41 532.61 461.62 522.61 457.13 528.64"/><line class="cls-67" x1="458.26" y1="534.46" x2="474.2" y2="514.15"/><line class="cls-67" x1="476.45" y1="517.52" x2="464.02" y2="533.56"/><line class="cls-66" x1="446.19" y1="531.27" x2="446.19" y2="510.86"/><polyline class="cls-66" points="446.19 528.89 456.68 524.09 457.69 534.17"/><line class="cls-66" x1="446.19" y1="524.09" x2="453.66" y2="520.41"/><line class="cls-66" x1="446.19" y1="518.67" x2="450.31" y2="516.22"/><line class="cls-66" x1="457.13" y1="528.64" x2="450.31" y2="531.73"/><line class="cls-66" x1="450.87" y1="531.73" x2="450.87" y2="516.93"/><polyline class="cls-66" points="446.19 583.25 438.99 584 442.54 563.45"/><line class="cls-66" x1="442.53" y1="550.91" x2="437.65" y2="584"/><line class="cls-66" x1="432.91" y1="584" x2="437.65" y2="552.53"/><line class="cls-66" x1="432.91" y1="553.74" x2="428.59" y2="584.07"/><line class="cls-66" x1="429.24" y1="554.68" x2="424.58" y2="584"/><line class="cls-66" x1="420.98" y1="584.07" x2="425.44" y2="555.66"/><line class="cls-66" x1="422.44" y1="556.43" x2="417.79" y2="584.07"/><polyline class="cls-66" points="416.12 582.01 439.33 582.01 441.71 582.01"/><polyline class="cls-66" points="416.92 577.25 438.81 576.16 440.34 576.16 441.32 570.5 417.67 572.79 418.33 568.9 442.24 565.16 446.19 565.51"/><line class="cls-66" x1="418.96" y1="565.16" x2="442.53" y2="560.12"/><line class="cls-66" x1="419.81" y1="560.12" x2="443.2" y2="554.16"/><line class="cls-66" x1="440.34" y1="576.16" x2="446.19" y2="576.16"/><polyline class="cls-66" points="441.32 570.5 446.19 570.5 460.78 569.09"/><line class="cls-66" x1="444.78" y1="581.42" x2="446.19" y2="581.24"/><polyline class="cls-66" points="528.53 566.43 531.01 566.43 530.8 572.02 528.15 572.02 527.76 577.81 530.58 577.81"/><polyline class="cls-66" points="541.55 576.37 543.81 582.82 530.39 582.82"/><polyline class="cls-66" points="532.4 579.59 533.71 582.82 533.71 584.5"/><polyline class="cls-66" points="546.92 582.82 546.92 584.27 548.74 584.27 548.74 582.82 543.81 582.82"/><polyline class="cls-66" points="544.76 584.37 544.76 582.82 542.24 582.82 542.24 584.37 538.8 584.5 538.8 582.82 538.03 580.03"/><polyline class="cls-66" points="498.37 584.7 498.43 583.22 502.87 583.54 502.87 584.7 438.99 584 415.78 584.07"/><line class="cls-68" x1="500.02" y1="577.81" x2="502.88" y2="577.81"/><line class="cls-68" x1="500.52" y1="571.43" x2="528.15" y2="572.02"/><polygon class="cls-66" points="508.06 567.42 508.06 584.7 509.74 584.7 509.93 567.42 508.06 567.42"/><polygon class="cls-66" points="519.46 567.76 519.88 584.7 521.56 584.7 521.14 567.76 519.46 567.76"/><polyline class="cls-66" points="525.86 568.03 526.04 584.7 527.29 584.7 527.76 577.81 525.86 577.81"/><line class="cls-66" x1="502.87" y1="580.03" x2="525.99" y2="580.03"/></g><polygon class="cls-69" points="276.17 401.96 210.09 448.68 210.09 583.2 276.17 583.2 276.17 401.96"/><line class="cls-70" x1="210.09" y1="454.28" x2="276.17" y2="454.28"/><line class="cls-70" x1="210.09" y1="462.38" x2="276.17" y2="462.38"/><line class="cls-70" x1="210.09" y1="470.47" x2="276.17" y2="470.47"/><line class="cls-70" x1="210.09" y1="478.57" x2="276.17" y2="478.57"/><line class="cls-70" x1="210.09" y1="486.67" x2="276.17" y2="486.67"/><line class="cls-70" x1="210.09" y1="494.76" x2="276.17" y2="494.76"/><line class="cls-70" x1="210.09" y1="502.86" x2="276.17" y2="502.86"/><line class="cls-70" x1="210.09" y1="510.96" x2="276.17" y2="510.96"/><line class="cls-70" x1="210.09" y1="519.05" x2="276.17" y2="519.05"/><line class="cls-70" x1="210.09" y1="527.15" x2="276.17" y2="527.15"/><line class="cls-70" x1="210.09" y1="535.25" x2="276.17" y2="535.25"/><line class="cls-70" x1="210.09" y1="543.34" x2="276.17" y2="543.34"/><line class="cls-70" x1="210.09" y1="551.44" x2="276.17" y2="551.44"/><line class="cls-70" x1="210.09" y1="559.54" x2="276.17" y2="559.54"/><line class="cls-70" x1="210.09" y1="567.63" x2="276.17" y2="567.63"/><line class="cls-70" x1="210.09" y1="575.73" x2="276.17" y2="575.73"/><line class="cls-70" x1="276.17" y1="583.83" x2="210.09" y2="583.83"/><polygon class="cls-71" points="276.17 401.96 266.35 408.91 266.35 586.85 276.17 586.85 276.17 401.96"/></g><rect class="cls-1" width="1177.03" height="584.01"/></g></svg>