<svg xmlns="http://www.w3.org/2000/svg" xmlns:xlink="http://www.w3.org/1999/xlink" viewBox="0 0 944.33 325.7"><defs><style>.cls-1,.cls-22,.cls-23,.cls-29,.cls-35,.cls-37,.cls-66,.cls-70,.cls-8{fill:none;}.cls-2{clip-path:url(#clip-path);}.cls-3,.cls-4,.cls-5{fill:#808285;}.cls-23,.cls-3{opacity:0.2;}.cls-28,.cls-4{opacity:0.3;}.cls-5{opacity:0.12;}.cls-6{fill:#505966;}.cls-7{fill:#dfd9c6;}.cls-8{stroke:#6b7672;}.cls-22,.cls-23,.cls-29,.cls-35,.cls-37,.cls-38,.cls-53,.cls-54,.cls-66,.cls-67,.cls-68,.cls-70,.cls-8{stroke-miterlimit:10;}.cls-15,.cls-8{opacity:0.8;}.cls-9{fill:#c4a987;}.cls-10{fill:#c4a588;}.cls-11{fill:#d0b582;}.cls-12{fill:#183d59;}.cls-13{fill:#153959;}.cls-14{fill:#9b8878;}.cls-15{fill:#3b3d3d;}.cls-16{fill:#cdc6a7;}.cls-17{fill:#cbbda1;}.cls-18{fill:#4cbccb;}.cls-19{fill:#4cb2bc;}.cls-20{fill:#164473;}.cls-21{fill:#dee5e9;}.cls-22,.cls-23{stroke:#b5c2df;}.cls-24{fill:#007aac;}.cls-25{fill:#14487d;}.cls-26{fill:#0066a0;}.cls-27{fill:#00588e;}.cls-28{fill:#1c2e57;}.cls-29{stroke:#103b5b;stroke-width:1.5px;}.cls-30{fill:#dcd9ac;}.cls-31{fill:#233547;}.cls-32{fill:#1c2a53;}.cls-33{fill:#e2bfc0;}.cls-34{fill:#8b7590;}.cls-35{stroke:#e2bfc0;}.cls-36{fill:#124356;}.cls-37,.cls-38,.cls-66,.cls-67,.cls-68{stroke:#e4e5e6;}.cls-38,.cls-39{fill:#97a4aa;}.cls-38{stroke-width:0.25px;}.cls-40{fill:#e0e0d1;}.cls-41{fill:#3e3536;}.cls-42{fill:#af874e;}.cls-43{fill:#b48f5e;}.cls-44{fill:#cda26f;}.cls-45{fill:#c69d67;}.cls-46{fill:#bd9559;}.cls-47{fill:#ab844e;}.cls-48{fill:#442b19;}.cls-49{fill:#a29b8f;}.cls-50{fill:#cec4b3;}.cls-51{fill:#00b04c;}.cls-52,.cls-53,.cls-54{fill:#008e46;}.cls-53,.cls-54{stroke:#2e1401;}.cls-53{stroke-width:0.75px;}.cls-54,.cls-66,.cls-67,.cls-68{stroke-width:0.5px;}.cls-55{fill:#80c342;}.cls-56{fill:#3ab54a;}.cls-57{fill:#e4e5e6;}.cls-58{fill:#757679;}.cls-59{fill:#909295;}.cls-60{fill:#5f6062;}.cls-61{fill:#8a8c8e;}.cls-62{fill:#b6b8ba;}.cls-63{fill:#cdcfd0;}.cls-64{fill:#9fa1a4;}.cls-65{opacity:0.4;}.cls-67{fill:#cecac8;}.cls-68{fill:#006db7;}.cls-69{fill:#e7e2cd;}.cls-70{stroke:#6d6461;}.cls-71{fill:#1b2c3e;}</style><clipPath id="clip-path"><rect class="cls-1" width="944.33" height="325.7"/></clipPath></defs><title>skyline illustration</title><g id="Layer_3" data-name="Layer 3"><g class="cls-2"><polygon class="cls-3" points="63.84 175.6 63.84 165.81 53.03 165.81 53.03 157.17 20.59 157.17 20.59 165.81 9.78 165.81 9.78 175.6 0 175.6 0 351.25 73.62 351.25 73.62 175.6 63.84 175.6"/><rect class="cls-4" x="646.61" y="162.35" width="65.42" height="162.65"/><rect class="cls-4" x="184.57" y="67.23" width="75.3" height="250.34"/><polygon class="cls-4" points="579.41 86.64 579.41 66.25 546.19 66.25 546.19 86.64 520.14 86.64 520.14 325.19 605.46 325.19 605.46 86.64 579.41 86.64"/><rect class="cls-5" x="712.23" y="119.05" width="77.05" height="250.34"/><rect class="cls-6" x="120.92" y="104.14" width="19.03" height="221.36"/><rect class="cls-7" x="74.11" y="104.14" width="46.81" height="221.36"/><line class="cls-8" x1="74.11" y1="111.56" x2="139.96" y2="111.56"/><line class="cls-8" x1="74.11" y1="117.9" x2="139.96" y2="117.9"/><line class="cls-8" x1="74.11" y1="124.25" x2="139.96" y2="124.25"/><line class="cls-8" x1="74.11" y1="130.6" x2="139.96" y2="130.6"/><line class="cls-8" x1="74.11" y1="136.94" x2="139.96" y2="136.94"/><line class="cls-8" x1="74.11" y1="143.29" x2="139.96" y2="143.29"/><line class="cls-8" x1="74.11" y1="149.64" x2="139.96" y2="149.64"/><line class="cls-8" x1="74.11" y1="155.99" x2="139.96" y2="155.99"/><line class="cls-8" x1="74.11" y1="162.33" x2="139.96" y2="162.33"/><line class="cls-8" x1="74.11" y1="168.68" x2="139.96" y2="168.68"/><line class="cls-8" x1="74.11" y1="175.03" x2="139.96" y2="175.03"/><line class="cls-8" x1="74.11" y1="181.37" x2="139.96" y2="181.37"/><line class="cls-8" x1="74.11" y1="187.72" x2="139.96" y2="187.72"/><line class="cls-8" x1="74.11" y1="194.07" x2="139.96" y2="194.07"/><line class="cls-8" x1="74.11" y1="200.41" x2="139.96" y2="200.41"/><line class="cls-8" x1="74.11" y1="206.76" x2="139.96" y2="206.76"/><line class="cls-8" x1="74.11" y1="213.11" x2="139.96" y2="213.11"/><line class="cls-8" x1="74.11" y1="219.45" x2="139.96" y2="219.45"/><line class="cls-8" x1="74.11" y1="225.8" x2="139.96" y2="225.8"/><line class="cls-8" x1="74.11" y1="232.15" x2="139.96" y2="232.15"/><line class="cls-8" x1="74.11" y1="238.5" x2="139.96" y2="238.5"/><line class="cls-8" x1="74.11" y1="244.84" x2="139.96" y2="244.84"/><line class="cls-8" x1="74.11" y1="251.19" x2="139.96" y2="251.19"/><line class="cls-8" x1="74.11" y1="257.54" x2="139.96" y2="257.54"/><line class="cls-8" x1="74.11" y1="263.88" x2="139.96" y2="263.88"/><line class="cls-8" x1="74.11" y1="270.23" x2="139.96" y2="270.23"/><line class="cls-8" x1="74.11" y1="276.58" x2="139.96" y2="276.58"/><line class="cls-8" x1="74.11" y1="282.92" x2="139.96" y2="282.92"/><line class="cls-8" x1="74.11" y1="289.27" x2="139.96" y2="289.27"/><line class="cls-8" x1="74.11" y1="295.62" x2="139.96" y2="295.62"/><line class="cls-8" x1="74.11" y1="301.96" x2="139.96" y2="301.96"/><line class="cls-8" x1="74.11" y1="308.31" x2="139.96" y2="308.31"/><line class="cls-8" x1="74.11" y1="314.66" x2="139.96" y2="314.66"/><line class="cls-8" x1="74.11" y1="321.01" x2="139.96" y2="321.01"/><rect class="cls-9" x="107.04" y="104.14" width="13.89" height="221.36"/><rect class="cls-10" x="128.53" y="104.14" width="6.08" height="221.36"/><rect class="cls-11" x="79.36" y="104.14" width="11.15" height="221.36"/><rect class="cls-12" x="124.47" y="104.14" width="1.52" height="221.36"/><rect class="cls-13" x="137.65" y="104.14" width="2.3" height="221.36"/><rect class="cls-14" x="118.83" y="104.14" width="2.09" height="221.36"/><rect class="cls-9" x="88.48" y="104.14" width="2.02" height="221.36"/><rect class="cls-15" x="134.61" y="104.14" width="3.04" height="221.36"/><rect class="cls-7" x="97.52" y="104.14" width="3.28" height="221.36"/><rect class="cls-16" x="87.26" y="99.02" width="39.54" height="5.12"/><rect class="cls-17" x="92.84" y="94.67" width="28.33" height="4.35"/><rect class="cls-18" x="153.67" y="134.56" width="56.3" height="191.47"/><rect class="cls-19" x="140.08" y="134.56" width="13.59" height="191.47"/><rect class="cls-20" x="198.69" y="134.56" width="11.28" height="191.47"/><rect class="cls-21" x="153.67" y="120.33" width="45.02" height="14.23"/><rect class="cls-20" x="186.78" y="102.51" width="3.14" height="17.82"/><rect class="cls-20" x="165.32" y="102.51" width="3.66" height="17.82"/><line class="cls-22" x1="140.08" y1="140.76" x2="198.69" y2="140.76"/><line class="cls-22" x1="140.08" y1="149.21" x2="198.69" y2="149.21"/><line class="cls-22" x1="140.08" y1="157.66" x2="198.69" y2="157.66"/><line class="cls-22" x1="140.08" y1="166.11" x2="198.69" y2="166.11"/><line class="cls-22" x1="140.08" y1="174.56" x2="198.69" y2="174.56"/><line class="cls-22" x1="140.08" y1="183.01" x2="198.69" y2="183.01"/><line class="cls-22" x1="140.08" y1="191.46" x2="198.69" y2="191.46"/><line class="cls-22" x1="140.08" y1="199.91" x2="198.69" y2="199.91"/><line class="cls-22" x1="140.08" y1="208.35" x2="198.69" y2="208.35"/><line class="cls-22" x1="140.08" y1="216.8" x2="198.69" y2="216.8"/><line class="cls-22" x1="140.08" y1="225.25" x2="198.69" y2="225.25"/><line class="cls-22" x1="140.08" y1="233.7" x2="198.69" y2="233.7"/><line class="cls-22" x1="140.08" y1="242.15" x2="198.69" y2="242.15"/><line class="cls-22" x1="140.08" y1="250.6" x2="198.69" y2="250.6"/><line class="cls-22" x1="140.08" y1="259.05" x2="198.69" y2="259.05"/><line class="cls-22" x1="140.08" y1="267.5" x2="198.69" y2="267.5"/><line class="cls-22" x1="140.08" y1="275.95" x2="198.69" y2="275.95"/><line class="cls-22" x1="140.08" y1="284.39" x2="198.69" y2="284.39"/><line class="cls-22" x1="140.08" y1="292.84" x2="198.69" y2="292.84"/><line class="cls-22" x1="140.08" y1="301.29" x2="198.69" y2="301.29"/><line class="cls-22" x1="140.08" y1="309.74" x2="198.69" y2="309.74"/><line class="cls-22" x1="140.08" y1="318.19" x2="198.69" y2="318.19"/><line class="cls-23" x1="198.69" y1="140.76" x2="209.97" y2="140.76"/><line class="cls-23" x1="198.69" y1="149.21" x2="209.97" y2="149.21"/><line class="cls-23" x1="198.69" y1="157.66" x2="209.97" y2="157.66"/><line class="cls-23" x1="198.69" y1="166.11" x2="209.97" y2="166.11"/><line class="cls-23" x1="198.69" y1="174.56" x2="209.97" y2="174.56"/><line class="cls-23" x1="198.69" y1="183.01" x2="209.97" y2="183.01"/><line class="cls-23" x1="198.69" y1="191.46" x2="209.97" y2="191.46"/><line class="cls-23" x1="198.69" y1="199.91" x2="209.97" y2="199.91"/><line class="cls-23" x1="198.69" y1="208.35" x2="209.97" y2="208.35"/><line class="cls-23" x1="198.69" y1="216.8" x2="209.97" y2="216.8"/><line class="cls-23" x1="198.69" y1="225.25" x2="209.97" y2="225.25"/><line class="cls-23" x1="198.69" y1="233.7" x2="209.97" y2="233.7"/><line class="cls-23" x1="198.69" y1="242.15" x2="209.97" y2="242.15"/><line class="cls-23" x1="198.69" y1="250.6" x2="209.97" y2="250.6"/><line class="cls-23" x1="198.69" y1="259.05" x2="209.97" y2="259.05"/><line class="cls-23" x1="198.69" y1="267.5" x2="209.97" y2="267.5"/><line class="cls-23" x1="198.69" y1="275.95" x2="209.97" y2="275.95"/><line class="cls-23" x1="198.69" y1="284.39" x2="209.97" y2="284.39"/><line class="cls-23" x1="198.69" y1="292.84" x2="209.97" y2="292.84"/><line class="cls-23" x1="198.69" y1="301.29" x2="209.97" y2="301.29"/><line class="cls-23" x1="198.69" y1="309.74" x2="209.97" y2="309.74"/><line class="cls-23" x1="198.69" y1="318.19" x2="209.97" y2="318.19"/><path class="cls-24" d="M383.7,48.69V326H492.62V48.69s-25-8.11-52.49-8.11S383.7,48.69,383.7,48.69Z"/><polygon class="cls-25" points="474.15 44.13 474.15 326 492.62 326 492.62 48.69 474.15 44.13"/><polygon class="cls-25" points="457.98 41.63 457.98 326 468.32 326 468.32 43.06 457.98 41.63"/><polygon class="cls-25" points="452.45 41.08 452.45 326 442.06 326 442.06 40.57 452.45 41.08"/><polygon class="cls-25" points="435.82 40.64 435.82 326 430.32 326 430.32 40.89 435.82 40.64"/><polygon class="cls-25" points="421.71 41.63 421.71 326 424.2 326 424.2 41.37 421.71 41.63"/><polygon class="cls-25" points="414.94 42.45 414.94 326 415.89 326 415.89 42.32 414.94 42.45"/><polygon class="cls-25" points="400.5 44.85 400.5 326 401.45 326 401.45 44.66 400.5 44.85"/><polygon class="cls-25" points="392.77 46.46 392.77 326 394.43 326 394.43 46.09 392.77 46.46"/><polygon class="cls-25" points="411.5 42.94 411.5 326 407.13 326 407.13 43.64 411.5 42.94"/><rect class="cls-26" x="513.27" y="194.4" width="132.57" height="132.57"/><rect class="cls-26" x="520.97" y="160.92" width="117.17" height="33.48"/><polyline class="cls-27" points="534.92 160.92 534.92 151.62 559.1 135.82 597.04 135.82 624.19 148.37 624.19 160.92"/><polyline class="cls-28" points="577.71 148.37 601.91 148.37 598.26 135.82 578.61 135.82 578.61 135.82 558.95 135.82 555.31 148.37 579.5 148.37"/><line class="cls-29" x1="513.27" y1="201.36" x2="645.84" y2="201.36"/><line class="cls-29" x1="521.11" y1="189.34" x2="638.14" y2="189.34"/><line class="cls-29" x1="521.11" y1="181.49" x2="638.14" y2="181.49"/><line class="cls-29" x1="521.11" y1="173.64" x2="638.14" y2="173.64"/><line class="cls-29" x1="521.11" y1="165.79" x2="638.14" y2="165.79"/><line class="cls-29" x1="513.27" y1="209.56" x2="645.84" y2="209.56"/><line class="cls-29" x1="513.27" y1="217.76" x2="645.84" y2="217.76"/><line class="cls-29" x1="513.27" y1="225.96" x2="645.84" y2="225.96"/><line class="cls-29" x1="513.27" y1="234.16" x2="645.84" y2="234.16"/><line class="cls-29" x1="513.27" y1="242.36" x2="645.84" y2="242.36"/><line class="cls-29" x1="513.27" y1="250.56" x2="645.84" y2="250.56"/><line class="cls-29" x1="513.27" y1="258.76" x2="645.84" y2="258.76"/><line class="cls-29" x1="513.27" y1="266.96" x2="645.84" y2="266.96"/><line class="cls-29" x1="513.27" y1="275.16" x2="645.84" y2="275.16"/><line class="cls-29" x1="513.27" y1="283.36" x2="645.84" y2="283.36"/><line class="cls-29" x1="513.27" y1="291.56" x2="645.84" y2="291.56"/><line class="cls-29" x1="513.27" y1="299.76" x2="645.84" y2="299.76"/><line class="cls-29" x1="513.27" y1="307.96" x2="645.84" y2="307.96"/><line class="cls-29" x1="513.27" y1="316.16" x2="645.84" y2="316.16"/><line class="cls-29" x1="513.27" y1="324.36" x2="645.84" y2="324.36"/><rect class="cls-30" x="492.72" y="156.86" width="93.39" height="196.34"/><rect class="cls-31" x="497.67" y="318.56" width="7.95" height="7.23"/><rect class="cls-31" x="510.28" y="318.56" width="7.95" height="7.23"/><rect class="cls-31" x="522.9" y="318.56" width="7.95" height="7.23"/><rect class="cls-31" x="535.51" y="318.56" width="7.95" height="7.23"/><rect class="cls-31" x="548.13" y="318.56" width="7.95" height="7.23"/><rect class="cls-31" x="560.74" y="318.56" width="7.95" height="7.23"/><rect class="cls-31" x="573.36" y="318.56" width="7.95" height="7.23"/><rect class="cls-31" x="497.67" y="307.35" width="7.95" height="7.23"/><rect class="cls-31" x="510.28" y="307.35" width="7.95" height="7.23"/><rect class="cls-31" x="522.9" y="307.35" width="7.95" height="7.23"/><rect class="cls-31" x="535.51" y="307.35" width="7.95" height="7.23"/><rect class="cls-31" x="548.13" y="307.35" width="7.95" height="7.23"/><rect class="cls-31" x="560.74" y="307.35" width="7.95" height="7.23"/><rect class="cls-31" x="573.36" y="307.35" width="7.95" height="7.23"/><rect class="cls-31" x="497.67" y="296.14" width="7.95" height="7.23"/><rect class="cls-31" x="510.28" y="296.14" width="7.95" height="7.23"/><rect class="cls-31" x="522.9" y="296.14" width="7.95" height="7.23"/><rect class="cls-31" x="535.51" y="296.14" width="7.95" height="7.23"/><rect class="cls-31" x="548.13" y="296.14" width="7.95" height="7.23"/><rect class="cls-31" x="560.74" y="296.14" width="7.95" height="7.23"/><rect class="cls-31" x="573.36" y="296.14" width="7.95" height="7.23"/><rect class="cls-31" x="497.67" y="284.93" width="7.95" height="7.23"/><rect class="cls-31" x="510.28" y="284.93" width="7.95" height="7.23"/><rect class="cls-31" x="522.9" y="284.93" width="7.95" height="7.23"/><rect class="cls-31" x="535.51" y="284.93" width="7.95" height="7.23"/><rect class="cls-31" x="548.13" y="284.93" width="7.95" height="7.23"/><rect class="cls-31" x="560.74" y="284.93" width="7.95" height="7.23"/><rect class="cls-31" x="573.36" y="284.93" width="7.95" height="7.23"/><rect class="cls-31" x="497.67" y="273.72" width="7.95" height="7.23"/><rect class="cls-31" x="510.28" y="273.72" width="7.95" height="7.23"/><rect class="cls-31" x="522.9" y="273.72" width="7.95" height="7.23"/><rect class="cls-31" x="535.51" y="273.72" width="7.95" height="7.23"/><rect class="cls-31" x="548.13" y="273.72" width="7.95" height="7.23"/><rect class="cls-31" x="560.74" y="273.72" width="7.95" height="7.23"/><rect class="cls-31" x="573.36" y="273.72" width="7.95" height="7.23"/><rect class="cls-31" x="497.67" y="262.52" width="7.95" height="7.23"/><rect class="cls-31" x="510.28" y="262.52" width="7.95" height="7.23"/><rect class="cls-31" x="522.9" y="262.52" width="7.95" height="7.23"/><rect class="cls-31" x="535.51" y="262.52" width="7.95" height="7.23"/><rect class="cls-31" x="548.13" y="262.52" width="7.95" height="7.23"/><rect class="cls-31" x="560.74" y="262.52" width="7.95" height="7.23"/><rect class="cls-31" x="573.36" y="262.52" width="7.95" height="7.23"/><rect class="cls-31" x="497.67" y="251.31" width="7.95" height="7.23"/><rect class="cls-31" x="510.28" y="251.31" width="7.95" height="7.23"/><rect class="cls-31" x="522.9" y="251.31" width="7.95" height="7.23"/><rect class="cls-31" x="535.51" y="251.31" width="7.95" height="7.23"/><rect class="cls-31" x="548.13" y="251.31" width="7.95" height="7.23"/><rect class="cls-31" x="560.74" y="251.31" width="7.95" height="7.23"/><rect class="cls-31" x="573.36" y="251.31" width="7.95" height="7.23"/><rect class="cls-31" x="497.67" y="240.1" width="7.95" height="7.23"/><rect class="cls-31" x="510.28" y="240.1" width="7.95" height="7.23"/><rect class="cls-31" x="522.9" y="240.1" width="7.95" height="7.23"/><rect class="cls-31" x="535.51" y="240.1" width="7.95" height="7.23"/><rect class="cls-31" x="548.13" y="240.1" width="7.95" height="7.23"/><rect class="cls-31" x="560.74" y="240.1" width="7.95" height="7.23"/><rect class="cls-31" x="573.36" y="240.1" width="7.95" height="7.23"/><rect class="cls-31" x="497.67" y="228.89" width="7.95" height="7.23"/><rect class="cls-31" x="510.28" y="228.89" width="7.95" height="7.23"/><rect class="cls-31" x="522.9" y="228.89" width="7.95" height="7.23"/><rect class="cls-31" x="535.51" y="228.89" width="7.95" height="7.23"/><rect class="cls-31" x="548.13" y="228.89" width="7.95" height="7.23"/><rect class="cls-31" x="560.74" y="228.89" width="7.95" height="7.23"/><rect class="cls-31" x="573.36" y="228.89" width="7.95" height="7.23"/><rect class="cls-31" x="497.67" y="217.68" width="7.95" height="7.23"/><rect class="cls-31" x="510.28" y="217.68" width="7.95" height="7.23"/><rect class="cls-31" x="522.9" y="217.68" width="7.95" height="7.23"/><rect class="cls-31" x="535.51" y="217.68" width="7.95" height="7.23"/><rect class="cls-31" x="548.13" y="217.68" width="7.95" height="7.23"/><rect class="cls-31" x="560.74" y="217.68" width="7.95" height="7.23"/><rect class="cls-31" x="573.36" y="217.68" width="7.95" height="7.23"/><rect class="cls-31" x="497.67" y="206.47" width="7.95" height="7.23"/><rect class="cls-31" x="510.28" y="206.47" width="7.95" height="7.23"/><rect class="cls-31" x="522.9" y="206.47" width="7.95" height="7.23"/><rect class="cls-31" x="535.51" y="206.47" width="7.95" height="7.23"/><rect class="cls-31" x="548.13" y="206.47" width="7.95" height="7.23"/><rect class="cls-31" x="560.74" y="206.47" width="7.95" height="7.23"/><rect class="cls-31" x="573.36" y="206.47" width="7.95" height="7.23"/><rect class="cls-31" x="497.67" y="195.27" width="7.95" height="7.23"/><rect class="cls-31" x="510.28" y="195.27" width="7.95" height="7.23"/><rect class="cls-31" x="522.9" y="195.27" width="7.95" height="7.23"/><rect class="cls-31" x="535.51" y="195.27" width="7.95" height="7.23"/><rect class="cls-31" x="548.13" y="195.27" width="7.95" height="7.23"/><rect class="cls-31" x="560.74" y="195.27" width="7.95" height="7.23"/><rect class="cls-31" x="573.36" y="195.27" width="7.95" height="7.23"/><rect class="cls-31" x="497.67" y="184.06" width="7.95" height="7.23"/><rect class="cls-31" x="510.28" y="184.06" width="7.95" height="7.23"/><rect class="cls-31" x="522.9" y="184.06" width="7.95" height="7.23"/><rect class="cls-31" x="535.51" y="184.06" width="7.95" height="7.23"/><rect class="cls-31" x="548.13" y="184.06" width="7.95" height="7.23"/><rect class="cls-31" x="560.74" y="184.06" width="7.95" height="7.23"/><rect class="cls-31" x="573.36" y="184.06" width="7.95" height="7.23"/><rect class="cls-31" x="497.67" y="172.85" width="7.95" height="7.23"/><rect class="cls-31" x="510.28" y="172.85" width="7.95" height="7.23"/><rect class="cls-31" x="522.9" y="172.85" width="7.95" height="7.23"/><rect class="cls-31" x="535.51" y="172.85" width="7.95" height="7.23"/><rect class="cls-31" x="548.13" y="172.85" width="7.95" height="7.23"/><rect class="cls-31" x="560.74" y="172.85" width="7.95" height="7.23"/><rect class="cls-31" x="573.36" y="172.85" width="7.95" height="7.23"/><rect class="cls-31" x="497.67" y="161.64" width="7.95" height="7.23"/><rect class="cls-31" x="510.28" y="161.64" width="7.95" height="7.23"/><rect class="cls-31" x="522.9" y="161.64" width="7.95" height="7.23"/><rect class="cls-31" x="535.51" y="161.64" width="7.95" height="7.23"/><rect class="cls-31" x="548.13" y="161.64" width="7.95" height="7.23"/><rect class="cls-31" x="560.74" y="161.64" width="7.95" height="7.23"/><rect class="cls-31" x="573.36" y="161.64" width="7.95" height="7.23"/><polygon class="cls-32" points="709.74 326.3 709.74 216.11 729.04 234.55 730.75 326.3 709.74 326.3"/><polygon class="cls-33" points="709.74 216.11 727.75 216.11 727.75 211.82 746.62 211.82 746.62 221.25 763.34 221.25 763.34 230.26 778.77 230.26 778.77 240.98 793.78 240.98 793.78 326.3 730.75 326.3 729.04 234.55 709.74 216.11"/><polygon class="cls-34" points="730.75 226.83 730.75 234.55 734.05 234.55 734.05 264.58 791.37 264.58 791.37 256.2 775.41 256.2 775.41 247.01 766.22 247.01 766.22 244.31 761.06 244.31 761.06 236.2 749.79 236.2 749.79 234.24 744.62 234.24 744.62 226.07 730.75 226.07 730.75 226.83"/><rect class="cls-34" x="733.87" y="269.92" width="57.5" height="14.07"/><rect class="cls-34" x="733.87" y="289.57" width="57.5" height="15.21"/><rect class="cls-34" x="730.75" y="216.11" width="13.59" height="5.38"/><rect class="cls-34" x="746.63" y="226.07" width="13.59" height="5.38"/><rect class="cls-34" x="762.5" y="236.03" width="13.59" height="5.38"/><rect class="cls-34" x="778.37" y="245.99" width="13.59" height="5.38"/><polyline class="cls-32" points="709.74 216.11 690.45 234.55 688.73 326.3 709.74 326.3"/><polygon class="cls-33" points="709.74 216.11 691.74 216.11 691.74 211.82 672.87 211.82 672.87 221.25 656.15 221.25 656.15 230.26 640.71 230.26 640.71 240.98 625.7 240.98 625.7 326.3 688.73 326.3 690.45 234.55 709.74 216.11"/><polygon class="cls-34" points="688.73 226.83 688.73 234.55 685.43 234.55 685.43 264.58 628.12 264.58 628.12 256.2 644.07 256.2 644.07 247.01 653.26 247.01 653.26 244.31 658.43 244.31 658.43 236.2 669.7 236.2 669.7 234.24 674.87 234.24 674.87 226.07 688.73 226.07 688.73 226.83"/><rect class="cls-34" x="628.12" y="269.92" width="57.5" height="14.07"/><rect class="cls-34" x="628.12" y="289.57" width="57.5" height="15.21"/><rect class="cls-34" x="675.15" y="216.11" width="13.59" height="5.38" transform="translate(1363.88 437.6) rotate(-180)"/><rect class="cls-34" x="659.28" y="226.07" width="13.59" height="5.38" transform="translate(1332.14 457.51) rotate(-180)"/><rect class="cls-34" x="643.4" y="236.03" width="13.59" height="5.38" transform="translate(1300.39 477.43) rotate(-180)"/><rect class="cls-34" x="627.53" y="245.99" width="13.59" height="5.38" transform="translate(1268.65 497.35) rotate(-180)"/><line class="cls-33" x1="688.73" y1="234.55" x2="730.75" y2="234.55"/><rect class="cls-35" x="702.36" y="234.55" width="14.77" height="93.81"/><line class="cls-35" x1="729.04" y1="234.55" x2="690.45" y2="234.55"/><polyline class="cls-35" points="702.36 234.55 709.74 227.93 717.13 234.55"/><line class="cls-35" x1="709.74" y1="227.93" x2="709.74" y2="216.11"/><polygon class="cls-36" points="865.84 326.08 905.09 277.83 944.33 326.08 865.84 326.08"/><polyline class="cls-37" points="944.33 326.08 905.09 277.83 865.84 326.08"/><line class="cls-38" x1="867.85" y1="323.95" x2="867.85" y2="327.15"/><line class="cls-38" x1="871.41" y1="319.54" x2="871.41" y2="327.15"/><line class="cls-38" x1="874.96" y1="315.16" x2="874.96" y2="327.15"/><line class="cls-38" x1="878.52" y1="310.72" x2="878.52" y2="327.15"/><line class="cls-38" x1="882.07" y1="305.83" x2="882.07" y2="327.15"/><line class="cls-38" x1="885.63" y1="301.95" x2="885.63" y2="327.15"/><line class="cls-38" x1="889.19" y1="296.75" x2="889.19" y2="327.15"/><line class="cls-38" x1="892.74" y1="293.09" x2="892.74" y2="327.15"/><line class="cls-38" x1="896.3" y1="288.61" x2="896.3" y2="327.15"/><line class="cls-38" x1="899.85" y1="284.26" x2="899.85" y2="327.15"/><line class="cls-38" x1="903.41" y1="280.06" x2="903.41" y2="327.15"/><line class="cls-38" x1="906.97" y1="280.05" x2="906.97" y2="327.15"/><line class="cls-38" x1="910.52" y1="284.51" x2="910.52" y2="327.15"/><line class="cls-38" x1="914.08" y1="288.61" x2="914.08" y2="327.15"/><line class="cls-38" x1="917.63" y1="293.09" x2="917.63" y2="327.15"/><line class="cls-38" x1="921.19" y1="296.75" x2="921.19" y2="327.15"/><line class="cls-38" x1="924.75" y1="301.95" x2="924.75" y2="327.15"/><line class="cls-38" x1="928.3" y1="305.83" x2="928.3" y2="327.15"/><line class="cls-38" x1="931.86" y1="310.72" x2="931.86" y2="327.15"/><line class="cls-38" x1="935.42" y1="315.16" x2="935.42" y2="327.15"/><line class="cls-38" x1="938.97" y1="319.54" x2="938.97" y2="327.15"/><polygon class="cls-39" points="897.6 285.8 912.6 285.8 917.12 291.42 893.07 291.42 897.6 285.8"/><line class="cls-38" x1="868.89" y1="322.33" x2="941.28" y2="322.33"/><line class="cls-38" x1="871.41" y1="318.08" x2="937.82" y2="318.08"/><line class="cls-38" x1="876.38" y1="313.82" x2="934.36" y2="313.82"/><line class="cls-38" x1="879.56" y1="309.8" x2="930.9" y2="309.8"/><line class="cls-38" x1="882.07" y1="305.31" x2="928.3" y2="305.31"/><line class="cls-38" x1="885.63" y1="301.06" x2="924.75" y2="301.06"/><line class="cls-38" x1="889.19" y1="296.8" x2="921.19" y2="296.8"/><line class="cls-38" x1="892.74" y1="292.54" x2="917.63" y2="292.54"/><line class="cls-38" x1="899.85" y1="284.03" x2="910.52" y2="284.03"/><line class="cls-38" x1="903.41" y1="279.78" x2="906.97" y2="279.78"/><polygon class="cls-36" points="824.39 326.77 875.17 264.33 925.94 326.77 824.39 326.77"/><polyline class="cls-37" points="925.94 326.77 875.17 264.33 824.39 326.77"/><line class="cls-38" x1="826.99" y1="324.01" x2="826.99" y2="328.15"/><line class="cls-38" x1="831.59" y1="318.3" x2="831.59" y2="328.15"/><line class="cls-38" x1="836.2" y1="312.63" x2="836.2" y2="328.15"/><line class="cls-38" x1="840.8" y1="306.89" x2="840.8" y2="328.15"/><line class="cls-38" x1="845.4" y1="300.57" x2="845.4" y2="328.15"/><line class="cls-38" x1="850" y1="295.55" x2="850" y2="328.15"/><line class="cls-38" x1="854.6" y1="288.82" x2="854.6" y2="328.15"/><line class="cls-38" x1="859.2" y1="284.08" x2="859.2" y2="328.15"/><line class="cls-38" x1="863.8" y1="278.29" x2="863.8" y2="328.15"/><line class="cls-38" x1="868.4" y1="272.65" x2="868.4" y2="328.15"/><line class="cls-38" x1="873" y1="267.22" x2="873" y2="328.15"/><line class="cls-38" x1="877.6" y1="267.21" x2="877.6" y2="328.15"/><line class="cls-38" x1="882.2" y1="272.98" x2="882.2" y2="328.15"/><line class="cls-38" x1="886.8" y1="278.29" x2="886.8" y2="328.15"/><line class="cls-38" x1="891.4" y1="284.08" x2="891.4" y2="328.15"/><line class="cls-38" x1="896.01" y1="288.82" x2="896.01" y2="328.15"/><line class="cls-38" x1="900.61" y1="295.55" x2="900.61" y2="328.15"/><line class="cls-38" x1="905.21" y1="300.57" x2="905.21" y2="328.15"/><line class="cls-38" x1="909.81" y1="306.89" x2="909.81" y2="328.15"/><line class="cls-38" x1="914.41" y1="312.63" x2="914.41" y2="328.15"/><line class="cls-38" x1="919.01" y1="318.3" x2="919.01" y2="328.15"/><polygon class="cls-39" points="865.48 274.65 884.89 274.65 890.74 281.92 859.63 281.92 865.48 274.65"/><line class="cls-38" x1="828.34" y1="321.92" x2="922" y2="321.92"/><line class="cls-38" x1="831.59" y1="316.41" x2="917.52" y2="316.41"/><line class="cls-38" x1="838.03" y1="310.9" x2="913.04" y2="310.9"/><line class="cls-38" x1="842.14" y1="305.71" x2="908.56" y2="305.71"/><line class="cls-38" x1="845.4" y1="299.89" x2="905.21" y2="299.89"/><line class="cls-38" x1="850" y1="294.39" x2="900.61" y2="294.39"/><line class="cls-38" x1="854.6" y1="288.88" x2="896.01" y2="288.88"/><line class="cls-38" x1="859.2" y1="283.38" x2="891.4" y2="283.38"/><line class="cls-38" x1="868.4" y1="272.36" x2="882.2" y2="272.36"/><line class="cls-38" x1="873" y1="266.86" x2="877.6" y2="266.86"/><polygon class="cls-36" points="805.59 326.34 844.84 278.08 884.08 326.34 805.59 326.34"/><polyline class="cls-37" points="884.08 326.34 844.84 278.08 805.59 326.34"/><line class="cls-38" x1="807.6" y1="324.2" x2="807.6" y2="327.4"/><line class="cls-38" x1="811.16" y1="319.79" x2="811.16" y2="327.4"/><line class="cls-38" x1="814.71" y1="315.41" x2="814.71" y2="327.4"/><line class="cls-38" x1="818.27" y1="310.98" x2="818.27" y2="327.4"/><line class="cls-38" x1="821.83" y1="306.08" x2="821.83" y2="327.4"/><line class="cls-38" x1="825.38" y1="302.21" x2="825.38" y2="327.4"/><line class="cls-38" x1="828.94" y1="297.01" x2="828.94" y2="327.4"/><line class="cls-38" x1="832.49" y1="293.34" x2="832.49" y2="327.4"/><line class="cls-38" x1="836.05" y1="288.86" x2="836.05" y2="327.4"/><line class="cls-38" x1="839.61" y1="284.51" x2="839.61" y2="327.4"/><line class="cls-38" x1="843.16" y1="280.31" x2="843.16" y2="327.4"/><line class="cls-38" x1="846.72" y1="280.3" x2="846.72" y2="327.4"/><line class="cls-38" x1="850.28" y1="284.77" x2="850.28" y2="327.4"/><line class="cls-38" x1="853.83" y1="288.86" x2="853.83" y2="327.4"/><line class="cls-38" x1="857.39" y1="293.34" x2="857.39" y2="327.4"/><line class="cls-38" x1="860.94" y1="297.01" x2="860.94" y2="327.4"/><line class="cls-38" x1="864.5" y1="302.21" x2="864.5" y2="327.4"/><line class="cls-38" x1="868.06" y1="306.08" x2="868.06" y2="327.4"/><line class="cls-38" x1="871.61" y1="310.98" x2="871.61" y2="327.4"/><line class="cls-38" x1="875.17" y1="315.41" x2="875.17" y2="327.4"/><line class="cls-38" x1="878.72" y1="319.79" x2="878.72" y2="327.4"/><polygon class="cls-39" points="837.35 286.05 852.35 286.05 856.88 291.67 832.83 291.67 837.35 286.05"/><line class="cls-38" x1="808.64" y1="322.59" x2="881.03" y2="322.59"/><line class="cls-38" x1="811.16" y1="318.33" x2="877.57" y2="318.33"/><line class="cls-38" x1="816.13" y1="314.08" x2="874.11" y2="314.08"/><line class="cls-38" x1="819.31" y1="310.06" x2="870.65" y2="310.06"/><line class="cls-38" x1="821.83" y1="305.56" x2="868.06" y2="305.56"/><line class="cls-38" x1="825.38" y1="301.31" x2="864.5" y2="301.31"/><line class="cls-38" x1="828.94" y1="297.05" x2="860.94" y2="297.05"/><line class="cls-38" x1="832.49" y1="292.8" x2="857.39" y2="292.8"/><line class="cls-38" x1="839.61" y1="284.29" x2="850.28" y2="284.29"/><line class="cls-38" x1="843.16" y1="280.03" x2="846.72" y2="280.03"/><polygon class="cls-36" points="755.09 326.15 805.87 263.72 856.64 326.15 755.09 326.15"/><polyline class="cls-37" points="856.64 326.15 805.87 263.72 755.09 326.15"/><line class="cls-38" x1="757.69" y1="323.39" x2="757.69" y2="327.53"/><line class="cls-38" x1="762.29" y1="317.69" x2="762.29" y2="327.53"/><line class="cls-38" x1="766.89" y1="312.01" x2="766.89" y2="327.53"/><line class="cls-38" x1="771.49" y1="306.28" x2="771.49" y2="327.53"/><line class="cls-38" x1="776.09" y1="299.95" x2="776.09" y2="327.53"/><line class="cls-38" x1="780.69" y1="294.93" x2="780.69" y2="327.53"/><line class="cls-38" x1="785.29" y1="288.21" x2="785.29" y2="327.53"/><line class="cls-38" x1="789.9" y1="283.46" x2="789.9" y2="327.53"/><line class="cls-38" x1="794.5" y1="277.67" x2="794.5" y2="327.53"/><line class="cls-38" x1="799.1" y1="272.04" x2="799.1" y2="327.53"/><line class="cls-38" x1="803.7" y1="266.61" x2="803.7" y2="327.53"/><line class="cls-38" x1="808.3" y1="266.59" x2="808.3" y2="327.53"/><line class="cls-38" x1="812.9" y1="272.37" x2="812.9" y2="327.53"/><line class="cls-38" x1="817.5" y1="277.67" x2="817.5" y2="327.53"/><line class="cls-38" x1="822.1" y1="283.46" x2="822.1" y2="327.53"/><line class="cls-38" x1="826.7" y1="288.21" x2="826.7" y2="327.53"/><line class="cls-38" x1="831.3" y1="294.93" x2="831.3" y2="327.53"/><line class="cls-38" x1="835.9" y1="299.95" x2="835.9" y2="327.53"/><line class="cls-38" x1="840.5" y1="306.28" x2="840.5" y2="327.53"/><line class="cls-38" x1="845.11" y1="312.01" x2="845.11" y2="327.53"/><line class="cls-38" x1="849.71" y1="317.69" x2="849.71" y2="327.53"/><polygon class="cls-39" points="796.17 274.03 815.59 274.03 821.44 281.3 790.32 281.3 796.17 274.03"/><line class="cls-38" x1="759.04" y1="321.3" x2="852.69" y2="321.3"/><line class="cls-38" x1="762.29" y1="315.79" x2="848.22" y2="315.79"/><line class="cls-38" x1="768.72" y1="310.29" x2="843.74" y2="310.29"/><line class="cls-38" x1="772.84" y1="305.09" x2="839.26" y2="305.09"/><line class="cls-38" x1="776.09" y1="299.28" x2="835.9" y2="299.28"/><line class="cls-38" x1="780.69" y1="293.77" x2="831.3" y2="293.77"/><line class="cls-38" x1="785.29" y1="288.26" x2="826.7" y2="288.26"/><line class="cls-38" x1="789.9" y1="282.76" x2="822.1" y2="282.76"/><line class="cls-38" x1="799.1" y1="271.75" x2="812.9" y2="271.75"/><line class="cls-38" x1="803.7" y1="266.24" x2="808.3" y2="266.24"/><rect class="cls-40" x="276.17" y="10.26" width="107.53" height="315.74"/><rect class="cls-41" x="279.74" y="314.61" width="7.38" height="7.38"/><rect class="cls-41" x="291.36" y="314.61" width="7.38" height="7.38"/><rect class="cls-41" x="302.97" y="314.61" width="7.38" height="7.38"/><rect class="cls-41" x="314.58" y="314.61" width="7.38" height="7.38"/><rect class="cls-41" x="326.2" y="314.61" width="7.38" height="7.38"/><rect class="cls-41" x="337.81" y="314.61" width="7.38" height="7.38"/><rect class="cls-41" x="349.43" y="314.61" width="7.38" height="7.38"/><rect class="cls-41" x="361.04" y="314.61" width="7.38" height="7.38"/><rect class="cls-41" x="372.65" y="314.61" width="7.38" height="7.38"/><rect class="cls-41" x="279.74" y="303.05" width="7.38" height="7.38"/><rect class="cls-41" x="291.36" y="303.05" width="7.38" height="7.38"/><rect class="cls-41" x="302.97" y="303.05" width="7.38" height="7.38"/><rect class="cls-41" x="314.58" y="303.05" width="7.38" height="7.38"/><rect class="cls-41" x="326.2" y="303.05" width="7.38" height="7.38"/><rect class="cls-41" x="337.81" y="303.05" width="7.38" height="7.38"/><rect class="cls-41" x="349.43" y="303.05" width="7.38" height="7.38"/><rect class="cls-41" x="361.04" y="303.05" width="7.38" height="7.38"/><rect class="cls-41" x="372.65" y="303.05" width="7.38" height="7.38"/><rect class="cls-41" x="279.74" y="291.49" width="7.38" height="7.38"/><rect class="cls-41" x="291.36" y="291.49" width="7.38" height="7.38"/><rect class="cls-41" x="302.97" y="291.49" width="7.38" height="7.38"/><rect class="cls-41" x="314.58" y="291.49" width="7.38" height="7.38"/><rect class="cls-41" x="326.2" y="291.49" width="7.38" height="7.38"/><rect class="cls-41" x="337.81" y="291.49" width="7.38" height="7.38"/><rect class="cls-41" x="349.43" y="291.49" width="7.38" height="7.38"/><rect class="cls-41" x="361.04" y="291.49" width="7.38" height="7.38"/><rect class="cls-41" x="372.65" y="291.49" width="7.38" height="7.38"/><rect class="cls-41" x="279.74" y="279.93" width="7.38" height="7.38"/><rect class="cls-41" x="291.36" y="279.93" width="7.38" height="7.38"/><rect class="cls-41" x="302.97" y="279.93" width="7.38" height="7.38"/><rect class="cls-41" x="314.58" y="279.93" width="7.38" height="7.38"/><rect class="cls-41" x="326.2" y="279.93" width="7.38" height="7.38"/><rect class="cls-41" x="337.81" y="279.93" width="7.38" height="7.38"/><rect class="cls-41" x="349.43" y="279.93" width="7.38" height="7.38"/><rect class="cls-41" x="361.04" y="279.93" width="7.38" height="7.38"/><rect class="cls-41" x="372.65" y="279.93" width="7.38" height="7.38"/><rect class="cls-41" x="279.74" y="268.37" width="7.38" height="7.38"/><rect class="cls-41" x="291.36" y="268.37" width="7.38" height="7.38"/><rect class="cls-41" x="302.97" y="268.37" width="7.38" height="7.38"/><rect class="cls-41" x="314.58" y="268.37" width="7.38" height="7.38"/><rect class="cls-41" x="326.2" y="268.37" width="7.38" height="7.38"/><rect class="cls-41" x="337.81" y="268.37" width="7.38" height="7.38"/><rect class="cls-41" x="349.43" y="268.37" width="7.38" height="7.38"/><rect class="cls-41" x="361.04" y="268.37" width="7.38" height="7.38"/><rect class="cls-41" x="372.65" y="268.37" width="7.38" height="7.38"/><rect class="cls-41" x="279.74" y="256.81" width="7.38" height="7.38"/><rect class="cls-41" x="291.36" y="256.81" width="7.38" height="7.38"/><rect class="cls-41" x="302.97" y="256.81" width="7.38" height="7.38"/><rect class="cls-41" x="314.58" y="256.81" width="7.38" height="7.38"/><rect class="cls-41" x="326.2" y="256.81" width="7.38" height="7.38"/><rect class="cls-41" x="337.81" y="256.81" width="7.38" height="7.38"/><rect class="cls-41" x="349.43" y="256.81" width="7.38" height="7.38"/><rect class="cls-41" x="361.04" y="256.81" width="7.38" height="7.38"/><rect class="cls-41" x="372.65" y="256.81" width="7.38" height="7.38"/><rect class="cls-41" x="279.74" y="245.25" width="7.38" height="7.38"/><rect class="cls-41" x="291.36" y="245.25" width="7.38" height="7.38"/><rect class="cls-41" x="302.97" y="245.25" width="7.38" height="7.38"/><rect class="cls-41" x="314.58" y="245.25" width="7.38" height="7.38"/><rect class="cls-41" x="326.2" y="245.25" width="7.38" height="7.38"/><rect class="cls-41" x="337.81" y="245.25" width="7.38" height="7.38"/><rect class="cls-41" x="349.43" y="245.25" width="7.38" height="7.38"/><rect class="cls-41" x="361.04" y="245.25" width="7.38" height="7.38"/><rect class="cls-41" x="372.65" y="245.25" width="7.38" height="7.38"/><rect class="cls-41" x="279.74" y="233.7" width="7.38" height="7.38"/><rect class="cls-41" x="291.36" y="233.7" width="7.38" height="7.38"/><rect class="cls-41" x="302.97" y="233.7" width="7.38" height="7.38"/><rect class="cls-41" x="314.58" y="233.7" width="7.38" height="7.38"/><rect class="cls-41" x="326.2" y="233.7" width="7.38" height="7.38"/><rect class="cls-41" x="337.81" y="233.7" width="7.38" height="7.38"/><rect class="cls-41" x="349.43" y="233.7" width="7.38" height="7.38"/><rect class="cls-41" x="361.04" y="233.7" width="7.38" height="7.38"/><rect class="cls-41" x="372.65" y="233.7" width="7.38" height="7.38"/><rect class="cls-41" x="279.74" y="222.14" width="7.38" height="7.38"/><rect class="cls-41" x="291.36" y="222.14" width="7.38" height="7.38"/><rect class="cls-41" x="302.97" y="222.14" width="7.38" height="7.38"/><rect class="cls-41" x="314.58" y="222.14" width="7.38" height="7.38"/><rect class="cls-41" x="326.2" y="222.14" width="7.38" height="7.38"/><rect class="cls-41" x="337.81" y="222.14" width="7.38" height="7.38"/><rect class="cls-41" x="349.43" y="222.14" width="7.38" height="7.38"/><rect class="cls-41" x="361.04" y="222.14" width="7.38" height="7.38"/><rect class="cls-41" x="372.65" y="222.14" width="7.38" height="7.38"/><rect class="cls-41" x="279.74" y="210.58" width="7.38" height="7.38"/><rect class="cls-41" x="291.36" y="210.58" width="7.38" height="7.38"/><rect class="cls-41" x="302.97" y="210.58" width="7.38" height="7.38"/><rect class="cls-41" x="314.58" y="210.58" width="7.38" height="7.38"/><rect class="cls-41" x="326.2" y="210.58" width="7.38" height="7.38"/><rect class="cls-41" x="337.81" y="210.58" width="7.38" height="7.38"/><rect class="cls-41" x="349.43" y="210.58" width="7.38" height="7.38"/><rect class="cls-41" x="361.04" y="210.58" width="7.38" height="7.38"/><rect class="cls-41" x="372.65" y="210.58" width="7.38" height="7.38"/><rect class="cls-41" x="279.74" y="199.02" width="7.38" height="7.38"/><rect class="cls-41" x="291.36" y="199.02" width="7.38" height="7.38"/><rect class="cls-41" x="302.97" y="199.02" width="7.38" height="7.38"/><rect class="cls-41" x="314.58" y="199.02" width="7.38" height="7.38"/><rect class="cls-41" x="326.2" y="199.02" width="7.38" height="7.38"/><rect class="cls-41" x="337.81" y="199.02" width="7.38" height="7.38"/><rect class="cls-41" x="349.43" y="199.02" width="7.38" height="7.38"/><rect class="cls-41" x="361.04" y="199.02" width="7.38" height="7.38"/><rect class="cls-41" x="372.65" y="199.02" width="7.38" height="7.38"/><rect class="cls-41" x="279.74" y="187.46" width="7.38" height="7.38"/><rect class="cls-41" x="291.36" y="187.46" width="7.38" height="7.38"/><rect class="cls-41" x="302.97" y="187.46" width="7.38" height="7.38"/><rect class="cls-41" x="314.58" y="187.46" width="7.38" height="7.38"/><rect class="cls-41" x="326.2" y="187.46" width="7.38" height="7.38"/><rect class="cls-41" x="337.81" y="187.46" width="7.38" height="7.38"/><rect class="cls-41" x="349.43" y="187.46" width="7.38" height="7.38"/><rect class="cls-41" x="361.04" y="187.46" width="7.38" height="7.38"/><rect class="cls-41" x="372.65" y="187.46" width="7.38" height="7.38"/><rect class="cls-41" x="279.74" y="175.9" width="7.38" height="7.38"/><rect class="cls-41" x="291.36" y="175.9" width="7.38" height="7.38"/><rect class="cls-41" x="302.97" y="175.9" width="7.38" height="7.38"/><rect class="cls-41" x="314.58" y="175.9" width="7.38" height="7.38"/><rect class="cls-41" x="326.2" y="175.9" width="7.38" height="7.38"/><rect class="cls-41" x="337.81" y="175.9" width="7.38" height="7.38"/><rect class="cls-41" x="349.43" y="175.9" width="7.38" height="7.38"/><rect class="cls-41" x="361.04" y="175.9" width="7.38" height="7.38"/><rect class="cls-41" x="372.65" y="175.9" width="7.38" height="7.38"/><rect class="cls-41" x="279.74" y="164.34" width="7.38" height="7.38"/><rect class="cls-41" x="291.36" y="164.34" width="7.38" height="7.38"/><rect class="cls-41" x="302.97" y="164.34" width="7.38" height="7.38"/><rect class="cls-41" x="314.58" y="164.34" width="7.38" height="7.38"/><rect class="cls-41" x="326.2" y="164.34" width="7.38" height="7.38"/><rect class="cls-41" x="337.81" y="164.34" width="7.38" height="7.38"/><rect class="cls-41" x="349.43" y="164.34" width="7.38" height="7.38"/><rect class="cls-41" x="361.04" y="164.34" width="7.38" height="7.38"/><rect class="cls-41" x="372.65" y="164.34" width="7.38" height="7.38"/><rect class="cls-41" x="279.74" y="152.78" width="7.38" height="7.38"/><rect class="cls-41" x="291.36" y="152.78" width="7.38" height="7.38"/><rect class="cls-41" x="302.97" y="152.78" width="7.38" height="7.38"/><rect class="cls-41" x="314.58" y="152.78" width="7.38" height="7.38"/><rect class="cls-41" x="326.2" y="152.78" width="7.38" height="7.38"/><rect class="cls-41" x="337.81" y="152.78" width="7.38" height="7.38"/><rect class="cls-41" x="349.43" y="152.78" width="7.38" height="7.38"/><rect class="cls-41" x="361.04" y="152.78" width="7.38" height="7.38"/><rect class="cls-41" x="372.65" y="152.78" width="7.38" height="7.38"/><rect class="cls-41" x="279.74" y="141.23" width="7.38" height="7.38"/><rect class="cls-41" x="291.36" y="141.23" width="7.38" height="7.38"/><rect class="cls-41" x="302.97" y="141.23" width="7.38" height="7.38"/><rect class="cls-41" x="314.58" y="141.23" width="7.38" height="7.38"/><rect class="cls-41" x="326.2" y="141.23" width="7.38" height="7.38"/><rect class="cls-41" x="337.81" y="141.23" width="7.38" height="7.38"/><rect class="cls-41" x="349.43" y="141.23" width="7.38" height="7.38"/><rect class="cls-41" x="361.04" y="141.23" width="7.38" height="7.38"/><rect class="cls-41" x="372.65" y="141.23" width="7.38" height="7.38"/><rect class="cls-41" x="279.74" y="129.67" width="7.38" height="7.38"/><rect class="cls-41" x="291.36" y="129.67" width="7.38" height="7.38"/><rect class="cls-41" x="302.97" y="129.67" width="7.38" height="7.38"/><rect class="cls-41" x="314.58" y="129.67" width="7.38" height="7.38"/><rect class="cls-41" x="326.2" y="129.67" width="7.38" height="7.38"/><rect class="cls-41" x="337.81" y="129.67" width="7.38" height="7.38"/><rect class="cls-41" x="349.43" y="129.67" width="7.38" height="7.38"/><rect class="cls-41" x="361.04" y="129.67" width="7.38" height="7.38"/><rect class="cls-41" x="372.65" y="129.67" width="7.38" height="7.38"/><rect class="cls-41" x="279.74" y="118.11" width="7.38" height="7.38"/><rect class="cls-41" x="291.36" y="118.11" width="7.38" height="7.38"/><rect class="cls-41" x="302.97" y="118.11" width="7.38" height="7.38"/><rect class="cls-41" x="314.58" y="118.11" width="7.38" height="7.38"/><rect class="cls-41" x="326.2" y="118.11" width="7.38" height="7.38"/><rect class="cls-41" x="337.81" y="118.11" width="7.38" height="7.38"/><rect class="cls-41" x="349.43" y="118.11" width="7.38" height="7.38"/><rect class="cls-41" x="361.04" y="118.11" width="7.38" height="7.38"/><rect class="cls-41" x="372.65" y="118.11" width="7.38" height="7.38"/><rect class="cls-41" x="279.74" y="106.55" width="7.38" height="7.38"/><rect class="cls-41" x="291.36" y="106.55" width="7.38" height="7.38"/><rect class="cls-41" x="302.97" y="106.55" width="7.38" height="7.38"/><rect class="cls-41" x="314.58" y="106.55" width="7.38" height="7.38"/><rect class="cls-41" x="326.2" y="106.55" width="7.38" height="7.38"/><rect class="cls-41" x="337.81" y="106.55" width="7.38" height="7.38"/><rect class="cls-41" x="349.43" y="106.55" width="7.38" height="7.38"/><rect class="cls-41" x="361.04" y="106.55" width="7.38" height="7.38"/><rect class="cls-41" x="372.65" y="106.55" width="7.38" height="7.38"/><rect class="cls-41" x="279.74" y="94.99" width="7.38" height="7.38"/><rect class="cls-41" x="291.36" y="94.99" width="7.38" height="7.38"/><rect class="cls-41" x="302.97" y="94.99" width="7.38" height="7.38"/><rect class="cls-41" x="314.58" y="94.99" width="7.38" height="7.38"/><rect class="cls-41" x="326.2" y="94.99" width="7.38" height="7.38"/><rect class="cls-41" x="337.81" y="94.99" width="7.38" height="7.38"/><rect class="cls-41" x="349.43" y="94.99" width="7.38" height="7.38"/><rect class="cls-41" x="361.04" y="94.99" width="7.38" height="7.38"/><rect class="cls-41" x="372.65" y="94.99" width="7.38" height="7.38"/><rect class="cls-41" x="279.74" y="83.43" width="7.38" height="7.38"/><rect class="cls-41" x="291.36" y="83.43" width="7.38" height="7.38"/><rect class="cls-41" x="302.97" y="83.43" width="7.38" height="7.38"/><rect class="cls-41" x="314.58" y="83.43" width="7.38" height="7.38"/><rect class="cls-41" x="326.2" y="83.43" width="7.38" height="7.38"/><rect class="cls-41" x="337.81" y="83.43" width="7.38" height="7.38"/><rect class="cls-41" x="349.43" y="83.43" width="7.38" height="7.38"/><rect class="cls-41" x="361.04" y="83.43" width="7.38" height="7.38"/><rect class="cls-41" x="372.65" y="83.43" width="7.38" height="7.38"/><rect class="cls-41" x="279.74" y="71.87" width="7.38" height="7.38"/><rect class="cls-41" x="291.36" y="71.87" width="7.38" height="7.38"/><rect class="cls-41" x="302.97" y="71.87" width="7.38" height="7.38"/><rect class="cls-41" x="314.58" y="71.87" width="7.38" height="7.38"/><rect class="cls-41" x="326.2" y="71.87" width="7.38" height="7.38"/><rect class="cls-41" x="337.81" y="71.87" width="7.38" height="7.38"/><rect class="cls-41" x="349.43" y="71.87" width="7.38" height="7.38"/><rect class="cls-41" x="361.04" y="71.87" width="7.38" height="7.38"/><rect class="cls-41" x="372.65" y="71.87" width="7.38" height="7.38"/><rect class="cls-41" x="279.74" y="60.31" width="7.38" height="7.38"/><rect class="cls-41" x="291.36" y="60.31" width="7.38" height="7.38"/><rect class="cls-41" x="302.97" y="60.31" width="7.38" height="7.38"/><rect class="cls-41" x="314.58" y="60.31" width="7.38" height="7.38"/><rect class="cls-41" x="326.2" y="60.31" width="7.38" height="7.38"/><rect class="cls-41" x="337.81" y="60.31" width="7.38" height="7.38"/><rect class="cls-41" x="349.43" y="60.31" width="7.38" height="7.38"/><rect class="cls-41" x="361.04" y="60.31" width="7.38" height="7.38"/><rect class="cls-41" x="372.65" y="60.31" width="7.38" height="7.38"/><rect class="cls-41" x="279.74" y="48.76" width="7.38" height="7.38"/><rect class="cls-41" x="291.36" y="48.76" width="7.38" height="7.38"/><rect class="cls-41" x="302.97" y="48.76" width="7.38" height="7.38"/><rect class="cls-41" x="314.58" y="48.76" width="7.38" height="7.38"/><rect class="cls-41" x="326.2" y="48.76" width="7.38" height="7.38"/><rect class="cls-41" x="337.81" y="48.76" width="7.38" height="7.38"/><rect class="cls-41" x="349.43" y="48.76" width="7.38" height="7.38"/><rect class="cls-41" x="361.04" y="48.76" width="7.38" height="7.38"/><rect class="cls-41" x="372.65" y="48.76" width="7.38" height="7.38"/><rect class="cls-41" x="279.74" y="37.2" width="7.38" height="7.38"/><rect class="cls-41" x="291.36" y="37.2" width="7.38" height="7.38"/><rect class="cls-41" x="302.97" y="37.2" width="7.38" height="7.38"/><rect class="cls-41" x="314.58" y="37.2" width="7.38" height="7.38"/><rect class="cls-41" x="326.2" y="37.2" width="7.38" height="7.38"/><rect class="cls-41" x="337.81" y="37.2" width="7.38" height="7.38"/><rect class="cls-41" x="349.43" y="37.2" width="7.38" height="7.38"/><rect class="cls-41" x="361.04" y="37.2" width="7.38" height="7.38"/><rect class="cls-41" x="372.65" y="37.2" width="7.38" height="7.38"/><rect class="cls-41" x="279.74" y="25.64" width="7.38" height="7.38"/><rect class="cls-41" x="291.36" y="25.64" width="7.38" height="7.38"/><rect class="cls-41" x="302.97" y="25.64" width="7.38" height="7.38"/><rect class="cls-41" x="314.58" y="25.64" width="7.38" height="7.38"/><rect class="cls-41" x="326.2" y="25.64" width="7.38" height="7.38"/><rect class="cls-41" x="337.81" y="25.64" width="7.38" height="7.38"/><rect class="cls-41" x="349.43" y="25.64" width="7.38" height="7.38"/><rect class="cls-41" x="361.04" y="25.64" width="7.38" height="7.38"/><rect class="cls-41" x="372.65" y="25.64" width="7.38" height="7.38"/><rect class="cls-41" x="279.74" y="14.08" width="7.38" height="7.38"/><rect class="cls-41" x="291.36" y="14.08" width="7.38" height="7.38"/><rect class="cls-41" x="302.97" y="14.08" width="7.38" height="7.38"/><rect class="cls-41" x="314.58" y="14.08" width="7.38" height="7.38"/><rect class="cls-41" x="326.2" y="14.08" width="7.38" height="7.38"/><rect class="cls-41" x="337.81" y="14.08" width="7.38" height="7.38"/><rect class="cls-41" x="349.43" y="14.08" width="7.38" height="7.38"/><rect class="cls-41" x="361.04" y="14.08" width="7.38" height="7.38"/><rect class="cls-41" x="372.65" y="14.08" width="7.38" height="7.38"/><rect class="cls-40" x="298.74" width="62.3" height="10.26"/><rect class="cls-42" x="35.56" y="279.62" width="230.59" height="35.11"/><rect class="cls-43" x="32.81" y="274.18" width="235.95" height="5.44"/><rect class="cls-44" x="32.81" y="270.22" width="235.95" height="3.96"/><rect class="cls-45" x="121.19" y="265.86" width="59.22" height="4.37"/><polygon class="cls-46" points="123.28 279.62 151.77 266.62 180.41 279.62 123.28 279.62"/><rect class="cls-43" x="126.33" y="256.5" width="49.55" height="9.36"/><rect class="cls-46" x="130" y="236.13" width="40.74" height="20.37"/><path class="cls-44" d="M130,236.13s2.39-20.74,20.37-20.74,20.37,20.74,20.37,20.74"/><polyline class="cls-47" points="144.9 216.16 144.9 200.16 155.85 200.16 155.85 216.16"/><rect class="cls-48" x="129.5" y="286.4" width="44.21" height="28.32"/><path class="cls-44" d="M144.9,200.15s-.18-8.44,5.47-8.44,5.47,8.44,5.47,8.44"/><rect class="cls-44" x="125.33" y="279.62" width="52.54" height="6.78"/><rect class="cls-44" x="125.33" y="286.4" width="4.17" height="28.32"/><rect class="cls-44" x="135.01" y="286.4" width="4.17" height="28.32"/><rect class="cls-44" x="144.68" y="286.4" width="4.17" height="28.32"/><rect class="cls-44" x="154.36" y="286.4" width="4.17" height="28.32"/><rect class="cls-44" x="164.04" y="286.4" width="4.17" height="28.32"/><rect class="cls-44" x="173.71" y="286.4" width="4.17" height="28.32"/><rect class="cls-49" x="35.56" y="314.73" width="230.59" height="10.82"/><rect class="cls-50" x="125.33" y="314.73" width="52.54" height="10.82"/><rect x="46.27" y="284.74" width="4.08" height="6.19"/><rect x="56.65" y="284.74" width="4.08" height="6.19"/><rect x="67.02" y="284.74" width="4.08" height="6.19"/><rect x="80.61" y="284.74" width="3.41" height="5.19"/><rect x="89.29" y="284.74" width="3.41" height="5.19"/><rect x="97.96" y="284.74" width="3.41" height="5.19"/><rect x="80.61" y="294.58" width="3.41" height="5.19"/><rect x="89.29" y="294.58" width="3.41" height="5.19"/><rect x="97.96" y="294.58" width="3.41" height="5.19"/><rect x="97.96" y="294.58" width="3.41" height="5.19"/><rect x="106.63" y="294.58" width="3.41" height="5.19"/><rect x="115.3" y="294.58" width="3.41" height="5.19"/><rect x="97.96" y="284.74" width="3.41" height="5.19"/><rect x="106.63" y="284.74" width="3.41" height="5.19"/><rect x="115.3" y="284.74" width="3.41" height="5.19"/><rect x="80.61" y="294.58" width="3.41" height="5.19"/><rect x="89.29" y="294.58" width="3.41" height="5.19"/><rect x="97.96" y="294.58" width="3.41" height="5.19"/><rect x="80.61" y="304.41" width="3.41" height="5.19"/><rect x="89.29" y="304.41" width="3.41" height="5.19"/><rect x="97.96" y="304.41" width="3.41" height="5.19"/><rect x="97.96" y="304.41" width="3.41" height="5.19"/><rect x="106.63" y="304.41" width="3.41" height="5.19"/><rect x="115.3" y="304.41" width="3.41" height="5.19"/><rect x="97.96" y="294.58" width="3.41" height="5.19"/><rect x="106.63" y="294.58" width="3.41" height="5.19"/><rect x="115.3" y="294.58" width="3.41" height="5.19"/><rect x="182.77" y="284.74" width="3.41" height="5.19"/><rect x="191.45" y="284.74" width="3.41" height="5.19"/><rect x="200.12" y="284.74" width="3.41" height="5.19"/><rect x="182.77" y="294.58" width="3.41" height="5.19"/><rect x="191.45" y="294.58" width="3.41" height="5.19"/><rect x="200.12" y="294.58" width="3.41" height="5.19"/><rect x="200.12" y="294.58" width="3.41" height="5.19"/><rect x="208.79" y="294.58" width="3.41" height="5.19"/><rect x="217.46" y="294.58" width="3.41" height="5.19"/><rect x="200.12" y="284.74" width="3.41" height="5.19"/><rect x="208.79" y="284.74" width="3.41" height="5.19"/><rect x="217.46" y="284.74" width="3.41" height="5.19"/><rect x="182.77" y="294.82" width="3.41" height="5.19"/><rect x="191.45" y="294.82" width="3.41" height="5.19"/><rect x="200.12" y="294.82" width="3.41" height="5.19"/><rect x="182.77" y="304.65" width="3.41" height="5.19"/><rect x="191.45" y="304.65" width="3.41" height="5.19"/><rect x="200.12" y="304.65" width="3.41" height="5.19"/><rect x="200.12" y="304.65" width="3.41" height="5.19"/><rect x="208.79" y="304.65" width="3.41" height="5.19"/><rect x="217.46" y="304.65" width="3.41" height="5.19"/><rect x="200.12" y="294.82" width="3.41" height="5.19"/><rect x="208.79" y="294.82" width="3.41" height="5.19"/><rect x="217.46" y="294.82" width="3.41" height="5.19"/><rect x="46.27" y="295" width="4.08" height="6.19"/><rect x="56.65" y="295" width="4.08" height="6.19"/><rect x="67.02" y="295" width="4.08" height="6.19"/><rect x="231.11" y="283.49" width="4.08" height="6.19"/><rect x="241.49" y="283.49" width="4.08" height="6.19"/><rect x="251.86" y="283.49" width="4.08" height="6.19"/><rect x="231.11" y="293.74" width="4.08" height="6.19"/><rect x="241.49" y="293.74" width="4.08" height="6.19"/><rect x="251.86" y="293.74" width="4.08" height="6.19"/><path d="M135,252.75v-8.36s-.07-2.3,1.18-2.3c1.4,0,1.4,2.13,1.4,2.13v8.54Z"/><path d="M147.78,252.75v-8.36a2.12,2.12,0,0,1,2.15-2.3c2.57,0,2.57,2.13,2.57,2.13v8.54Z"/><path d="M162.49,252.75v-8.36s-.07-2.3,1.18-2.3c1.4,0,1.4,2.13,1.4,2.13v8.54Z"/><rect x="146.51" y="202.32" width="1.47" height="9.84" rx="0.73" ry="0.73"/><rect x="149.64" y="202.32" width="1.47" height="9.84" rx="0.73" ry="0.73"/><rect x="152.76" y="202.32" width="1.47" height="9.84" rx="0.73" ry="0.73"/><rect class="cls-44" x="149.78" y="188.36" width="1.19" height="7.48"/><polygon class="cls-44" points="123.28 279.62 124.25 276.9 151.22 264.71 180.41 276.9 180.41 279.62 151.77 266.62 123.28 279.62"/><path class="cls-51" d="M31.39,300s-18.56,19.47,0,19.47"/><path class="cls-52" d="M31.39,300s18.56,19.47,0,19.47"/><line class="cls-53" x1="31.39" y1="325.69" x2="31.39" y2="319.48"/><path class="cls-52" d="M48.31,297.17s-13,8.08,0,17"/><path class="cls-51" d="M48.31,297.17s13,8.08,0,17"/><line class="cls-54" x1="48.31" y1="326.44" x2="48.31" y2="314.22"/><circle class="cls-55" cx="65.55" cy="310.05" r="8.57"/><path class="cls-56" d="M65.55,301.48a8.57,8.57,0,0,1,0,17.13"/><line class="cls-53" x1="65.55" y1="327.97" x2="65.55" y2="318.61"/><path class="cls-57" d="M511.56,234.62s-16.62-8-22.26-13.42-13.57-6.63-15.35-5.35-5.46,2.83-1.29,20.24S517,255.84,517,255.84l-1.25-19Z"/><polygon class="cls-58" points="519.91 266.55 509.14 237.18 446.19 241.77 444.66 275.25 462.26 283.19 519.91 266.55"/><polygon class="cls-59" points="465.6 243.17 483.3 269.3 519.91 266.55 509.14 237.18 492.76 239.84 470.24 238.56 465.6 243.17"/><polygon class="cls-60" points="541.55 318.06 543.81 324.51 548.74 324.51 548.74 325.96 530.32 326.39 530.32 319.5 540.59 316.92 541.55 318.06"/><path class="cls-61" d="M530.32,319.5s3.29,3.64,5.95,3,3.44-2.7,4.33-5.56-7.18-21.65-7.18-21.65l-8.16,4Z"/><path class="cls-62" d="M444.66,275.25l-2.13,29.89s0,1.84,4.31-.22,30.34-10.54,35.14-10.7l20.79-22.15s7.63,0,16.68,7.26,11.73,20.86,14.85,29.47,6.18,10,10.19,8.86l23.73-47.5s-2.74-1.54-11,1.53-16.59,6.39-26.65.79-15.27-9.65-24.79-9.73a61.94,61.94,0,0,0-29.32,7.16c-10,5.15-16.25,7-22.79,8.3S444.66,275.25,444.66,275.25Z"/><path class="cls-58" d="M415.78,325.76l4.56-27.1,23.09-6.05-.89,12.54s.12,2,6.35-1.07,30.37-9.74,33.1-9.85l20.79-22.15a33.4,33.4,0,0,1,18.78,9s6,4.64,9.72,18.47l-1,26.84Z"/><path class="cls-57" d="M459.33,276.68s-6.32-4.23-12.48-3.25,1.29,4.41,2.57,4.6S457,278,459.33,276.68Z"/><path class="cls-63" d="M425.44,243.17v46.76l18,2.67,1.16-18.3a2.24,2.24,0,0,1,1.6-1V252.55L443,247.83Z"/><path class="cls-64" d="M425.44,243.17v46.76l-12.62,8.19V262.23Zm-3.52,15.45-4.56,5v7.52l4.69-5Z"/><polygon class="cls-60" points="425.44 289.93 412.82 298.12 420.34 298.66 443.43 292.6 425.44 289.93"/><path class="cls-64" d="M456.68,265.78,469,262.1s-10.61-10.14-6.71-17.48,25.44-8.66,30.89-8,20.13,2.17,16.26,12.54c0,0,6.67-12.58-15.34-14a89.77,89.77,0,0,0-26.42,1.9c-14.69,3.22-20,3-24.45,4.35s-.52,6.26,5.51,14.46S456.68,265.78,456.68,265.78Z"/><path class="cls-64" d="M533.83,274s4.11-6.49,1.88-16.76-6.52-14.07-6.52-14.07l-17.64-8.57s5,1.82,4.18,19.68l4.18,12.24Z"/><path class="cls-57" d="M469,262.1s-10.38-9.65-6.71-17.48c3.26-6.93,23.19-8.3,27-8.17s14.42.31,18.76,5a7.27,7.27,0,0,1,1.35,7.71s-20.28-9.05-34.2-8.12S461.54,253.54,469,262.1Z"/><path class="cls-58" d="M541.55,318.06l2.26,6.45h4.92V326l6.59-.26V315.27l15.11.94.09,10.56h5.61v-9.93l8.22.39V294.56l-24.46-7.77-9.06,18.13-6.36,12.74A3.86,3.86,0,0,1,541.55,318.06Z"/><polygon class="cls-60" points="570.53 326.77 568.22 327.36 555.32 325.71 555.32 315.27 570.44 316.21 570.53 326.77"/><polygon class="cls-60" points="576.15 316.83 584.37 317.23 584.37 311.36 595 311.23 594.72 329.51 587.61 329.51 586.66 327.36 583.66 327.36 576.22 327.53 576.15 316.83"/><polygon class="cls-58" points="584.37 311.36 595.69 311.36 595.69 299.21 588.19 296.79 584.32 297.4 584.37 311.36"/><path class="cls-59" d="M502.78,272.07l-4.4,54.32h31.94l1-26.84S526.89,275.31,502.78,272.07Z"/><path class="cls-60" d="M442.53,293.06l-4.89,32.4,8.54-.55,0-19.71s-3.79,1.53-3.7-.06.89-12.54.89-12.54Z"/><g class="cls-65"><polyline class="cls-66" points="477.18 295.17 491.11 324.9 497.77 324.94 498.52 315.41 485.68 290.37 493.51 281.99 500.13 294.87 500.52 289.93 465.78 324.9 470.91 324.87 472.37 324.94 499.83 298.66 499.16 307.3 480.47 324.9 468.14 297.64"/><polyline class="cls-66" points="488.19 324.92 498.52 315.41 501.2 281.21 461.54 322.46 461.17 316.61 461.63 324.92 465.78 324.9"/><polyline class="cls-66" points="466.12 298.26 460.39 305.13 446.19 307.2 446.19 324.94 456.15 324.94 456.7 301.37 450.76 303.47 450.61 324.94 461.63 324.92 461.54 322.46 446.19 322.93 446.19 317.38 461.17 316.61 460.78 310.78 474.41 295.85"/><line class="cls-66" x1="470.91" y1="324.87" x2="460.3" y2="300.15"/><line class="cls-66" x1="460.04" y1="300.39" x2="460.77" y2="311.28"/><line class="cls-66" x1="446.19" y1="305.2" x2="446.19" y2="308.51"/><line class="cls-66" x1="466.41" y1="244.22" x2="481.99" y2="267.47"/><line class="cls-66" x1="472.46" y1="241.32" x2="484.13" y2="266.55"/><line class="cls-66" x1="477.31" y1="240.94" x2="489.3" y2="264.76"/><line class="cls-66" x1="481.99" y1="241.2" x2="494.06" y2="263.7"/><line class="cls-66" x1="499.05" y1="263.09" x2="487.24" y2="242.01"/><line class="cls-66" x1="493.15" y1="243.39" x2="504.52" y2="262.95"/><line class="cls-66" x1="499.6" y1="245.34" x2="510.49" y2="263.43"/><polyline class="cls-66" points="505.05 247.32 515.2 264.39 519.18 264.39"/><polyline class="cls-66" points="496.93 244.48 467.16 245.34 464.02 249.69"/><polyline class="cls-66" points="505.77 247.6 469.31 248.55 464.61 254.84"/><path class="cls-66" d="M472.46,271.7l6.6-8.61,38.69-2.88-1.18-3.46-40.11,2.46-2.26-3.36,41-2.22-.7-2.63a.69.69,0,0,0-.7-.51l-41.88,2-5.51,6.66"/><polyline class="cls-66" points="515.73 254.31 509.14 237.5 508.13 239.56"/><polyline class="cls-66" points="510.12 247.32 512.99 247.32 511.93 244.63 510.49 244.63"/><line class="cls-66" x1="510.81" y1="241.77" x2="509.86" y2="241.77"/><line class="cls-66" x1="509.14" y1="237.18" x2="505.33" y2="237.79"/><polyline class="cls-66" points="503.73 272.18 499.6 324.87 497.77 324.94"/><polyline class="cls-66" points="511.93 274.65 510.94 307.27 520.62 307.7 521.78 281.27"/><polyline class="cls-66" points="501.47 300.94 531.22 302.56 530.32 326.39 527.29 326.39 529.46 294.56 530.2 296.6 501.97 294.56 501.5 325.1 502.88 325.27 502.87 308.95"/><line class="cls-66" x1="502.5" y1="287.82" x2="527.56" y2="289.93"/><line class="cls-66" x1="503.02" y1="281.21" x2="523.6" y2="283.19"/><polygon class="cls-66" points="501.77 307.2 528.53 308.12 528.42 309.73 501.75 308.92 501.77 307.2"/><line class="cls-67" x1="531.22" y1="302.56" x2="531.22" y2="299.54"/><line class="cls-67" x1="464.2" y1="248.55" x2="475.53" y2="270.33"/><polyline class="cls-66" points="466.41 274.3 461.62 264.3 457.13 270.33"/><line class="cls-67" x1="458.26" y1="276.15" x2="474.2" y2="255.84"/><line class="cls-67" x1="476.45" y1="259.21" x2="464.02" y2="275.25"/><line class="cls-66" x1="446.19" y1="272.96" x2="446.19" y2="252.55"/><polyline class="cls-66" points="446.19 270.58 456.68 265.78 457.69 275.87"/><line class="cls-66" x1="446.19" y1="265.78" x2="453.66" y2="262.1"/><line class="cls-66" x1="446.19" y1="260.36" x2="450.31" y2="257.91"/><line class="cls-66" x1="457.13" y1="270.33" x2="450.31" y2="273.42"/><line class="cls-66" x1="450.87" y1="273.42" x2="450.87" y2="258.62"/><polyline class="cls-66" points="446.19 324.94 438.99 325.69 442.54 305.14"/><line class="cls-66" x1="442.53" y1="292.6" x2="437.65" y2="325.69"/><line class="cls-66" x1="432.91" y1="325.69" x2="437.65" y2="294.22"/><line class="cls-66" x1="432.91" y1="295.43" x2="428.59" y2="325.76"/><line class="cls-66" x1="429.24" y1="296.38" x2="424.58" y2="325.69"/><line class="cls-66" x1="420.98" y1="325.76" x2="425.44" y2="297.35"/><line class="cls-66" x1="422.44" y1="298.12" x2="417.79" y2="325.76"/><polyline class="cls-66" points="416.12 323.7 439.33 323.7 441.71 323.7"/><polyline class="cls-66" points="416.92 318.94 438.81 317.85 440.34 317.85 441.32 312.2 417.67 314.49 418.33 310.6 442.24 306.85 446.19 307.2"/><line class="cls-66" x1="418.96" y1="306.85" x2="442.53" y2="301.81"/><line class="cls-66" x1="419.81" y1="301.81" x2="443.2" y2="295.85"/><line class="cls-66" x1="440.34" y1="317.85" x2="446.19" y2="317.85"/><polyline class="cls-66" points="441.32 312.2 446.19 312.2 460.78 310.78"/><line class="cls-66" x1="444.78" y1="323.11" x2="446.19" y2="322.93"/><polyline class="cls-66" points="528.53 308.12 531.01 308.12 530.8 313.71 528.15 313.71 527.76 319.5 530.58 319.5"/><polyline class="cls-66" points="541.55 318.06 543.81 324.51 530.39 324.51"/><polyline class="cls-66" points="532.4 321.28 533.71 324.51 533.71 326.19"/><polyline class="cls-66" points="546.92 324.51 546.92 325.96 548.74 325.96 548.74 324.51 543.81 324.51"/><polyline class="cls-66" points="544.76 326.06 544.76 324.51 542.24 324.51 542.24 326.06 538.8 326.19 538.8 324.51 538.03 321.72"/><polyline class="cls-66" points="498.37 326.39 498.43 324.92 502.87 325.24 502.87 326.39 438.99 325.69 415.78 325.76"/><line class="cls-68" x1="500.02" y1="319.5" x2="502.88" y2="319.5"/><line class="cls-68" x1="500.52" y1="313.12" x2="528.15" y2="313.71"/><polygon class="cls-66" points="508.06 309.11 508.06 326.39 509.74 326.39 509.93 309.11 508.06 309.11"/><polygon class="cls-66" points="519.46 309.45 519.88 326.39 521.56 326.39 521.14 309.45 519.46 309.45"/><polyline class="cls-66" points="525.86 309.73 526.04 326.39 527.29 326.39 527.76 319.5 525.86 319.5"/><line class="cls-66" x1="502.87" y1="321.72" x2="525.99" y2="321.72"/></g><polygon class="cls-69" points="276.17 143.65 210.09 190.37 210.09 324.89 276.17 324.89 276.17 143.65"/><line class="cls-70" x1="210.09" y1="195.97" x2="276.17" y2="195.97"/><line class="cls-70" x1="210.09" y1="204.07" x2="276.17" y2="204.07"/><line class="cls-70" x1="210.09" y1="212.16" x2="276.17" y2="212.16"/><line class="cls-70" x1="210.09" y1="220.26" x2="276.17" y2="220.26"/><line class="cls-70" x1="210.09" y1="228.36" x2="276.17" y2="228.36"/><line class="cls-70" x1="210.09" y1="236.45" x2="276.17" y2="236.45"/><line class="cls-70" x1="210.09" y1="244.55" x2="276.17" y2="244.55"/><line class="cls-70" x1="210.09" y1="252.65" x2="276.17" y2="252.65"/><line class="cls-70" x1="210.09" y1="260.74" x2="276.17" y2="260.74"/><line class="cls-70" x1="210.09" y1="268.84" x2="276.17" y2="268.84"/><line class="cls-70" x1="210.09" y1="276.94" x2="276.17" y2="276.94"/><line class="cls-70" x1="210.09" y1="285.03" x2="276.17" y2="285.03"/><line class="cls-70" x1="210.09" y1="293.13" x2="276.17" y2="293.13"/><line class="cls-70" x1="210.09" y1="301.23" x2="276.17" y2="301.23"/><line class="cls-70" x1="210.09" y1="309.32" x2="276.17" y2="309.32"/><line class="cls-70" x1="210.09" y1="317.42" x2="276.17" y2="317.42"/><line class="cls-70" x1="276.17" y1="325.52" x2="210.09" y2="325.52"/><polygon class="cls-71" points="276.17 143.65 266.35 150.6 266.35 328.54 276.17 328.54 276.17 143.65"/></g></g></svg>