<?xml version="1.0" encoding="utf-8"?>
<!-- Generator: Adobe Illustrator 21.0.2, SVG Export Plug-In . SVG Version: 6.00 Build 0)  -->
<svg version="1.1" id="Layer_1" xmlns="http://www.w3.org/2000/svg" xmlns:xlink="http://www.w3.org/1999/xlink" x="0px" y="0px"
	 viewBox="0 0 2747.3 1270.4" style="enable-background:new 0 0 2747.3 1270.4;" xml:space="preserve">
<style type="text/css">
	.st0{clip-path:url(#SVGID_2_);}
	.st1{fill:#2DA454;}
	.st2{fill:#58595B;}
	.st3{fill:#CECFD1;}
	.st4{fill:#FFFFFF;}
	.st5{fill:#E5E6E7;}
	.st6{fill:#BDBFC1;}
	.st7{fill:#F0F0F1;}
	.st8{fill:#D0D2D3;}
	.st9{fill:#DBDCDD;}
	.st10{fill:#B7B9BB;}
	.st11{fill:#C8CACB;}
	.st12{fill:#D2D3D5;}
	.st13{fill:#C9CACC;}
	.st14{fill:#754C28;}
	.st15{fill:#3B2314;}
	.st16{fill:#3E9C4C;}
	.st17{fill:#8BC53F;}
	.st18{fill:#20814A;}
	.st19{fill:#603813;}
	.st20{fill:#6A7A83;}
	.st21{fill:#F1F1F2;}
	.st22{fill:none;stroke:#F1F1F2;stroke-width:2;stroke-miterlimit:10;}
	.st23{opacity:0.6;}
	.st24{fill:#394241;}
	.st25{fill:#393532;}
	.st26{fill:#A88F72;}
	.st27{fill:#C3B199;}
	.st28{fill:#E9EAE4;}
	.st29{fill:#995925;}
	.st30{fill:#312730;}
	.st31{fill:#E6E7E1;}
	.st32{fill:#312730;stroke:#774743;stroke-miterlimit:10;}
	.st33{fill:none;stroke:#774743;stroke-miterlimit:10;}
	.st34{fill:#552F2D;}
	.st35{fill:#5D3A36;}
	.st36{fill:#37B34A;}
	.st37{fill:#E099C2;}
	.st38{fill:#88576E;}
	.st39{fill:#5C3D44;}
	.st40{fill:#896A70;}
	.st41{fill:#8B5373;}
	.st42{fill:#9B6385;}
	.st43{fill:#A86E93;}
	.st44{fill:#C689B0;}
	.st45{fill:#CD83B4;}
	.st46{fill:#237A34;}
	.st47{fill:#56646C;}
	.st48{fill:#323031;}
	.st49{fill:#A19C88;}
	.st50{fill:#362923;}
	.st51{fill:#A6A8AB;}
	.st52{fill:#929497;}
	.st53{fill:none;stroke:#D0D2D3;stroke-miterlimit:10;}
	.st54{fill:#AAA9A4;}
	.st55{fill:#E2DDDA;}
	.st56{fill:#868080;}
	.st57{opacity:0.7;fill:none;stroke:#FFFFFF;stroke-width:3;stroke-miterlimit:10;stroke-dasharray:22;enable-background:new    ;}
	.st58{fill:#51322F;}
	.st59{fill:#A0676E;}
	.st60{fill:#623C30;}
	.st61{fill:#AB6D70;}
	.st62{fill:#D1D6D6;}
	.st63{fill:#303136;}
	.st64{opacity:0.6;fill:#F1F1F2;enable-background:new    ;}
	.st65{fill:#55514E;}
	.st66{fill:#8B7B66;}
	.st67{fill:#6F7261;}
	.st68{fill:#808171;}
	.st69{fill:#5A614F;}
	.st70{fill:#E1DFD3;}
	.st71{fill:#99BED8;}
	.st72{fill:#DDDED6;}
	.st73{fill:#D56A27;}
	.st74{fill:#404041;stroke:#DDDED6;stroke-miterlimit:10;}
	.st75{fill:#D56923;}
	.st76{fill:#C2BDA9;}
	.st77{fill:#8D6E57;}
	.st78{fill:#B8BBB2;}
	.st79{fill:#5D3923;}
	.st80{fill:#9D856D;}
	.st81{fill:#E77826;}
	.st82{fill:#E6E7E8;stroke:#E6E7E8;stroke-width:2;stroke-miterlimit:10;}
	.st83{fill:#909789;}
	.st84{fill:#FFFFFF;stroke:#FFFFFF;stroke-width:2;stroke-miterlimit:10;}
	.st85{fill:#335FAB;}
	.st86{fill:#DADDE4;}
	.st87{fill:#262839;}
	.st88{fill:#99A0A6;}
	.st89{fill:#8CAFCC;}
	.st90{fill:#404041;}
	.st91{fill:#FAAF40;}
</style>
<g>
	<g>
		<defs>
			<rect id="SVGID_1_" x="-1.5" y="294" width="2650.8" height="979.9"/>
		</defs>
		<clipPath id="SVGID_2_">
			<use xlink:href="#SVGID_1_"  style="overflow:visible;"/>
		</clipPath>
		<g class="st0">
			<path class="st1" d="M-236.5,993.4H1683c0,0,520.4-6.9,861.5,292.9s-2750,117.2-2750,117.2L-236.5,993.4z"/>
			<g>
				<path class="st2" d="M1685.9,1108.6c13.8,0,139.2,1,297.9,36.2c89.3,19.8,172.8,46.8,248.3,80.1c50,22.1,96.6,47.2,139.4,74.8
					c-55.1,9.6-125.2,17.8-208.8,24.2c-165.1,12.8-384.3,19.3-651.6,19.3c-622.8,0-1347.7-35.4-1609.3-49.3l-14-185.4H1684h0.5
					C1684.7,1108.6,1685.2,1108.6,1685.9,1108.6 M1685.9,1053.6c-1,0-1.7,0-2.1,0h-0.1h-0.1h-0.1H-112.3h-59.3l4.5,59.1l14,185.4
					l3.6,48.2l48.3,2.6c278.6,14.9,993.3,49.4,1612.2,49.4c268.7,0,489.4-6.6,655.9-19.5c85.3-6.6,157.3-15,214-24.9l138.2-24.1
					l-117.8-76.2c-45.1-29.2-94.6-55.8-147-79c-78.8-34.8-165.8-62.9-258.6-83.5C1831.3,1054.6,1700.3,1053.6,1685.9,1053.6
					L1685.9,1053.6z"/>
			</g>
			<polyline class="st3" points="1001.9,525.5 1000.2,525.5 975.4,525.5 975.4,525.5 949.1,525.5 948.9,525.5 948.8,525.7 
				916.5,546.9 916.5,559.4 906.6,559.4 906.6,783.3 1066,783.3 1066,604.5 1055.7,604.5 1055.7,559.4 1036.8,559.4 1036.8,542.5 
				1002.1,526.4 1001.9,525.5 			"/>
			<path class="st4" d="M847.8,437L847.8,437L847.8,437c-4.8-0.4-9.7-0.6-14.6-0.7h-0.6l0,0c-0.9,0-1.9,0-2.8,0
				c-2.1,0-4.2,0-6.3,0.1h-0.1c-2.6,0.1-5.2,0.2-7.8,0.4h-0.1c-3,0.2-6,0.4-9,0.7l0,0h-0.2c-4.1,0.4-8.1,0.9-12,1.4l-1,0.1
				c-4.1,0.6-8,1.2-11.8,1.8h-0.1c-2.9,0.5-5.7,1-8.3,1.5l0,0l-0.6,0.1c-0.2,0-0.5,0.1-0.7,0.1h-0.1c-3.2,0.6-6.2,1.2-8.9,1.8l0,0
				l0,0c-0.8,0.2-1.6,0.3-2.3,0.5l0,0c-8.2,1.8-13.3,3.3-13.3,3.3v405.6h13.3h2.4h8.9h1.4h8.3h6.4h5h1.4h8.5h3.6h9h8h9.1h15.2h8.1
				H871h8.5h27V448.1C906.5,448.1,880.3,439.6,847.8,437"/>
			<path class="st5" d="M906.6,783.3L906.6,783.3v70.5l0,0V783.3 M832.6,436.3L832.6,436.3h0.6c4.9,0.1,9.8,0.3,14.6,0.7l0,0l0,0
				c32.5,2.6,58.7,11.1,58.7,11.1v111.2l0,0V448.1c0,0-26.3-8.5-58.8-11.1l0,0l0,0c-4.7-0.4-9.6-0.6-14.6-0.7H832.6"/>
			<polyline class="st6" points="906.6,559.4 906.5,559.4 906.5,783.3 906.6,783.3 906.6,559.4 			"/>
			<path class="st5" d="M806.5,437.4L806.5,437.4L806.5,437.4L806.5,437.4L806.5,437.4 M829.8,436.3L829.8,436.3c0.9,0,1.9,0,2.8,0
				l0,0C831.7,436.3,830.7,436.3,829.8,436.3"/>
			<path class="st5" d="M829.8,436.3c-2.1,0-4.2,0-6.3,0.1h-0.1c-2.6,0.1-5.2,0.2-7.8,0.4h-0.1c-3,0.2-6,0.4-9,0.7l0,0l0,0l0,0h-0.2
				c-4.1,0.4-8.1,0.9-12,1.4l-1,0.1c-4.1,0.6-8,1.2-11.8,1.8h-0.1c-2.9,0.5-5.7,1-8.3,1.5l0,0l-0.6,0.1c-0.2,0-0.5,0.1-0.7,0.1h-0.1
				c-3.2,0.6-6.2,1.2-8.9,1.8l0,0l0,0c-0.8,0.2-1.6,0.3-2.3,0.5l0,0c-8.2,1.8-13.3,3.3-13.3,3.3v405.6h13.3h2.4h8.9h1.4h8.3h6.4h5
				h1.4h8.5h3.6h9h8h9.1h15.2h8.1H871h8.5h27v-70.5V559.4V448.1c0,0-26.3-8.5-58.7-11.1l0,0l0,0c-4.7-0.4-9.6-0.6-14.6-0.7h-0.6l0,0
				l0,0l0,0C831.7,436.3,830.7,436.3,829.8,436.3"/>
			<polyline class="st4" points="714.1,392.2 714.1,377.2 623,377.2 623,392.2 589.9,392.2 589.9,854 747.2,854 747.2,392.2 
				714.1,392.2 			"/>
			<polyline class="st7" points="714,376.9 622.9,376.9 622.9,391.9 589.9,391.9 589.9,751.1 589.9,751.1 589.9,392.2 623,392.2 
				623,377.2 714,377.2 714,376.9 			"/>
			<polyline class="st7" points="747.1,391.9 714.1,391.9 714.1,392.2 747.1,392.2 747.1,391.9 			"/>
			<polyline class="st7" points="714,377.2 623,377.2 623,392.2 589.9,392.2 589.9,751.1 589.9,751.1 589.9,853.7 747.1,853.7 
				747.1,392.2 714.1,392.2 714.1,391.9 714,391.9 714,377.2 			"/>
			<polyline class="st4" points="559.3,524.3 480.7,590.3 480.7,887.3 559.3,813.5 573,813.5 573,512.8 559.3,524.3 			"/>
			<polyline class="st7" points="1360.2,579.8 1244.6,579.8 1244.6,639.4 1257.3,639.4 1257.3,656.7 1276.7,656.7 1276.7,677.4 
				1295.5,677.4 1295.5,841.8 1295.4,841.8 1295.4,841.9 1244.6,841.9 1244.6,945.9 1360.2,945.9 1360.2,579.8 			"/>
			<polyline class="st7" points="247.5,552.7 242.8,552.7 242.8,579.7 215.8,579.7 215.8,552.7 210.3,552.7 210.3,579.7 
				192.6,579.7 192.6,601.3 172.3,601.3 172.3,751.1 277.9,751.1 277.9,601.3 260.8,601.3 260.8,579.7 247.5,579.7 247.5,552.7 			
				"/>
			<polyline class="st4" points="157.4,535.6 157.4,515 146.5,515 146.5,500.8 89.7,500.8 89.7,515 78.3,515 78.3,535.6 62.9,535.6 
				62.9,994.7 172.3,994.7 172.3,535.6 157.4,535.6 			"/>
			<path class="st8" d="M172.3,535.6h-14.9l0,0H172.3L172.3,535.6 M157.4,515h-10.9l0,0H157.4L157.4,515 M146.5,500.8H89.6V515H78.3
				v20.6H62.9v459.2l0,0V535.6h15.4V515h11.4v-14.2H146.5L146.5,500.8"/>
			<polyline class="st8" points="146.5,500.8 89.7,500.8 89.7,515 78.3,515 78.3,535.6 62.9,535.6 62.9,994.7 172.3,994.7 
				172.3,919.3 120,919.3 120,919.3 120,848.3 120,771.6 114,771.6 114,759.7 114,751.1 114,751.1 172.3,751.1 172.3,535.6 
				157.4,535.6 157.4,535.6 157.4,535.6 157.4,515 146.5,515 146.5,515 146.5,515 146.5,500.8 			"/>
			<path class="st4" d="M436.6,751.1v-9.5h-9.9v-20.5h-11.2v-44.5c0,0-4.1-35.7-32.6-43.7v-15.7c0,0,0.4-21.5-10.7-22.8v-7h-2.6v7.3
				c-11,1.3-10.7,20.7-10.7,20.7V633c-28.4,8-32.6,43.7-32.6,43.7v44.5h-8v20.5h-11.2v9.5H114v8.6v11.9h6v76.7v71h196.2H431h193v-71
				v-76.7h5.7v-11.9v-8.6L436.6,751.1"/>
			<path class="st9" d="M307.2,741.5L307.2,741.5v9.5l0,0V741.5 M318.4,721.1L318.4,721.1v20.4l0,0V721.1 M326.4,676.5
				C326.4,676.6,326.4,676.6,326.4,676.5V721l0,0V676.5 M359.6,608c-0.7,4-0.6,7.2-0.6,7.2v17.6l0,0v-17.6
				C359,615.2,358.9,611.9,359.6,608 M369.6,587.2v7.2l0,0V587.2L369.6,587.2"/>
			<polyline class="st10" points="147.6,751.1 147.6,751.1 147.6,759.7 147.6,771.6 153.6,771.6 153.6,848.3 153.6,919.3 
				153.6,848.3 153.6,771.6 147.6,771.6 147.6,759.7 147.6,751.1 			"/>
			<path class="st9" d="M369.6,587.2v7.2l0,0l0,0c-6.5,0.7-9,7.8-10,13.5c-0.7,3.9-0.6,7.2-0.6,7.2v17.6l0,0l0,0
				c-28.1,7.9-32.5,43-32.6,43.7v44.5l0,0l0,0h-8v20.4l0,0l0,0h-11.2v9.5l0,0H114v8.6v11.9h6V848v71h196.2H431h193v-65h-34v-0.3
				h-0.1V751.1H573v62.5h-13.7l-78.6,73.7l0,0V751.1h-44.1v-9.5h-9.9v-20.5h-11.2v-44.5c0,0-4.1-35.7-32.6-43.7v-15.7
				c0,0,0.4-21.6-10.7-22.8v-7L369.6,587.2"/>
			<polyline class="st4" points="1276.6,677.4 1276.6,656.8 1257.3,656.8 1257.3,639.4 1236.3,639.4 1236.3,621.2 1212.7,621.2 
				1212.7,629.5 1190.1,629.5 1167.6,629.5 1167.6,621.2 1143.9,621.2 1143.9,639.4 1123,639.4 1123,656.8 1103.7,656.8 
				1103.7,677.4 1084.9,677.4 1084.9,841.9 1163.8,841.9 1180.9,841.9 1199.4,841.9 1216.5,841.9 1295.4,841.9 1295.4,677.4 
				1276.6,677.4 			"/>
			<polyline class="st8" points="1236.4,621.2 1212.7,621.2 1212.7,621.2 1236.3,621.2 1236.3,639.4 1244.6,639.4 1244.6,639.4 
				1236.4,639.4 1236.4,621.2 			"/>
			<polyline class="st11" points="1257.3,639.4 1244.6,639.4 1244.6,639.4 1257.3,639.4 1257.3,656.8 1276.6,656.8 1276.6,677.4 
				1295.4,677.4 1295.4,841.8 1295.5,841.8 1295.5,677.4 1276.7,677.4 1276.7,656.7 1257.3,656.7 1257.3,639.4 			"/>
			<path class="st8" d="M1103.7,677.4h-18.8l0,0H1103.7L1103.7,677.4 M1123,656.7h-19.3l0,0H1123L1123,656.7 M1143.9,639.4H1123l0,0
				H1143.9L1143.9,639.4 M1167.6,621.2H1144l0,0H1167.6v8.3h22.6h22.6l0,0h-22.5h-22.6L1167.6,621.2"/>
			<polyline class="st8" points="1236.3,621.2 1212.7,621.2 1212.7,629.5 1212.7,629.5 1212.7,629.5 1190.1,629.5 1167.6,629.5 
				1167.6,621.2 1144,621.2 1144,639.4 1143.9,639.4 1143.9,639.4 1123,639.4 1123,656.7 1123,656.7 1123,656.8 1103.7,656.8 
				1103.7,677.4 1103.7,677.4 1103.7,677.4 1084.9,677.4 1084.9,841.8 1163.9,841.8 1180.9,841.8 1199.4,841.8 1190.9,898.8 
				1295.4,841.8 1295.4,677.4 1276.6,677.4 1276.6,656.8 1257.3,656.8 1257.3,639.4 1244.6,639.4 1236.3,639.4 1236.3,621.2 			"/>
			<polyline class="st7" points="623.6,751.1 623.5,751.1 623.5,751.1 623.6,751.1 623.6,751.1 			"/>
			<polyline class="st12" points="623.6,751.1 623.5,751.1 623.5,853.7 623.6,853.7 623.6,751.1 			"/>
			<polyline class="st13" points="606.6,751.1 606.6,751.1 606.6,813.5 592.9,813.5 514.3,887.3 514.3,887.3 592.9,813.6 
				606.6,813.6 606.6,751.1 			"/>
			<rect x="1597.6" y="955.6" class="st14" width="18.5" height="43.8"/>
			<rect x="1554.5" y="928.9" class="st15" width="14" height="66.6"/>
			<g>
				<circle class="st16" cx="1051.9" cy="762.8" r="57"/>
				<circle class="st17" cx="1078.9" cy="851" r="57"/>
			</g>
			<circle class="st17" cx="1557.6" cy="863.3" r="65.9"/>
			<g>
				<g>
					<polygon class="st18" points="1604.9,731.9 1567.1,829.9 1646.2,829.9 					"/>
					<polygon class="st18" points="1605.2,694.1 1572.8,777.9 1640.5,777.9 					"/>
				</g>
				<g>
					<polygon class="st18" points="1604.6,822.2 1553,955.6 1660.8,955.6 					"/>
					<polygon class="st18" points="1604.9,770.7 1560.8,884.8 1653,884.8 					"/>
				</g>
			</g>
			<rect x="788.1" y="934.3" class="st15" width="9.5" height="57.4"/>
			<rect x="739.2" y="951.1" class="st19" width="5.7" height="40.6"/>
			<g>
				<rect x="1118.2" y="943.5" class="st20" width="66.8" height="48.8"/>
				<path class="st21" d="M1184,944.5v46.8h-64.8v-46.8H1184 M1186,942.5h-68.8v50.8h68.8V942.5L1186,942.5z"/>
			</g>
			<line class="st22" x1="1152.1" y1="944.5" x2="1152.1" y2="991.8"/>
			<g class="st23">
				<rect x="1118.3" y="943.5" class="st24" width="34.3" height="48.8"/>
				<path class="st21" d="M1151.6,944.5v46.8h-32.3v-46.8H1151.6 M1153.6,942.5h-36.3v50.8h36.3V942.5L1153.6,942.5z"/>
			</g>
			<rect x="185.3" y="968.9" class="st15" width="13.6" height="36.6"/>
			<polyline class="st5" points="573,512.8 559.3,524.3 480.7,590.3 480.7,887.3 559.3,813.5 573,813.5 573,751.1 573,751.1 
				573,512.8 			"/>
			<g>
				<g>
					<polyline class="st25" points="1395.6,781.7 1273.3,781.7 1235.5,886.4 1395.7,886.3 					"/>
					<polyline class="st25" points="1372.4,781.7 1494.7,781.7 1532.6,886.3 1372.4,886.3 					"/>
				</g>
				<polygon class="st26" points="1532.6,993.5 1345.2,993.6 1235.5,993.6 1235.5,886.4 1532.6,886.3 				"/>
				<polygon class="st27" points="1343.3,894.1 1384,815.7 1423,886.3 1423,993.5 1343.4,993.6 				"/>
				<path class="st28" d="M1420,904.6c0-10.7-8.6-19.3-19.3-19.3c-10.7,0-19.3,8.6-19.3,19.3c0,0.2,0,0.3,0,0.5v58.4h38.5v-58.4
					C1420,904.9,1420,904.8,1420,904.6z"/>
				<path class="st29" d="M1385.5,963.5v-58.4c0-0.2,0-0.4,0-0.5c0-8.4,6.8-15.2,15.2-15.2c8.4,0,15.2,6.8,15.2,15.2
					c0,0.1,0,0.3,0,0.4v58.5H1385.5z"/>
				<path class="st30" d="M1389.6,927.9v-22.3c0-0.3,0-0.5,0-0.6c0-2.9,1.2-5.6,3.3-7.7c2.1-2.1,4.9-3.3,7.8-3.3
					c6.1,0,11,4.9,11.1,10.9c0,0.1,0,0.3,0,0.4v28.8L1389.6,927.9z"/>
				<rect x="1435.8" y="895" class="st31" width="84" height="48.7"/>
				<rect x="1266.9" y="895" class="st31" width="58.8" height="48.7"/>
				<rect x="1448.2" y="764.9" class="st26" width="12.9" height="24.6"/>
				<rect x="1445.2" y="789.4" class="st27" width="19.8" height="5.6"/>
				<rect x="1351.4" y="895" class="st31" width="21.1" height="40.1"/>
				<path class="st28" d="M1384,834.8c-5.4,0-9.7,4.3-9.7,9.7v22h19.4v-22C1393.7,839.1,1389.4,834.8,1384,834.8z"/>
				<path class="st32" d="M1378.4,862.4v-17.9c0-3.1,2.5-5.6,5.6-5.6s5.6,2.5,5.6,5.6v17.9H1378.4z"/>
				<rect x="1354.7" y="898.3" class="st32" width="14.3" height="33.3"/>
				<g>
					<polygon class="st32" points="1293.9,940.7 1270.7,940.7 1270.6,919.4 1270.6,898.4 1293.9,898.4 					"/>
					<line class="st33" x1="1293.8" y1="919.5" x2="1270.5" y2="919.4"/>
					<g>
						<line class="st33" x1="1278.3" y1="919.5" x2="1278.3" y2="898.4"/>
						<line class="st33" x1="1286.2" y1="919.5" x2="1286.2" y2="898.4"/>
					</g>
				</g>
				<g>
					<polygon class="st32" points="1321.5,940.6 1298.2,940.7 1298.2,919.4 1298.2,898.4 1321.5,898.4 					"/>
					<line class="st33" x1="1321.4" y1="919.5" x2="1298.1" y2="919.4"/>
					<g>
						<line class="st33" x1="1305.9" y1="919.5" x2="1305.9" y2="898.4"/>
						<line class="st33" x1="1313.8" y1="919.5" x2="1313.8" y2="898.4"/>
					</g>
				</g>
				<g>
					<polygon class="st32" points="1461.7,940.6 1438.5,940.6 1438.5,919.3 1438.5,898.3 1461.7,898.3 					"/>
					<line class="st33" x1="1461.6" y1="919.5" x2="1438.4" y2="919.3"/>
					<g>
						<line class="st33" x1="1446.2" y1="919.5" x2="1446.2" y2="898.3"/>
						<line class="st33" x1="1454.1" y1="919.5" x2="1454.1" y2="898.3"/>
					</g>
				</g>
				<g>
					<polygon class="st32" points="1489.5,940.6 1466.2,940.6 1466.2,919.3 1466.2,898.3 1489.5,898.3 					"/>
					<line class="st33" x1="1489.3" y1="919.4" x2="1466.1" y2="919.3"/>
					<g>
						<line class="st33" x1="1473.9" y1="919.4" x2="1473.9" y2="898.3"/>
						<line class="st33" x1="1481.8" y1="919.4" x2="1481.8" y2="898.3"/>
					</g>
				</g>
				<g>
					<polygon class="st32" points="1517.2,940.6 1493.9,940.6 1493.9,919.3 1493.9,898.3 1517.2,898.3 					"/>
					<line class="st33" x1="1517.1" y1="919.4" x2="1493.8" y2="919.3"/>
					<g>
						<line class="st33" x1="1501.6" y1="919.4" x2="1501.6" y2="898.3"/>
						<line class="st33" x1="1509.5" y1="919.4" x2="1509.5" y2="898.3"/>
					</g>
				</g>
				<line class="st33" x1="1361.9" y1="898.3" x2="1361.9" y2="931.6"/>
				<line class="st33" x1="1369" y1="915.1" x2="1354.7" y2="915.1"/>
				<rect x="1381.5" y="963.5" class="st34" width="38.6" height="8"/>
				<rect x="1381.5" y="974.5" class="st34" width="38.6" height="8"/>
				<rect x="1381.5" y="985.6" class="st34" width="38.6" height="8"/>
				<rect x="1381.5" y="971.4" class="st35" width="38.6" height="3.1"/>
				<rect x="1381.5" y="982.5" class="st35" width="38.6" height="3.1"/>
				<circle class="st30" cx="1389.6" cy="933.1" r="1.9"/>
				<circle class="st36" cx="1322.9" cy="974.6" r="20.4"/>
				<circle class="st18" cx="1353.5" cy="963.5" r="31.4"/>
				<circle class="st37" cx="1356.1" cy="967.5" r="4"/>
				<circle class="st38" cx="1349.2" cy="965.4" r="2.6"/>
				<circle class="st39" cx="1373.3" cy="959.8" r="3.7"/>
				<circle class="st37" cx="1378.9" cy="971.5" r="3.1"/>
				<circle class="st40" cx="1333.2" cy="963.5" r="3.3"/>
				<circle class="st41" cx="1345.5" cy="960.6" r="3.6"/>
				<circle class="st42" cx="1373.3" cy="949.8" r="3"/>
				<circle class="st43" cx="1381.2" cy="954.3" r="3.1"/>
				<circle class="st44" cx="1373.3" cy="938.4" r="2.5"/>
				<circle class="st45" cx="1339.5" cy="936.5" r="3.3"/>
			</g>
			<g>
				<rect x="129.7" y="984.2" class="st15" width="15.6" height="42.1"/>
				<polygon class="st17" points="141.1,769.2 88.2,984.5 186.4,984.5 				"/>
			</g>
			<g>
				<rect x="172.9" y="1001.4" class="st46" width="13.3" height="36"/>
				<polygon class="st46" points="182.6,817.7 137.4,1001.6 221.3,1001.6 				"/>
			</g>
			<g>
				<rect x="728.9" y="835.9" class="st46" width="13.3" height="36"/>
				<polygon class="st46" points="738.6,652.2 693.4,836.1 777.3,836.1 				"/>
			</g>
			<g>
				<rect x="685.3" y="862.4" class="st16" width="22.3" height="36"/>
				<polygon class="st16" points="701.5,678.7 626.1,862.6 766.3,862.6 				"/>
			</g>
			<g>
				<rect x="208.6" y="864.2" class="st47" width="298.6" height="96.9"/>
				<polygon class="st20" points="291.7,864.7 291.7,947.2 363.2,947.2 363.2,811.4 296.4,811.4 				"/>
				<polygon class="st48" points="206.8,864.7 291.7,864.7 327.6,828.8 363.3,864.4 508.6,864.4 467.8,796.6 245.8,796.6 				"/>
				<rect x="208" y="961.1" class="st49" width="299.1" height="30.6"/>
				<g>
					<path class="st50" d="M283.4,876v44.8h-67V876H283.4 M284.4,875h-1h-67h-1v1v44.8v1h1h67h1v-1V876V875L284.4,875z"/>
				</g>
				<g>
					<rect x="391.8" y="875.5" class="st51" width="89.9" height="45.8"/>
					<path class="st50" d="M481.2,876v44.8h-88.9V876H481.2 M482.2,875h-1h-88.9h-1v1v44.8v1h1h88.9h1v-1V876V875L482.2,875z"/>
				</g>
				<g>
					<rect x="216.9" y="876.5" class="st52" width="66" height="43.8"/>
					<path class="st8" d="M282.4,877v42.8h-65V877H282.4 M283.4,876h-67v44.8h67V876L283.4,876z"/>
				</g>
				<line class="st53" x1="250.8" y1="920.5" x2="250.8" y2="876.9"/>
				<g>
					<rect x="317.7" y="873" class="st21" width="34.2" height="74.9"/>
					<g>
						<path class="st50" d="M351.5,873.5v73.9h-33.2v-73.9H351.5 M352.5,872.5h-1h-33.2h-1v1v73.9v1h1h33.2h1v-1v-73.9V872.5
							L352.5,872.5z"/>
					</g>
				</g>
				<rect x="323.4" y="904.3" class="st54" width="23.1" height="36"/>
				<rect x="323.4" y="877.6" class="st54" width="23.1" height="23.4"/>
				<rect x="284.8" y="946" class="st55" width="85.1" height="45.8"/>
				<rect x="284.5" y="983.4" class="st56" width="85.5" height="1.6"/>
				<rect x="284.5" y="975" class="st56" width="85.5" height="1.6"/>
				<rect x="284.5" y="966.6" class="st56" width="85.5" height="1.6"/>
				<rect x="284.5" y="958.3" class="st56" width="85.5" height="1.6"/>
				<rect x="284.5" y="949.9" class="st56" width="85.5" height="1.6"/>
				<rect x="347.7" y="907.9" class="st50" width="2" height="9.7"/>
			</g>
			<path class="st57" d="M1511,1384.2c-618.5,0-1332.8-34.5-1611.2-49.4l-31.6-1.7l-19.3-255.7h1834.7h0.4c0.3,0,1,0,1.9,0
				c14.2,0,143.2,1,305.7,37.1c91.6,20.3,177.4,48,255,82.4c51.6,22.8,100.1,48.9,144.4,77.5l77.1,49.9l-90.5,15.8
				c-56.2,9.8-127.6,18.1-212.2,24.7C1999.5,1377.7,1779.3,1384.2,1511,1384.2z"/>
			<circle class="st17" cx="776" cy="831.2" r="57"/>
			<g>
				<rect x="788.4" y="737.3" class="st58" width="446.8" height="256.1"/>
				<polygon class="st59" points="1235.2,737.3 1218.1,706.2 804.7,706.2 788.5,737.3 				"/>
				<rect x="896.2" y="726.3" class="st60" width="339" height="266.4"/>
				<polygon class="st61" points="1235.2,726.3 1222.3,695.1 908.6,695.1 896.3,726.3 				"/>
				<rect x="1136.1" y="726.5" class="st62" width="68.6" height="266"/>
				<g>
					<rect x="1137.2" y="727" class="st20" width="66.5" height="48.8"/>
					<path class="st21" d="M1202.7,728v46.8h-64.5V728H1202.7 M1204.7,726h-68.5v50.8h68.5V726L1204.7,726z"/>
				</g>
				<g class="st23">
					<rect x="1169.4" y="727" class="st24" width="34.3" height="48.8"/>
					<path class="st21" d="M1202.7,728v46.8h-32.3V728H1202.7 M1204.7,726h-36.3v50.8h36.3V726L1204.7,726z"/>
				</g>
				<g>
					<rect x="1137.2" y="835.3" class="st20" width="66.8" height="48.8"/>
					<path class="st21" d="M1203,836.3v46.8h-64.8v-46.8H1203 M1205,834.3h-68.8v50.8h68.8V834.3L1205,834.3z"/>
				</g>
				<line class="st22" x1="1170.1" y1="729.1" x2="1170.1" y2="776.4"/>
				<line class="st22" x1="1170.1" y1="836.8" x2="1170.1" y2="884.1"/>
				<g class="st23">
					<rect x="1169.4" y="835.3" class="st24" width="34.3" height="48.8"/>
					<path class="st21" d="M1202.7,836.3v46.8h-32.3v-46.8H1202.7 M1204.7,834.3h-36.3v50.8h36.3V834.3L1204.7,834.3z"/>
				</g>
				<rect x="1033.4" y="726.5" class="st62" width="68.6" height="266"/>
				<g>
					<rect x="1034.6" y="727" class="st20" width="66.5" height="48.8"/>
					<path class="st21" d="M1100.1,728v46.8h-64.5V728H1100.1 M1102.1,726h-68.5v50.8h68.5V726L1102.1,726z"/>
				</g>
				<g class="st23">
					<rect x="1066.8" y="727" class="st24" width="34.3" height="48.8"/>
					<path class="st21" d="M1100.1,728v46.8h-32.3V728H1100.1 M1102.1,726h-36.3v50.8h36.3V726L1102.1,726z"/>
				</g>
				<g>
					<rect x="1034.6" y="835.3" class="st20" width="66.8" height="48.8"/>
					<path class="st21" d="M1100.4,836.3v46.8h-64.8v-46.8H1100.4 M1102.4,834.3h-68.8v50.8h68.8V834.3L1102.4,834.3z"/>
				</g>
				<line class="st22" x1="1067.5" y1="729.1" x2="1067.5" y2="776.4"/>
				<line class="st22" x1="1067.5" y1="836.8" x2="1067.5" y2="884.1"/>
				<g class="st23">
					<rect x="1066.8" y="835.3" class="st24" width="34.3" height="48.8"/>
					<path class="st21" d="M1100.1,836.3v46.8h-32.3v-46.8H1100.1 M1102.1,834.3h-36.3v50.8h36.3V834.3L1102.1,834.3z"/>
				</g>
				<rect x="930.8" y="726.5" class="st62" width="68.6" height="266"/>
				<g>
					<rect x="932" y="727" class="st20" width="66.5" height="48.8"/>
					<path class="st21" d="M997.5,728v46.8H933V728H997.5 M999.5,726H931v50.8h68.5V726L999.5,726z"/>
				</g>
				<g class="st23">
					<rect x="964.2" y="727" class="st24" width="34.3" height="48.8"/>
					<path class="st21" d="M997.5,728v46.8h-32.3V728H997.5 M999.5,726h-36.3v50.8h36.3V726L999.5,726z"/>
				</g>
				<g>
					<rect x="932" y="835.3" class="st20" width="66.8" height="48.8"/>
					<path class="st21" d="M997.8,836.3v46.8H933v-46.8H997.8 M999.8,834.3H931v50.8h68.8V834.3L999.8,834.3z"/>
				</g>
				<line class="st22" x1="964.9" y1="729.1" x2="964.9" y2="776.4"/>
				<line class="st22" x1="964.9" y1="836.8" x2="964.9" y2="884.1"/>
				<g class="st23">
					<rect x="964.2" y="835.3" class="st24" width="34.3" height="48.8"/>
					<path class="st21" d="M997.5,836.3v46.8h-32.3v-46.8H997.5 M999.5,834.3h-36.3v50.8h36.3V834.3L999.5,834.3z"/>
				</g>
				<g>
					<rect x="932" y="943.4" class="st20" width="66.8" height="48.8"/>
					<path class="st21" d="M997.8,944.4v46.8H933v-46.8H997.8 M999.8,942.4H931v50.8h68.8V942.4L999.8,942.4z"/>
				</g>
				<g class="st23">
					<rect x="964.2" y="943.5" class="st24" width="34.3" height="48.8"/>
					<path class="st21" d="M997.5,944.5v46.8h-32.3v-46.8H997.5 M999.5,942.5h-36.3v50.8h36.3V942.5L999.5,942.5z"/>
				</g>
				<g>
					<rect x="1034.4" y="943.4" class="st20" width="66.8" height="48.8"/>
					<path class="st21" d="M1100.2,944.4v46.8h-64.8v-46.8H1100.2 M1102.2,942.4h-68.8v50.8h68.8V942.4L1102.2,942.4z"/>
				</g>
				<g class="st23">
					<rect x="1066.6" y="943.5" class="st24" width="34.3" height="48.8"/>
					<path class="st21" d="M1099.9,944.5v46.8h-32.3v-46.8H1099.9 M1101.9,942.5h-36.3v50.8h36.3V942.5L1101.9,942.5z"/>
				</g>
				<g>
					<rect x="1137" y="943.4" class="st20" width="66.8" height="48.8"/>
					<path class="st21" d="M1202.7,944.4v46.8H1138v-46.8H1202.7 M1204.7,942.4H1136v50.8h68.8v-50.8H1204.7z"/>
				</g>
				<g class="st23">
					<rect x="1169.2" y="943.5" class="st24" width="34.3" height="48.8"/>
					<path class="st21" d="M1202.5,944.5v46.8h-32.3v-46.8H1202.5 M1204.5,942.5h-36.3v50.8h36.3V942.5L1204.5,942.5z"/>
				</g>
				<polygon class="st63" points="797.5,908.1 887.9,908.1 882.2,891.9 803.5,891.9 				"/>
				<g>
					<rect x="809.1" y="909.1" class="st20" width="67.2" height="83.3"/>
					<path class="st21" d="M875.3,910.1v81.3h-65.2v-81.3H875.3 M877.3,908.1h-69.2v85.3h69.2V908.1L877.3,908.1z"/>
				</g>
				<g>
					<rect x="809.1" y="738.3" class="st20" width="67.2" height="133.7"/>
					<path class="st21" d="M875.3,739.3V871h-65.2V739.3H875.3 M877.3,737.3h-69.2V873h69.2V737.3L877.3,737.3z"/>
				</g>
				<g>
					<rect x="827.1" y="909" class="st63" width="31.5" height="83.3"/>
					<path class="st21" d="M857.5,910v81.3H828V910H857.5 M859.5,908H826v85.3h33.5V908L859.5,908z"/>
				</g>
				<line class="st22" x1="855.5" y1="740.1" x2="855.5" y2="872"/>
				<line class="st22" x1="829.6" y1="740.1" x2="829.6" y2="872"/>
				<line class="st22" x1="875.8" y1="805.4" x2="856" y2="805.4"/>
				<line class="st22" x1="829.7" y1="805.4" x2="809.9" y2="805.4"/>
				<line class="st22" x1="855.5" y1="771.5" x2="829.2" y2="771.5"/>
				<line class="st22" x1="855.5" y1="842.1" x2="829.2" y2="842.1"/>
				<rect x="849.3" y="944" class="st64" width="5.7" height="22"/>
			</g>
			<rect x="764.4" y="887.3" class="st15" width="18.3" height="77.5"/>
			<g>
				<polygon class="st65" points="716.8,746.7 677.9,757.2 684.3,788.2 				"/>
				<polygon class="st65" points="758.5,952.7 765.6,956.7 765.6,964.3 515.6,964.3 532.9,952.7 				"/>
				<rect x="529.6" y="962.3" class="st66" width="161.3" height="30.6"/>
				<polyline class="st65" points="648.7,850.8 502.8,850.8 540.3,822.3 553,788.5 741.1,788.5 753.8,822.3 791.3,850.8 
					648.7,850.8 				"/>
				<rect x="536.5" y="850.8" class="st67" width="222" height="101.9"/>
				<rect x="691.4" y="766.8" class="st68" width="49.5" height="54.9"/>
				<rect x="701.7" y="773.5" class="st4" width="30.6" height="41.4"/>
				<rect x="512.1" y="850.6" class="st69" width="13.8" height="60.8"/>
				<rect x="691.2" y="850.6" class="st69" width="13.8" height="60.8"/>
				<rect x="770.1" y="850.6" class="st69" width="13.8" height="60.8"/>
				<rect x="509.2" y="911.4" class="st70" width="19.8" height="4.7"/>
				<rect x="688.3" y="911.4" class="st70" width="19.8" height="4.7"/>
				<rect x="767.1" y="911.4" class="st70" width="19.8" height="4.7"/>
				<rect x="707.4" y="778.4" class="st71" width="19.2" height="31.8"/>
				<g>
					<rect x="575.1" y="859.3" class="st4" width="95.3" height="55.8"/>
					<g>
						<rect x="639.1" y="865.5" class="st71" width="19.2" height="43.3"/>
						<rect x="613.1" y="865.5" class="st71" width="19.2" height="43.3"/>
						<rect x="587.2" y="865.5" class="st71" width="19.2" height="43.3"/>
					</g>
				</g>
				<polygon class="st72" points="502.8,850.8 505.4,854.3 787.7,854.3 791.3,850.8 				"/>
				<rect x="529.6" y="918.5" class="st70" width="157.5" height="3"/>
				<rect x="529.6" y="957" class="st70" width="157.5" height="2.3"/>
				<rect x="539.1" y="920.2" class="st70" width="3.5" height="38"/>
				<rect x="550.3" y="920.2" class="st70" width="3.5" height="38"/>
				<rect x="561.6" y="920.2" class="st70" width="3.5" height="38"/>
				<rect x="572.9" y="920.2" class="st70" width="3.5" height="38"/>
				<rect x="584.2" y="920.2" class="st70" width="3.5" height="38"/>
				<rect x="595.5" y="920.2" class="st70" width="3.5" height="38"/>
				<rect x="606.8" y="920.2" class="st70" width="3.5" height="38"/>
				<rect x="618" y="920.2" class="st70" width="3.5" height="38"/>
				<rect x="629.3" y="920.2" class="st70" width="3.5" height="38"/>
				<rect x="640.6" y="920.2" class="st70" width="3.5" height="38"/>
				<rect x="651.9" y="920.2" class="st70" width="3.5" height="38"/>
				<rect x="663.2" y="920.2" class="st70" width="3.5" height="38"/>
				<rect x="674.4" y="920.2" class="st70" width="3.5" height="38"/>
				<g>
					<rect x="713.8" y="860.8" class="st73" width="36.6" height="90.4"/>
					<path class="st70" d="M748.9,862.3v87.4h-33.6v-87.4H748.9 M751.9,859.3h-39.6v93.4h39.6V859.3L751.9,859.3z"/>
				</g>
				<rect x="720.3" y="868" class="st74" width="23.9" height="11.8"/>
				<g>
					<rect x="715.5" y="944.2" class="st75" width="33.2" height="8.5"/>
				</g>
				<polygon class="st76" points="741,761 692.8,761 692.8,766.7 744.5,766.7 				"/>
				<rect x="507.4" y="916.1" class="st77" width="22.7" height="77"/>
				<polygon class="st70" points="765.6,917.3 758.5,917.5 758.5,920.7 765.6,920.4 				"/>
				<polygon class="st70" points="758.5,920.7 758.5,948 765.6,950.8 765.6,920.4 				"/>
				<polygon class="st78" points="760.5,920.2 760.1,920.2 760.1,948.7 760.5,948.8 				"/>
				<polygon class="st78" points="762.4,920.2 762,920.2 762,949.4 762.4,949.6 				"/>
				<polygon class="st78" points="764.3,920.2 763.9,920.2 763.9,950.2 764.3,950.3 				"/>
				<rect x="709.6" y="986.3" class="st79" width="55.9" height="6.8"/>
				<rect x="709.1" y="980.6" class="st80" width="56.5" height="5.7"/>
				<rect x="709.3" y="973.5" class="st79" width="56.2" height="7.3"/>
				<rect x="708.7" y="969.6" class="st80" width="57" height="3.9"/>
				<rect x="709.3" y="964.2" class="st79" width="56.5" height="5.2"/>
				<rect x="686.9" y="916.1" class="st77" width="22.7" height="77"/>
				<rect x="765.6" y="916.1" class="st77" width="22.7" height="77"/>
				<g>
					<rect x="719.9" y="884.5" class="st81" width="10.6" height="28.2"/>
				</g>
				<g>
					<rect x="733.6" y="884.5" class="st81" width="10.8" height="28.2"/>
				</g>
				<g>
					<rect x="719.9" y="916.6" class="st81" width="10.6" height="29.1"/>
				</g>
				<g>
					<rect x="733.6" y="916.6" class="st81" width="10.8" height="29.1"/>
				</g>
				<circle class="st65" cx="743.5" cy="916.3" r="2.4"/>
				<polygon class="st68" points="740.4,768.4 740.4,764.5 717.7,750.5 712.5,751.4 689.9,768.2 				"/>
				<polygon class="st82" points="716.8,752.1 747.2,770.9 747.2,770.9 747.2,766.8 716.8,748.1 686.5,766.8 686.5,770.7 
					686.5,770.7 				"/>
				<polyline class="st83" points="552.6,759.6 622.8,716.3 692.8,759.4 692.8,826 552.6,826 552.6,759.4 				"/>
				<g>
					<rect x="575.1" y="764.2" class="st4" width="95.3" height="55.8"/>
					<g>
						<rect x="639.1" y="770.4" class="st71" width="19.2" height="43.3"/>
						<rect x="613.1" y="770.4" class="st71" width="19.2" height="43.3"/>
						<rect x="587.2" y="770.4" class="st71" width="19.2" height="43.3"/>
					</g>
				</g>
				<polygon class="st84" points="622.8,715.5 701.3,764.2 701.3,764.2 701.3,753.7 622.8,705.4 544.2,753.6 544.3,763.9 
					544.3,763.9 				"/>
			</g>
			<g>
				<path class="st85" d="M162.1,1078.5H680v-76.6c0-11.4-9.3-20.7-20.7-20.7H162.1V1078.5z"/>
				<polygon class="st86" points="680.1,1048 345.4,1048 338,1040.6 162.1,1040.6 162.1,1085.1 680.1,1085.1 				"/>
				<rect x="675.8" y="1072" class="st87" width="10.4" height="13.2"/>
				<circle class="st87" cx="600.4" cy="1078.5" r="20.7"/>
				<circle class="st87" cx="274.4" cy="1078.5" r="20.7"/>
				<circle class="st88" cx="600.4" cy="1078.5" r="12.4"/>
				<circle class="st88" cx="274.4" cy="1078.5" r="12.4"/>
				<g>
					<g>
						<path class="st89" d="M569.1,1041.2h47.5c2.6,0,4.7-2.1,4.7-4.7v-34.6c0-2.6-2.1-4.7-4.7-4.7h-47.5c-2.6,0-4.7,2.1-4.7,4.7
							v34.6C564.4,1039.1,566.5,1041.2,569.1,1041.2z"/>
						<path class="st90" d="M563.7,1036.5v-34.6c0-3,2.4-5.4,5.4-5.4h47.5c3,0,5.4,2.4,5.4,5.4v34.6c0,3-2.4,5.4-5.4,5.4h-47.5
							C566.1,1041.8,563.7,1039.4,563.7,1036.5z M569.1,997.8c-2.2,0-4,1.8-4,4v34.6c0,2.2,1.8,4,4,4h47.5c2.2,0,4-1.8,4-4v-34.6
							c0-2.2-1.8-4-4-4L569.1,997.8L569.1,997.8z"/>
					</g>
					<g>
						<path class="st89" d="M638.4,1041.2h32.3c2.1,0,3.7-1.9,3.7-4.1v-15.3c0-8.9-4.6-24.5-14.5-24.5h-21.6c-2.1,0-3.7,1.9-3.7,4.1
							v35.7C634.7,1039.3,636.4,1041.2,638.4,1041.2z"/>
						<path class="st90" d="M634,1037v-35.7c0-2.6,2-4.8,4.4-4.8H660c4.7,0,8.7,3.2,11.6,9.3c2.7,5.6,3.6,11.9,3.6,15.9v15.3
							c0,2.6-2,4.8-4.4,4.8h-32.3C636,1041.8,634,1039.7,634,1037z M638.4,997.8c-1.7,0-3.1,1.6-3.1,3.5v35.7c0,1.9,1.4,3.5,3.1,3.5
							h32.3c1.7,0,3.1-1.6,3.1-3.5v-15.3c0-8.1-4.2-23.9-13.8-23.9H638.4z"/>
					</g>
					<g>
						<path class="st89" d="M497.5,1041.2H545c2.6,0,4.7-2.1,4.7-4.7v-34.6c0-2.6-2.1-4.7-4.7-4.7h-47.5c-2.6,0-4.7,2.1-4.7,4.7
							v34.6C492.8,1039.1,494.9,1041.2,497.5,1041.2z"/>
						<path class="st90" d="M492.1,1036.5v-34.6c0-3,2.4-5.4,5.4-5.4H545c3,0,5.4,2.4,5.4,5.4v34.6c0,3-2.4,5.4-5.4,5.4h-47.5
							C494.5,1041.8,492.1,1039.4,492.1,1036.5z M497.5,997.8c-2.2,0-4,1.8-4,4v34.6c0,2.2,1.8,4,4,4H545c2.2,0,4-1.8,4-4v-34.6
							c0-2.2-1.8-4-4-4L497.5,997.8L497.5,997.8z"/>
					</g>
					<g>
						<path class="st89" d="M425.8,1041.2h47.5c2.6,0,4.7-2.1,4.7-4.7v-34.6c0-2.6-2.1-4.7-4.7-4.7h-47.5c-2.6,0-4.7,2.1-4.7,4.7
							v34.6C421.1,1039.1,423.2,1041.2,425.8,1041.2z"/>
						<path class="st90" d="M420.5,1036.5v-34.6c0-3,2.4-5.4,5.4-5.4h47.5c3,0,5.4,2.4,5.4,5.4v34.6c0,3-2.4,5.4-5.4,5.4h-47.5
							C422.9,1041.8,420.5,1039.4,420.5,1036.5z M425.8,997.8c-2.2,0-4,1.8-4,4v34.6c0,2.2,1.8,4,4,4h47.5c2.2,0,4-1.8,4-4v-34.6
							c0-2.2-1.8-4-4-4L425.8,997.8L425.8,997.8z"/>
					</g>
					<g>
						<path class="st89" d="M354.2,1041.2h47.5c2.6,0,4.7-2.1,4.7-4.7v-34.6c0-2.6-2.1-4.7-4.7-4.7h-47.5c-2.6,0-4.7,2.1-4.7,4.7
							v34.6C349.5,1039.1,351.6,1041.2,354.2,1041.2z"/>
						<path class="st90" d="M348.8,1036.5v-34.6c0-3,2.4-5.4,5.4-5.4h47.5c3,0,5.4,2.4,5.4,5.4v34.6c0,3-2.4,5.4-5.4,5.4h-47.5
							C351.2,1041.8,348.8,1039.4,348.8,1036.5z M354.2,997.8c-2.2,0-4,1.8-4,4v34.6c0,2.2,1.8,4,4,4h47.5c2.2,0,4-1.8,4-4v-34.6
							c0-2.2-1.8-4-4-4L354.2,997.8L354.2,997.8z"/>
					</g>
					<g>
						<path class="st89" d="M282.2,1034.3h48.3c2.4,0,4.3-1.9,4.3-4.3v-28.5c0-2.4-1.9-4.3-4.3-4.3h-48.3c-2.4,0-4.3,1.9-4.3,4.3
							v28.5C277.9,1032.3,279.8,1034.3,282.2,1034.3z"/>
						<path class="st90" d="M277.2,1030v-28.5c0-2.7,2.2-5,5-5h48.3c2.8,0,5,2.2,5,5v28.5c0,2.7-2.2,5-5,5h-48.3
							C279.4,1034.9,277.2,1032.7,277.2,1030z M282.2,997.8c-2,0-3.7,1.6-3.7,3.7v28.5c0,2,1.6,3.7,3.7,3.7h48.3
							c2,0,3.7-1.6,3.7-3.7v-28.5c0-2-1.6-3.7-3.7-3.7H282.2z"/>
					</g>
					<g>
						<path class="st89" d="M210.6,1034.3h48.3c2.4,0,4.3-1.9,4.3-4.3v-28.5c0-2.4-1.9-4.3-4.3-4.3h-48.3c-2.4,0-4.3,1.9-4.3,4.3
							v28.5C206.2,1032.3,208.2,1034.3,210.6,1034.3z"/>
						<path class="st90" d="M205.6,1030v-28.5c0-2.7,2.2-5,5-5h48.3c2.7,0,5,2.2,5,5v28.5c0,2.7-2.2,5-5,5h-48.3
							C207.8,1034.9,205.6,1032.7,205.6,1030z M210.6,997.8c-2,0-3.7,1.6-3.7,3.7v28.5c0,2,1.6,3.7,3.7,3.7h48.3
							c2,0,3.7-1.6,3.7-3.7v-28.5c0-2-1.6-3.7-3.7-3.7H210.6z"/>
					</g>
				</g>
				<rect x="151.7" y="1072" class="st87" width="10.4" height="13.2"/>
				<path class="st86" d="M185.6,981.3c0,0,1.8-12.7-7.1-13.7c-8.8-1-1.8,6.8-1.8,6.8s1.4,0.4,1.4,6.8"/>
				<rect x="672.8" y="1066.2" class="st91" width="3" height="5.8"/>
				<rect x="618.9" y="1051.2" class="st91" width="7" height="2.4"/>
				<rect x="656.4" y="990.6" class="st91" width="7" height="2.4"/>
				<rect x="291.6" y="1051.2" class="st91" width="7" height="2.4"/>
			</g>
			<polygon class="st1" points="57.2,993.3 129.8,993.6 129.1,1040.4 			"/>
		</g>
	</g>
</g>
</svg>
