<?xml version="1.0" encoding="utf-8"?>
<!-- Generator: Adobe Illustrator 21.0.2, SVG Export Plug-In . SVG Version: 6.00 Build 0)  -->
<svg version="1.1" id="Layer_1" xmlns="http://www.w3.org/2000/svg" xmlns:xlink="http://www.w3.org/1999/xlink" x="0px" y="0px"
	 viewBox="0 0 351.5 123.7" style="enable-background:new 0 0 351.5 123.7;" xml:space="preserve">
<style type="text/css">
	.st0{opacity:0.3;fill:#BCBEC0;enable-background:new    ;}
	.st1{fill:#010101;}
	.st2{fill:#808285;}
	.st3{opacity:0.25;fill:#010101;enable-background:new    ;}
	.st4{fill:#FFFFFF;}
	.st5{enable-background:new    ;}
</style>
<g>
	<circle class="st0" cx="45" cy="45" r="42.7"/>
	<g>
		<g>
			<g>
				<path class="st1" d="M15.3,38.7h0.2l7-17.6H31l-11.8,26v14.4h-7.8V46.6L4.5,31.5l3.8-10.4L15.3,38.7z"/>
				<path class="st1" d="M19.5,61.9H11V46.7L4.1,31.5l4.2-11.3l7,17.9l6.8-17.3h9.3l-12,26.5v14.6H19.5z M11.7,61.3h7.2V47.1V47
					l11.6-25.6h-7.8l-7,17.6h-0.6L15,38.8L8.4,22l-3.5,9.5l6.9,15.1L11.7,61.3L11.7,61.3z"/>
			</g>
			<g>
				<path class="st1" d="M26.8,46.3c0-4.5,1.1-8.2,3.2-11.1c2.2-2.8,5.2-4.3,9.1-4.3s6.9,1.4,9.1,4.3c2.2,2.8,3.3,6.5,3.3,11.1v0.6
					c0,4.5-1.1,8.2-3.3,11s-5.2,4.2-9.1,4.2s-7-1.4-9.2-4.2s-3.3-6.5-3.3-11v-0.6H26.8z M34.7,46.9c0,2.8,0.3,5,1,6.7
					s1.9,2.5,3.5,2.5s2.7-0.8,3.4-2.5s1.1-3.9,1.1-6.7v-0.6c0-2.8-0.4-5-1.1-6.7c-0.7-1.7-1.9-2.5-3.5-2.5s-2.8,0.8-3.5,2.5
					s-1,3.9-1,6.6L34.7,46.9L34.7,46.9z"/>
				<path class="st1" d="M39.2,62.5c-4,0-7.2-1.5-9.4-4.4s-3.3-6.7-3.3-11.2v-0.6c0-4.6,1.1-8.4,3.3-11.3s5.4-4.4,9.4-4.4
					s7.1,1.5,9.4,4.4c2.2,2.9,3.4,6.7,3.4,11.3v0.6c0,4.6-1.1,8.4-3.3,11.2C46.4,61,43.2,62.5,39.2,62.5z M39.2,31.3
					c-3.8,0-6.8,1.4-8.8,4.1c-2.1,2.8-3.2,6.4-3.2,10.9v0.6c0,4.4,1.1,8.1,3.2,10.8s5.1,4.1,8.9,4.1c3.7,0,6.7-1.4,8.8-4.1
					c2.1-2.8,3.2-6.4,3.2-10.8v-0.6c0-4.4-1.1-8.1-3.2-10.9C45.9,32.6,43,31.3,39.2,31.3z M39.2,56.4c-1.8,0-3.1-0.9-3.9-2.7
					c-0.7-1.7-1.1-4-1.1-6.8v-0.6c0-2.8,0.4-5.1,1.1-6.8c0.7-1.8,2-2.7,3.8-2.7s3.1,0.9,3.8,2.7c0.7,1.7,1.1,4,1.1,6.8v0.6
					c0,2.8-0.4,5.1-1.1,6.8C42.2,55.5,41,56.4,39.2,56.4z M39.2,37.4c-1.5,0-2.5,0.8-3.2,2.3c-0.7,1.6-1,3.8-1,6.5v0.6
					c0,2.7,0.3,4.9,1,6.5c0.6,1.5,1.7,2.3,3.2,2.3s2.5-0.7,3.1-2.3c0.7-1.6,1-3.8,1-6.5v-0.6c0-2.7-0.3-4.9-1-6.5
					C41.7,38.2,40.7,37.4,39.2,37.4z"/>
			</g>
			<g>
				<path class="st1" d="M71.5,57.3c-0.8,1.6-1.8,2.8-3,3.6s-2.6,1.3-4.2,1.3c-2.7,0-4.8-1.1-6.4-3.3c-1.5-2.2-2.3-5.5-2.3-10.1
					V31.5h7.8v17.4c0,2.7,0.3,4.5,0.8,5.6c0.5,1,1.4,1.5,2.5,1.5c0.9,0,1.7-0.2,2.4-0.5c0.7-0.3,1.3-0.8,1.8-1.5V31.5h7.9v30.1h-6.4
					L71.5,57.3z"/>
				<path class="st1" d="M64.4,62.5c-2.8,0-5-1.1-6.7-3.4c-1.6-2.2-2.4-5.7-2.4-10.3V31.1h8.5v17.7c0,2.6,0.3,4.4,0.8,5.4
					c0.5,0.9,1.2,1.4,2.2,1.4c0.9,0,1.6-0.2,2.2-0.5s1.1-0.7,1.6-1.3V31.1h8.5v30.8h-7l-0.7-3.7c-0.7,1.2-1.6,2.2-2.7,2.9
					C67.5,62.1,66,62.5,64.4,62.5z M56,31.8v17c0,4.5,0.8,7.8,2.3,9.9s3.5,3.1,6.1,3.1c1.5,0,2.8-0.4,4-1.2c1.1-0.8,2.1-2,2.9-3.5
					l0.4-0.8l1,5h5.8V31.8h-7.2v22.3l-0.1,0.1c-0.5,0.7-1.1,1.3-1.9,1.6c-0.7,0.4-1.6,0.6-2.5,0.6c-1.3,0-2.2-0.6-2.8-1.7
					c-0.6-1.1-0.8-3-0.8-5.7V31.8H56z"/>
			</g>
			<path class="st1" d="M125.9,49.4l0.1,0.2c0.1,4-1,7.1-3.3,9.3s-5.5,3.3-9.5,3.3c-4.2,0-7.5-1.3-9.9-4c-2.5-2.7-3.7-6.4-3.7-11.2
				V35.7c0-4.8,1.2-8.5,3.6-11.2s5.7-4,9.8-4c4.1,0,7.4,1.1,9.7,3.2c2.3,2.1,3.4,5.3,3.4,9.4l-0.1,0.2h-5.4c0-2.9-0.6-5-1.9-6.4
				s-3.2-2-5.7-2s-4.4,0.9-5.8,2.8s-2,4.5-2,8V47c0,3.5,0.7,6.2,2.1,8.1c1.4,1.9,3.4,2.8,5.9,2.8c2.4,0,4.3-0.7,5.5-2
				s1.8-3.5,1.8-6.5C120.5,49.4,125.9,49.4,125.9,49.4z"/>
			<path class="st1" d="M147.1,61.6c-0.2-0.9-0.4-1.7-0.6-2.4c-0.1-0.7-0.2-1.4-0.3-2.1c-0.8,1.5-1.9,2.7-3.2,3.7s-2.8,1.5-4.5,1.5
				c-2.7,0-4.8-0.8-6.2-2.4c-1.4-1.6-2.2-3.8-2.2-6.5c0-2.8,1-5.1,3-6.7c2-1.6,4.8-2.4,8.3-2.4h4.6V41c0-1.8-0.4-3.3-1.2-4.3
				s-2-1.5-3.5-1.5c-1.4,0-2.5,0.4-3.3,1.3c-0.8,0.9-1.2,2-1.2,3.4h-5.4l-0.1-0.2c-0.1-2.3,0.8-4.4,2.7-6.2s4.5-2.7,7.6-2.7
				c3,0,5.4,0.9,7.3,2.6c1.9,1.8,2.8,4.3,2.8,7.5v14c0,1.2,0.1,2.3,0.2,3.4c0.1,1.1,0.4,2.2,0.7,3.2L147.1,61.6L147.1,61.6z
				 M139.8,57.8c1.5,0,2.9-0.5,4.1-1.4c1.2-1,2-2.1,2.3-3.5v-5.3h-4.7c-1.7,0-3.1,0.6-4.1,1.7c-1,1.1-1.5,2.4-1.5,4
				c0,1.4,0.3,2.5,1,3.3C137.6,57.4,138.6,57.8,139.8,57.8z"/>
			<path class="st1" d="M163.5,31.5l0.3,4.5c0.9-1.6,1.9-2.8,3.2-3.7c1.3-0.9,2.8-1.3,4.4-1.3c2.7,0,4.8,1,6.2,2.9
				c1.5,2,2.2,5,2.2,9.2v18.5h-5.6V43.1c0-2.8-0.4-4.8-1.2-6s-2-1.8-3.6-1.8c-1.3,0-2.4,0.3-3.3,1c-0.9,0.7-1.7,1.6-2.2,2.8v22.5
				h-5.7V31.5H163.5z"/>
			<path class="st1" d="M199.5,61.6V21.1h11.2c3.9,0,6.9,0.9,9.1,2.7c2.2,1.8,3.3,4.5,3.3,8.2c0,1.9-0.5,3.6-1.4,5
				c-0.9,1.5-2.3,2.5-4,3.2c2.4,0.4,4.2,1.5,5.4,3.4c1.3,1.8,1.9,4,1.9,6.5c0,3.7-1.1,6.6-3.2,8.5c-2.1,2-5.1,2.9-8.9,2.9
				L199.5,61.6L199.5,61.6z M205.2,38.6h6.4c1.8-0.1,3.2-0.6,4.3-1.8c1-1.1,1.5-2.7,1.5-4.8c0-2.2-0.6-3.9-1.7-5
				c-1.1-1.1-2.8-1.7-5-1.7h-5.6v13.3H205.2z M205.2,42.7v14.6h7.8c2,0,3.6-0.6,4.7-1.9c1.1-1.2,1.7-3,1.7-5.3c0-2.2-0.5-4-1.6-5.3
				s-2.6-2-4.6-2.1h-0.3C212.9,42.7,205.2,42.7,205.2,42.7z"/>
			<path class="st1" d="M241.2,62.2c-3.7,0-6.7-1.4-8.8-4.1c-2.1-2.7-3.2-6.3-3.2-10.7V46c0-4.4,1.1-8,3.2-10.9
				c2.1-2.8,4.9-4.2,8.3-4.2c3.4,0,6,1.2,7.8,3.6c1.8,2.4,2.7,5.7,2.7,9.8v3.2h-16.3c0,3.1,0.6,5.6,1.7,7.5c1.1,1.9,2.8,2.9,5.1,2.9
				c1.6,0,2.9-0.2,4.1-0.7C247,56.7,248,56,249,55l1.8,3.5c-1,1-2.3,1.9-4,2.6C245.2,61.8,243.3,62.2,241.2,62.2z M240.7,35.3
				c-1.6,0-2.9,0.8-3.9,2.3s-1.6,3.5-1.8,6h10.7V43c0-2.3-0.4-4.1-1.2-5.5C243.6,36,242.4,35.3,240.7,35.3z"/>
			<path class="st1" d="M261.4,31.5l0.3,4.5c0.9-1.6,1.9-2.8,3.2-3.7c1.3-0.9,2.8-1.3,4.4-1.3c2.7,0,4.8,1,6.2,2.9
				c1.5,2,2.2,5,2.2,9.2v18.5h-5.6V43.1c0-2.8-0.4-4.8-1.2-6c-0.8-1.2-2-1.8-3.6-1.8c-1.3,0-2.4,0.3-3.3,1s-1.7,1.6-2.2,2.8v22.5
				h-5.7V31.5H261.4z"/>
			<path class="st1" d="M295.2,62.2c-3.7,0-6.7-1.4-8.8-4.1c-2.1-2.7-3.2-6.3-3.2-10.7V46c0-4.4,1.1-8,3.2-10.9
				c2.1-2.8,4.9-4.2,8.3-4.2s6,1.2,7.8,3.6c1.8,2.4,2.7,5.7,2.7,9.8v3.2h-16.3c0,3.1,0.6,5.6,1.7,7.5s2.8,2.9,5.1,2.9
				c1.6,0,2.9-0.2,4.1-0.7S302,56,303,55l1.8,3.5c-1,1-2.3,1.9-4,2.6C299.2,61.8,297.3,62.2,295.2,62.2z M294.7,35.3
				c-1.6,0-2.9,0.8-3.9,2.3s-1.6,3.5-1.8,6h10.7V43c0-2.3-0.4-4.1-1.2-5.5C297.6,36,296.4,35.3,294.7,35.3z"/>
			<path class="st1" d="M311.8,61.6V35.5h-4v-4h4v-3.1c0-3.4,0.9-6.1,2.7-8c1.8-1.9,4.4-2.8,7.7-2.8c1.2,0,2.3,0.1,3.5,0.4
				s2.4,0.7,3.8,1.2l-0.9,4.4c-0.9-0.4-1.9-0.7-2.9-1s-2.1-0.4-3.2-0.4c-1.7,0-3,0.5-3.9,1.5s-1.3,2.5-1.3,4.5v3.1h5.2v4h-5.2v26.1
				h-5.5V61.6z M332.3,61.6h-5.7V31.5h5.7V61.6z"/>
			<path class="st1" d="M346.4,24v7.5h4.7v4h-4.7v17.9c0,1.6,0.2,2.7,0.7,3.3c0.5,0.7,1.1,1,1.9,1c0.3,0,0.6,0,0.9-0.1
				s0.6-0.1,1-0.3l0.6,3.9c-0.5,0.3-1.1,0.5-1.8,0.6c-0.7,0.2-1.3,0.2-2,0.2c-2.2,0-3.9-0.7-5.1-2.1c-1.2-1.4-1.8-3.6-1.8-6.6V35.5
				h-4v-4h4V24H346.4z"/>
		</g>
	</g>
	<g>
		<g>
			<path class="st1" d="M12.2,46L0.3,20.5h6.3l8.5,19.7h0.2"/>
		</g>
	</g>
	<path class="st2" d="M75.1,72.5L69.7,78l44.7,44.7c1.6,1.6,4.1,1.6,5.7,0l2.6-2.6c1.6-1.6,1.6-4.1,0-5.7L80.8,72.5
		C79.3,70.9,76.7,70.9,75.1,72.5z"/>
	<polygon class="st3" points="75.4,83.7 83.8,75.5 78.6,70.1 71.3,79.6 	"/>
	<path class="st2" d="M45,90C20.2,90,0,69.8,0,45S20.2,0,45,0s45,20.2,45,45S69.8,90,45,90z M45,4.7C22.8,4.7,4.7,22.8,4.7,45
		S22.8,85.4,45,85.4S85.4,67.3,85.4,45S67.3,4.7,45,4.7z"/>
	<path class="st4" d="M40.7,14.8c0,0,5.8-5.2,3.7-6.7c-4-2.8,24.5-2.1,32.2,18.3C76.6,26.4,58.9,7.6,40.7,14.8z"/>
	<g class="st5">
		<path class="st1" d="M122.6,81.5h-6.2V88h-2V73.3h9.2v1.6h-7.2V80h6.2V81.5z"/>
		<path class="st1" d="M127.7,74.3h-2v-2h2V74.3z M127.7,88h-2V77.1h2V88z"/>
		<path class="st1" d="M132.6,77.1l0.1,1.6c0.4-0.6,0.8-1,1.4-1.3c0.5-0.3,1.2-0.5,1.9-0.5c1.2,0,2.1,0.3,2.7,1c0.6,0.7,1,1.8,1,3.2
			V88h-2v-6.9c0-1-0.2-1.6-0.6-2.1c-0.4-0.4-1-0.6-1.7-0.6c-0.6,0-1.1,0.1-1.6,0.4c-0.4,0.2-0.8,0.6-1,1V88h-2V77.1H132.6z"/>
		<path class="st1" d="M142.1,82.8c0-1.8,0.4-3.2,1.1-4.3c0.8-1.1,1.8-1.6,3.2-1.6c0.6,0,1.2,0.1,1.7,0.4c0.5,0.2,0.9,0.6,1.3,1v-6
			h2V88h-1.5l-0.3-1.4c-0.4,0.5-0.8,0.9-1.3,1.2s-1.1,0.4-1.8,0.4c-1.3,0-2.4-0.5-3.1-1.4s-1.1-2.2-1.1-3.8V82.8z M144.1,83
			c0,1.1,0.2,2,0.7,2.7c0.5,0.7,1.2,1,2.1,1c0.6,0,1.1-0.1,1.5-0.4s0.7-0.6,1-1.1V80c-0.3-0.5-0.6-0.8-1-1.1
			c-0.4-0.3-0.9-0.4-1.5-0.4c-1,0-1.7,0.4-2.1,1.2c-0.5,0.8-0.7,1.8-0.7,3.1V83z"/>
		<path class="st1" d="M159.7,88V73.3h4.8c1.5,0,2.7,0.3,3.6,1c0.9,0.7,1.3,1.7,1.3,3c0,0.6-0.2,1.2-0.6,1.7
			c-0.4,0.5-0.9,0.9-1.6,1.1c1,0.1,1.7,0.6,2.3,1.3c0.6,0.7,0.8,1.5,0.8,2.5c0,1.3-0.4,2.4-1.3,3.1s-2.1,1.1-3.6,1.1H159.7z
			 M161.7,79.6h3.2c0.7,0,1.3-0.2,1.8-0.6s0.7-1,0.7-1.7c0-0.8-0.3-1.4-0.8-1.8c-0.5-0.4-1.2-0.6-2.2-0.6h-2.8V79.6z M161.7,81.1
			v5.3h3.8c0.9,0,1.6-0.2,2.1-0.7c0.5-0.4,0.8-1.1,0.8-1.9c0-0.8-0.3-1.5-0.8-2s-1.2-0.8-2.1-0.8h-0.1H161.7z"/>
		<path class="st1" d="M177.2,88.2c-1.6,0-2.8-0.5-3.7-1.5s-1.3-2.3-1.3-4v-0.4c0-1.6,0.5-2.9,1.4-3.9s2-1.5,3.3-1.5
			c1.5,0,2.6,0.5,3.3,1.4c0.7,0.9,1.1,2.1,1.1,3.6v1.1h-7l0,0.1c0,1.1,0.2,2,0.7,2.7s1.2,1,2.2,1c0.7,0,1.3-0.1,1.8-0.3
			s0.9-0.5,1.3-0.8l0.8,1.3c-0.4,0.4-0.9,0.7-1.5,1C178.8,88.1,178.1,88.2,177.2,88.2z M176.8,78.5c-0.7,0-1.3,0.3-1.7,0.8
			c-0.5,0.5-0.7,1.2-0.8,2.1l0,0.1h4.9v-0.2c0-0.8-0.2-1.5-0.6-2C178.3,78.7,177.7,78.5,176.8,78.5z"/>
		<path class="st1" d="M185.2,77.1l0.1,1.6c0.4-0.6,0.8-1,1.4-1.3c0.5-0.3,1.2-0.5,1.9-0.5c1.2,0,2.1,0.3,2.7,1c0.6,0.7,1,1.8,1,3.2
			V88h-2v-6.9c0-1-0.2-1.6-0.6-2.1c-0.4-0.4-1-0.6-1.7-0.6c-0.6,0-1.1,0.1-1.6,0.4s-0.8,0.6-1,1V88h-2V77.1H185.2z"/>
		<path class="st1" d="M199.8,88.2c-1.6,0-2.8-0.5-3.7-1.5c-0.9-1-1.3-2.3-1.3-4v-0.4c0-1.6,0.5-2.9,1.4-3.9s2-1.5,3.3-1.5
			c1.5,0,2.6,0.5,3.3,1.4c0.7,0.9,1.1,2.1,1.1,3.6v1.1h-7l0,0.1c0,1.1,0.2,2,0.7,2.7s1.2,1,2.2,1c0.7,0,1.3-0.1,1.8-0.3
			s0.9-0.5,1.3-0.8l0.8,1.3c-0.4,0.4-0.9,0.7-1.5,1C201.4,88.1,200.7,88.2,199.8,88.2z M199.4,78.5c-0.7,0-1.3,0.3-1.7,0.8
			c-0.5,0.5-0.7,1.2-0.8,2.1l0,0.1h4.9v-0.2c0-0.8-0.2-1.5-0.6-2C200.9,78.7,200.3,78.5,199.4,78.5z"/>
		<path class="st1" d="M206.6,88v-9.5h-1.7v-1.5h1.7v-1.2c0-1.2,0.4-2.2,1.1-2.9s1.7-1,3-1c0.5,0,0.9,0.1,1.3,0.2
			c0.4,0.1,1,0.3,1.5,0.5l-0.3,1.6c-0.4-0.1-0.7-0.3-1.1-0.4c-0.4-0.1-0.8-0.2-1.2-0.2c-0.8,0-1.4,0.2-1.7,0.5
			c-0.3,0.3-0.5,0.9-0.5,1.6v1.2h2.2v1.5h-2.2V88H206.6z M214.5,88h-2V77.1h2V88z"/>
		<path class="st1" d="M220.4,74.5v2.6h2.1v1.5h-2.1v6.6c0,0.5,0.1,0.9,0.3,1.1c0.2,0.2,0.5,0.3,0.8,0.3c0.1,0,0.2,0,0.4,0
			c0.1,0,0.3-0.1,0.4-0.1l0.3,1.4c-0.1,0.1-0.4,0.2-0.7,0.3c-0.3,0.1-0.6,0.1-0.9,0.1c-0.8,0-1.5-0.2-1.9-0.7s-0.7-1.3-0.7-2.3v-6.6
			h-1.7v-1.5h1.7v-2.6H220.4z"/>
		<path class="st1" d="M230.9,85.1c0-0.4-0.2-0.8-0.5-1.1c-0.3-0.3-1-0.5-1.9-0.7c-1.3-0.3-2.3-0.7-3-1.2c-0.7-0.5-1-1.2-1-2
			c0-0.9,0.4-1.7,1.1-2.3c0.8-0.6,1.7-0.9,2.9-0.9c1.2,0,2.2,0.3,3,1c0.8,0.7,1.1,1.5,1.1,2.4l0,0.1h-1.9c0-0.5-0.2-0.9-0.6-1.3
			c-0.4-0.4-0.9-0.6-1.6-0.6c-0.7,0-1.2,0.2-1.6,0.5c-0.3,0.3-0.5,0.7-0.5,1.1c0,0.4,0.2,0.8,0.5,1s0.9,0.5,1.9,0.6
			c1.3,0.3,2.4,0.7,3.1,1.2c0.7,0.5,1,1.2,1,2c0,1-0.4,1.8-1.2,2.4c-0.8,0.6-1.8,0.9-3.1,0.9c-1.4,0-2.5-0.4-3.3-1.1
			c-0.8-0.7-1.2-1.5-1.1-2.5l0-0.1h1.9c0,0.7,0.3,1.2,0.8,1.6c0.5,0.3,1.1,0.5,1.7,0.5c0.7,0,1.3-0.1,1.7-0.4
			C230.7,85.9,230.9,85.6,230.9,85.1z"/>
		<path class="st1" d="M239.7,84.1c0-0.8,0.2-1.5,0.7-2.2c0.5-0.6,1.2-1.2,2.1-1.9c-0.5-0.7-0.9-1.3-1.2-1.8
			c-0.3-0.5-0.4-1.1-0.4-1.6c0-1.1,0.3-2,1-2.6c0.7-0.6,1.6-0.9,2.7-0.9c1.1,0,1.9,0.3,2.6,0.9s1,1.4,1,2.2c0,0.7-0.2,1.2-0.5,1.7
			c-0.4,0.5-0.9,1-1.6,1.5l-1.1,0.8l3.4,4.1c0.3-0.4,0.5-0.9,0.6-1.5c0.2-0.5,0.2-1.1,0.2-1.7h1.8c0,0.9-0.1,1.7-0.4,2.5
			c-0.3,0.8-0.6,1.4-1.1,2l1.9,2.3l0,0.1h-2.3l-0.9-1c-0.5,0.4-1.1,0.7-1.8,0.9c-0.7,0.2-1.3,0.3-2,0.3c-1.5,0-2.6-0.4-3.5-1.2
			C240.2,86.3,239.7,85.3,239.7,84.1z M244.5,86.7c0.5,0,1-0.1,1.4-0.2c0.5-0.2,0.9-0.4,1.3-0.7l-3.6-4.4l-0.4,0.3
			c-0.6,0.5-1,0.9-1.2,1.3c-0.2,0.4-0.3,0.8-0.3,1.1c0,0.8,0.2,1.4,0.7,1.9C242.9,86.4,243.6,86.7,244.5,86.7z M243,76.6
			c0,0.4,0.1,0.7,0.3,1.1c0.2,0.4,0.5,0.8,0.8,1.3l1.4-1c0.4-0.3,0.6-0.5,0.8-0.8c0.1-0.3,0.2-0.6,0.2-1c0-0.4-0.2-0.8-0.5-1.1
			c-0.3-0.3-0.8-0.5-1.3-0.5c-0.5,0-1,0.2-1.3,0.6C243.2,75.6,243,76.1,243,76.6z"/>
		<path class="st1" d="M266.7,84.3c0-0.7-0.2-1.2-0.7-1.7c-0.5-0.5-1.3-0.8-2.5-1.2c-1.5-0.4-2.7-0.9-3.5-1.6s-1.3-1.6-1.3-2.7
			c0-1.2,0.5-2.1,1.4-2.9c0.9-0.8,2.1-1.2,3.5-1.2c1.5,0,2.8,0.4,3.7,1.3c0.9,0.9,1.4,1.9,1.3,3.1l0,0.1h-1.9c0-0.8-0.3-1.5-0.9-2.1
			c-0.6-0.5-1.3-0.8-2.2-0.8c-0.9,0-1.6,0.2-2.1,0.7c-0.5,0.5-0.7,1-0.7,1.8c0,0.6,0.3,1.2,0.8,1.6c0.5,0.4,1.4,0.8,2.6,1.1
			c1.5,0.4,2.6,0.9,3.4,1.7c0.8,0.7,1.2,1.7,1.2,2.8c0,1.2-0.5,2.1-1.4,2.9c-0.9,0.7-2.2,1.1-3.7,1.1c-1.4,0-2.7-0.4-3.8-1.2
			c-1.1-0.8-1.6-1.9-1.6-3.2l0-0.1h1.9c0,0.9,0.4,1.6,1.1,2.1c0.7,0.5,1.5,0.8,2.4,0.8c0.9,0,1.7-0.2,2.2-0.6
			C266.4,85.6,266.7,85.1,266.7,84.3z"/>
		<path class="st1" d="M278.2,86.4c-0.3,0.6-0.8,1-1.3,1.4s-1.2,0.5-1.9,0.5c-1.2,0-2.1-0.4-2.8-1.1c-0.7-0.8-1-1.9-1-3.6v-6.4h2
			v6.5c0,1.2,0.2,2,0.5,2.4s0.9,0.7,1.6,0.7c0.7,0,1.3-0.1,1.8-0.4c0.5-0.3,0.8-0.7,1-1.2v-7.9h2V88h-1.8L278.2,86.4z"/>
		<path class="st1" d="M292.3,83c0,1.6-0.4,2.8-1.1,3.8s-1.8,1.4-3.1,1.4c-0.7,0-1.4-0.1-1.9-0.4c-0.5-0.3-1-0.7-1.3-1.3l-0.3,1.5
			H283V72.3h2v6.1c0.3-0.5,0.8-0.9,1.3-1.1c0.5-0.3,1.1-0.4,1.8-0.4c1.3,0,2.4,0.5,3.2,1.6s1.1,2.5,1.1,4.3V83z M290.3,82.8
			c0-1.3-0.2-2.3-0.7-3.1c-0.5-0.8-1.2-1.2-2.1-1.2c-0.6,0-1.1,0.2-1.6,0.4c-0.4,0.3-0.8,0.7-1,1.2v4.7c0.3,0.5,0.6,1,1,1.3
			c0.4,0.3,0.9,0.5,1.6,0.5c0.9,0,1.6-0.3,2.1-1c0.5-0.7,0.7-1.5,0.7-2.6V82.8z"/>
		<path class="st1" d="M301.1,85.1c0-0.4-0.2-0.8-0.5-1.1c-0.3-0.3-1-0.5-1.9-0.7c-1.3-0.3-2.3-0.7-3-1.2c-0.7-0.5-1-1.2-1-2
			c0-0.9,0.4-1.7,1.1-2.3c0.8-0.6,1.7-0.9,2.9-0.9c1.2,0,2.2,0.3,3,1c0.8,0.7,1.1,1.5,1.1,2.4l0,0.1H301c0-0.5-0.2-0.9-0.6-1.3
			s-0.9-0.6-1.6-0.6c-0.7,0-1.2,0.2-1.6,0.5s-0.5,0.7-0.5,1.1c0,0.4,0.1,0.8,0.5,1c0.3,0.2,0.9,0.5,1.9,0.6c1.3,0.3,2.4,0.7,3.1,1.2
			c0.7,0.5,1,1.2,1,2c0,1-0.4,1.8-1.2,2.4c-0.8,0.6-1.8,0.9-3.1,0.9c-1.4,0-2.5-0.4-3.3-1.1s-1.2-1.5-1.1-2.5l0-0.1h1.9
			c0,0.7,0.3,1.2,0.8,1.6c0.5,0.3,1.1,0.5,1.7,0.5c0.7,0,1.3-0.1,1.7-0.4C300.9,85.9,301.1,85.6,301.1,85.1z"/>
		<path class="st1" d="M307.7,74.3h-2v-2h2V74.3z M307.7,88h-2V77.1h2V88z"/>
		<path class="st1" d="M310.3,82.8c0-1.8,0.4-3.2,1.1-4.3c0.8-1.1,1.8-1.6,3.2-1.6c0.6,0,1.2,0.1,1.7,0.4s0.9,0.6,1.3,1v-6h2V88
			h-1.5l-0.3-1.4c-0.4,0.5-0.8,0.9-1.3,1.2s-1.1,0.4-1.8,0.4c-1.3,0-2.4-0.5-3.1-1.4s-1.1-2.2-1.1-3.8V82.8z M312.3,83
			c0,1.1,0.2,2,0.7,2.7s1.2,1,2.1,1c0.6,0,1.1-0.1,1.5-0.4s0.7-0.6,1-1.1V80c-0.3-0.5-0.6-0.8-1-1.1c-0.4-0.3-0.9-0.4-1.5-0.4
			c-1,0-1.7,0.4-2.1,1.2c-0.5,0.8-0.7,1.8-0.7,3.1V83z"/>
		<path class="st1" d="M324.7,74.3h-2v-2h2V74.3z M324.7,88h-2V77.1h2V88z"/>
		<path class="st1" d="M332.3,88.2c-1.6,0-2.8-0.5-3.7-1.5c-0.9-1-1.3-2.3-1.3-4v-0.4c0-1.6,0.5-2.9,1.4-3.9s2-1.5,3.3-1.5
			c1.5,0,2.6,0.5,3.3,1.4c0.7,0.9,1.1,2.1,1.1,3.6v1.1h-7l0,0.1c0,1.1,0.2,2,0.7,2.7s1.2,1,2.2,1c0.7,0,1.3-0.1,1.8-0.3
			s0.9-0.5,1.3-0.8l0.8,1.3c-0.4,0.4-0.9,0.7-1.5,1C334,88.1,333.2,88.2,332.3,88.2z M332,78.5c-0.7,0-1.3,0.3-1.7,0.8
			c-0.5,0.5-0.7,1.2-0.8,2.1l0,0.1h4.9v-0.2c0-0.8-0.2-1.5-0.6-2C333.4,78.7,332.8,78.5,332,78.5z"/>
		<path class="st1" d="M345,85.1c0-0.4-0.2-0.8-0.5-1.1c-0.3-0.3-1-0.5-1.9-0.7c-1.3-0.3-2.3-0.7-3-1.2c-0.7-0.5-1-1.2-1-2
			c0-0.9,0.4-1.7,1.1-2.3c0.8-0.6,1.7-0.9,2.9-0.9c1.2,0,2.2,0.3,3,1c0.8,0.7,1.1,1.5,1.1,2.4l0,0.1h-1.9c0-0.5-0.2-0.9-0.6-1.3
			s-0.9-0.6-1.6-0.6c-0.7,0-1.2,0.2-1.6,0.5s-0.5,0.7-0.5,1.1c0,0.4,0.1,0.8,0.5,1c0.3,0.2,0.9,0.5,1.9,0.6c1.3,0.3,2.4,0.7,3.1,1.2
			c0.7,0.5,1,1.2,1,2c0,1-0.4,1.8-1.2,2.4c-0.8,0.6-1.8,0.9-3.1,0.9c-1.4,0-2.5-0.4-3.3-1.1s-1.2-1.5-1.1-2.5l0-0.1h1.9
			c0,0.7,0.3,1.2,0.8,1.6c0.5,0.3,1.1,0.5,1.7,0.5c0.7,0,1.3-0.1,1.7-0.4C344.8,85.9,345,85.6,345,85.1z"/>
	</g>
</g>
</svg>
